{
.appVersion = "1213";
DisplayStrings = (
"onepIn/Placeholder eu\012/l.ss01/l.ss01/l.ss01/l.ss01/Placeholder/l.ss01/l.ss01/l.ss01/l.ss01/Placeholder n /Placeholder o"
);
copyright = "Copyright (c) 2013 by Jacques Le Bailly. All rights reserved.";
customParameters = (
{
name = description;
value = "Copyright (c) 2013 by Jacques Le Bailly. All rights reserved.";
},
{
name = vendorID;
value = bvf;
},
{
name = unicodeRanges;
value = (
0
);
},
{
name = codePageRanges;
value = (
1252
);
},
{
name = glyphOrder;
value = (
A,
Aogonek,
AE,
B,
C,
D,
Eth,
E,
Eogonek,
F,
G,
H,
Hbar,
I,
Iogonek,
I_J.loclNLD,
J,
K,
L,
Lcaron,
Ldot,
Lslash,
M,
N,
Eng,
O,
Oslash,
Ohorn,
Oogonek,
OE,
P,
Thorn,
Q,
R,
S,
Germandbls,
Schwa,
T,
Tbar,
U,
Uogonek,
Uhorn,
V,
W,
X,
Y,
Z,
a,
aogonek,
ae,
b,
c,
d,
dcaron,
dcroat,
eth,
e,
eogonek,
f,
g,
h,
hbar,
i,
idotless,
iogonek,
i_j.loclNLD,
j,
jdotless,
k,
kgreenlandic,
l,
ldot,
lcaron,
lslash,
m,
n,
eng,
o,
oogonek,
oslash,
ohorn,
oe,
p,
thorn,
q,
r,
s,
germandbls,
schwa,
t,
tbar,
tcaron,
u,
uogonek,
uhorn,
v,
w,
x,
y,
z
);
}
);
date = "2013-08-08 13:48:03 +0000";
disablesNiceNames = 1;
familyName = NPOjlbOneP;
fontMaster = (
{
alignmentZones = (
"{810, 20}",
"{600, 20}",
"{0, -20}",
"{-190, -20}"
);
ascender = 810;
capHeight = 810;
customParameters = (
{
name = typoAscender;
value = 750;
},
{
name = typoDescender;
value = -250;
},
{
name = typoLineGap;
value = 0;
},
{
name = winAscent;
value = 801;
},
{
name = winDescent;
value = 209;
},
{
name = hheaAscender;
value = 750;
},
{
name = hheaDescender;
value = -250;
},
{
name = strikeoutPosition;
value = 250;
},
{
name = strikeoutSize;
value = 50;
}
);
descender = -190;
id = "A3B50665-EA37-4AC6-885C-1233CA61B6BD";
userData = {
GSCornerRadius = 25;
};
weight = Light;
weightValue = 93;
widthValue = 5;
xHeight = 600;
},
{
alignmentZones = (
"{810, 20}",
"{600, 20}",
"{0, -20}",
"{-190, -20}"
);
ascender = 810;
capHeight = 810;
customParameters = (
{
name = typoAscender;
value = 750;
},
{

glyphs = (
{
glyphname = A;
lastChange = "2019-02-05 11:25:30 +0000";
layers = (
{
hints = (
{
horizontal = 1;
place = "{-10, 89}";
type = Stem;
},
{
horizontal = 1;
place = "{517, 91}";
type = Stem;
},
{
place = "{58, 96}";
type = Stem;
},
{
place = "{453, 93}";
type = Stem;
},
{
horizontal = 1;
place = "{0, 21}";
target = up;
type = BottomGhost;
}
);
layerId = "A3B50665-EA37-4AC6-885C-1233CA61B6BD";
paths = (
{
closed = 1;
nodes = (
"378 -10 OFFCURVE",
"431 20 OFFCURVE",
"460 65 CURVE",
"460 21 LINE SMOOTH",
"460 10 OFFCURVE",
"470 0 OFFCURVE",
"482 0 CURVE SMOOTH",
"524 0 LINE SMOOTH",
"536 0 OFFCURVE",
"546 11 OFFCURVE",
"546 22 CURVE SMOOTH",
"546 354 LINE SMOOTH",
"546 429 OFFCURVE",
"542 493 OFFCURVE",
"493 541 CURVE SMOOTH",
"454 580 OFFCURVE",
"384 608 OFFCURVE",
"274 608 CURVE SMOOTH",
"192 608 OFFCURVE",
"145 603 OFFCURVE",
"104 597 CURVE",
"92 596 OFFCURVE",
"82 586 OFFCURVE",
"82 573 CURVE SMOOTH",
"82 527 LINE SMOOTH",
"82 515 OFFCURVE",
"92 506 OFFCURVE",
"104 507 CURVE SMOOTH",
"147 512 OFFCURVE",
"193 517 OFFCURVE",
"273 517 CURVE SMOOTH",
"381 517 OFFCURVE",
"425 486 OFFCURVE",
"442 447 CURVE",
"185 310 LINE SMOOTH",
"104 267 OFFCURVE",
"58 234 OFFCURVE",
"58 150 CURVE SMOOTH",
"58 73 OFFCURVE",
"109 -10 OFFCURVE",
"289 -10 CURVE SMOOTH"
);
},
{
closed = 1;
nodes = (
"163 79 OFFCURVE",
"154 122 OFFCURVE",
"154 159 CURVE SMOOTH",
"154 192 OFFCURVE",
"169 213 OFFCURVE",
"230 245 CURVE SMOOTH",
"453 364 LINE",
"453 294 LINE SMOOTH",
"453 239 OFFCURVE",
"453 195 OFFCURVE",
"445 148 CURVE SMOOTH",
"439 116 OFFCURVE",
"421 79 OFFCURVE",
"293 79 CURVE SMOOTH"
);
}
);
width = 628;
},
{
background = {
paths = (
{
closed = 1;
nodes = (
"368 -10 OFFCURVE",
"414 26 OFFCURVE",
"437 77 CURVE",
"437 30 LINE SMOOTH",
"437 10 OFFCURVE",
"449 0 OFFCURVE",
"479 0 CURVE SMOOTH",
"536 0 LINE SMOOTH",
"566 0 OFFCURVE",
"576 20 OFFCURVE",
"576 40 CURVE SMOOTH",
"576 339 LINE SMOOTH",
"576 417 OFFCURVE",
"570 499 OFFCURVE",
"514 551 CURVE SMOOTH",
"471 591 OFFCURVE",
"399 620 OFFCURVE",
"279 620 CURVE SMOOTH",
"207 620 OFFCURVE",
"149 614 OFFCURVE",
"105 606 CURVE SMOOTH",
"81 602 OFFCURVE",
"68 586 OFFCURVE",
"68 564 CURVE SMOOTH",
"68 482 LINE SMOOTH",
"68 463 OFFCURVE",
"82 450 OFFCURVE",
"105 453 CURVE SMOOTH",
"178 462 OFFCURVE",
"217 465 OFFCURVE",
"281 465 CURVE SMOOTH",
"383 465 OFFCURVE",
"401 434 OFFCURVE",
"406 406 CURVE SMOOTH",
"408 392 OFFCURVE",
"410 378 OFFCURVE",
"411 365 CURVE",
"251 339 LINE SMOOTH",
"131 319 OFFCURVE",
"45 273 OFFCURVE",
"45 154 CURVE SMOOTH",
"45 71 OFFCURVE",
"99 -10 OFFCURVE",
"265 -10 CURVE SMOOTH"
);
},
{
closed = 1;
nodes = (
"223 132 OFFCURVE",
"215 162 OFFCURVE",
"215 185 CURVE SMOOTH",
"215 208 OFFCURVE",
"232 233 OFFCURVE",
"298 243 CURVE SMOOTH",
"415 260 LINE",
"415 243 LINE SMOOTH",
"415 233 OFFCURVE",
"413 204 OFFCURVE",
"409 183 CURVE SMOOTH",
"405 160 OFFCURVE",
"392 132 OFFCURVE",
"306 132 CURVE SMOOTH"
);
}
);
};
hints = (
{
horizontal = 1;
place = "{-10, 148}";
type = Stem;
},
{
horizontal = 1;
place = "{465, 155}";
type = Stem;
},
{
place = "{45, 170}";
type = Stem;
},
{
place = "{415, 161}";
type = Stem;
},
{
horizontal = 1;
place = "{0, 21}";
target = up;
type = BottomGhost;
}
);
layerId = "014D4A40-7C7F-4023-B30E-1F55CE5EA091";
paths = (
{
closed = 1;
nodes = (
"368 -10 OFFCURVE",
"414 26 OFFCURVE",
"437 77 CURVE",
"437 30 LINE SMOOTH",
"437 10 OFFCURVE",
"449 0 OFFCURVE",
"479 0 CURVE SMOOTH",
"536 0 LINE SMOOTH",
"566 0 OFFCURVE",
"576 20 OFFCURVE",
"576 40 CURVE SMOOTH",
"576 339 LINE SMOOTH",
"576 417 OFFCURVE",
"570 499 OFFCURVE",
"514 551 CURVE SMOOTH",
"471 591 OFFCURVE",
"399 620 OFFCURVE",
"279 620 CURVE SMOOTH",
"207 620 OFFCURVE",
"149 614 OFFCURVE",
"105 606 CURVE SMOOTH",
"81 602 OFFCURVE",
"68 586 OFFCURVE",
"68 564 CURVE SMOOTH",
"68 482 LINE SMOOTH",
"68 463 OFFCURVE",
"82 450 OFFCURVE",
"105 453 CURVE SMOOTH",
"178 462 OFFCURVE",
"217 465 OFFCURVE",
"281 465 CURVE SMOOTH",
"378 465 OFFCURVE",
"408 445 OFFCURVE",
"411 365 CURVE",
"251 339 LINE SMOOTH",
"131 319 OFFCURVE",
"45 273 OFFCURVE",
"45 154 CURVE SMOOTH",
"45 71 OFFCURVE",
"99 -10 OFFCURVE",
"265 -10 CURVE SMOOTH"
);
},
{
closed = 1;
nodes = (
"223 132 OFFCURVE",
"215 162 OFFCURVE",
"215 185 CURVE SMOOTH",
"215 208 OFFCURVE",
"232 233 OFFCURVE",
"298 243 CURVE SMOOTH",
"415 260 LINE",
"415 243 LINE SMOOTH",
"415 233 OFFCURVE",
"413 204 OFFCURVE",
"409 183 CURVE SMOOTH",
"405 160 OFFCURVE",
"392 132 OFFCURVE",
"306 132 CURVE SMOOTH"
);
}
);
width = 636;
}
);
note = a;
unicode = 0041;
},
{
glyphname = B;
lastChange = "2019-02-05 11:25:14 +0000";
layers = (
{
layerId = "A3B50665-EA37-4AC6-885C-1233CA61B6BD";
paths = (
{
closed = 1;
nodes = (
"66 611 OFFCURVE",
"62 470 OFFCURVE",
"62 422 CURVE SMOOTH",
"62 416 LINE SMOOTH",
"62 405 OFFCURVE",
"72 393 OFFCURVE",
"85 393 CURVE SMOOTH",
"130 393 LINE SMOOTH",
"143 393 OFFCURVE",
"153 405 OFFCURVE",
"153 415 CURVE SMOOTH",
"153 468 OFFCURVE",
"154 522 OFFCURVE",
"305 522 CURVE SMOOTH",
"406 522 OFFCURVE",
"442 495 OFFCURVE",
"453 449 CURVE",
"191 310 LINE SMOOTH",
"109 266 OFFCURVE",
"64 234 OFFCURVE",
"64 150 CURVE SMOOTH",
"64 73 OFFCURVE",
"114 -10 OFFCURVE",
"294 -10 CURVE SMOOTH",
"383 -10 OFFCURVE",
"436 20 OFFCURVE",
"465 64 CURVE",
"465 21 LINE SMOOTH",
"465 10 OFFCURVE",
"476 0 OFFCURVE",
"488 0 CURVE SMOOTH",
"529 0 LINE SMOOTH",
"542 0 OFFCURVE",
"552 11 OFFCURVE",
"552 22 CURVE SMOOTH",
"552 365 LINE SMOOTH",
"552 469 OFFCURVE",
"544 611 OFFCURVE",
"302 611 CURVE SMOOTH"
);
},
{
closed = 1;
nodes = (
"159 192 OFFCURVE",
"174 212 OFFCURVE",
"236 245 CURVE SMOOTH",
"459 364 LINE",
"459 294 LINE SMOOTH",
"459 239 OFFCURVE",
"459 195 OFFCURVE",
"451 148 CURVE SMOOTH",
"445 116 OFFCURVE",
"427 79 OFFCURVE",
"299 79 CURVE SMOOTH",
"169 79 OFFCURVE",
"159 122 OFFCURVE",
"159 159 CURVE SMOOTH"
);
}
);
width = 634;
},
{
hints = (
{
horizontal = 1;
place = "{0, 21}";
target = up;
type = BottomGhost;
},
{
horizontal = 1;
place = "{472, 148}";
type = Stem;
},
{
place = "{49, 151}";
type = Stem;
},
{
place = "{419, 161}";
type = Stem;
},
{
horizontal = 1;
place = "{-10, 148}";
type = Stem;
},
{
place = "{441, 139}";
type = Stem;
},
{
place = "{49, 170}";
type = Stem;
}
);
layerId = "014D4A40-7C7F-4023-B30E-1F55CE5EA091";
paths = (
{
closed = 1;
nodes = (
"56 620 OFFCURVE",
"45 477 OFFCURVE",
"45 428 CURVE SMOOTH",
"45 416 LINE SMOOTH",
"45 396 OFFCURVE",
"55 376 OFFCURVE",
"85 376 CURVE SMOOTH",
"161 376 LINE SMOOTH",
"191 376 OFFCURVE",
"200 397 OFFCURVE",
"200 410 CURVE SMOOTH",
"200 450 OFFCURVE",
"214 472 OFFCURVE",
"308 472 CURVE SMOOTH",
"362 472 OFFCURVE",
"390 461 OFFCURVE",
"404 442 CURVE",
"175 318 LINE SMOOTH",
"85 270 OFFCURVE",
"49 234 OFFCURVE",
"49 154 CURVE SMOOTH",
"49 71 OFFCURVE",
"103 -10 OFFCURVE",
"269 -10 CURVE SMOOTH",
"372 -10 OFFCURVE",
"418 26 OFFCURVE",
"441 77 CURVE",
"441 30 LINE SMOOTH",
"441 10 OFFCURVE",
"453 0 OFFCURVE",
"483 0 CURVE SMOOTH",
"540 0 LINE SMOOTH",
"570 0 OFFCURVE",
"580 20 OFFCURVE",
"580 40 CURVE SMOOTH",
"580 374 LINE SMOOTH",
"580 467 OFFCURVE",
"569 620 OFFCURVE",
"308 620 CURVE SMOOTH"
);
},
{
closed = 1;
nodes = (
"219 209 OFFCURVE",
"234 222 OFFCURVE",
"278 246 CURVE SMOOTH",
"419 323 LINE",
"419 245 LINE",
"418 235 OFFCURVE",
"417 206 OFFCURVE",
"413 185 CURVE SMOOTH",
"409 164 OFFCURVE",
"396 138 OFFCURVE",
"310 138 CURVE SMOOTH",
"227 138 OFFCURVE",
"219 166 OFFCURVE",
"219 187 CURVE SMOOTH"
);
}
);
width = 640;
}
);
note = A;
unicode = 0042;
},
{
glyphname = E;
lastChange = "2019-02-05 11:22:09 +0000";
layers = (
{
hints = (
{
horizontal = 1;
place = "{-10, 89}";
type = Stem;
},
{
horizontal = 1;
place = "{522, 89}";
type = Stem;
},
{
place = "{77, 92}";
type = Stem;
},
{
place = "{469, 96}";
type = Stem;
}
);
layerId = "A3B50665-EA37-4AC6-885C-1233CA61B6BD";
paths = (
{
closed = 1;
nodes = (
"562 -10 OFFCURVE",
"566 131 OFFCURVE",
"566 179 CURVE SMOOTH",
"566 185 LINE SMOOTH",
"566 196 OFFCURVE",
"556 208 OFFCURVE",
"544 208 CURVE SMOOTH",
"498 208 LINE SMOOTH",
"486 208 OFFCURVE",
"476 196 OFFCURVE",
"476 186 CURVE SMOOTH",
"476 133 OFFCURVE",
"474 79 OFFCURVE",
"323 79 CURVE SMOOTH",
"205 79 OFFCURVE",
"186 116 OFFCURVE",
"179 157 CURVE",
"438 295 LINE SMOOTH",
"519 338 OFFCURVE",
"565 369 OFFCURVE",
"565 452 CURVE SMOOTH",
"565 528 OFFCURVE",
"515 611 OFFCURVE",
"331 611 CURVE SMOOTH",
"154 611 OFFCURVE",
"104 533 OFFCURVE",
"91 464 CURVE SMOOTH",
"82 413 OFFCURVE",
"77 363 OFFCURVE",
"77 300 CURVE SMOOTH",
"77 229 OFFCURVE",
"82 185 OFFCURVE",
"91 135 CURVE SMOOTH",
"104 65 OFFCURVE",
"150 -10 OFFCURVE",
"327 -10 CURVE SMOOTH"
);
},
{
closed = 1;
nodes = (
"169 258 OFFCURVE",
"169 278 OFFCURVE",
"169 300 CURVE SMOOTH",
"169 354 OFFCURVE",
"172 401 OFFCURVE",
"181 449 CURVE SMOOTH",
"187 482 OFFCURVE",
"208 522 OFFCURVE",
"330 522 CURVE SMOOTH",
"460 522 OFFCURVE",
"469 479 OFFCURVE",
"469 442 CURVE SMOOTH",
"469 411 OFFCURVE",
"454 393 OFFCURVE",
"393 360 CURVE SMOOTH",
"170 240 LINE"
);
}
);
width = 629;
},
{
hints = (
{
horizontal = 1;
place = "{-10, 148}";
type = Stem;
},
{
horizontal = 1;
place = "{472, 148}";
type = Stem;
},
{
place = "{55, 160}";
type = Stem;
},
{
place = "{435, 151}";
type = Stem;
},
{
place = "{416, 170}";
type = Stem;
}
);
layerId = "014D4A40-7C7F-4023-B30E-1F55CE5EA091";
paths = (
{
closed = 1;
nodes = (
"579 -10 OFFCURVE",
"590 132 OFFCURVE",
"590 182 CURVE SMOOTH",
"590 194 LINE SMOOTH",
"590 214 OFFCURVE",
"580 234 OFFCURVE",
"550 234 CURVE SMOOTH",
"474 234 LINE SMOOTH",
"444 234 OFFCURVE",
"435 213 OFFCURVE",
"435 200 CURVE SMOOTH",
"435 160 OFFCURVE",
"421 138 OFFCURVE",
"327 138 CURVE SMOOTH",
"269 138 OFFCURVE",
"243 153 OFFCURVE",
"231 170 CURVE",
"460 294 LINE SMOOTH",
"550 342 OFFCURVE",
"586 379 OFFCURVE",
"586 452 CURVE SMOOTH",
"586 539 OFFCURVE",
"537 620 OFFCURVE",
"337 620 CURVE SMOOTH",
"137 620 OFFCURVE",
"83 537 OFFCURVE",
"67 445 CURVE SMOOTH",
"62 416 OFFCURVE",
"55 378 OFFCURVE",
"55 307 CURVE SMOOTH",
"55 236 OFFCURVE",
"62 189 OFFCURVE",
"67 161 CURVE SMOOTH",
"83 69 OFFCURVE",
"132 -10 OFFCURVE",
"327 -10 CURVE SMOOTH"
);
},
{
closed = 1;
nodes = (
"215 294 OFFCURVE",
"215 299 OFFCURVE",
"215 305 CURVE SMOOTH",
"215 350 OFFCURVE",
"216 377 OFFCURVE",
"223 418 CURVE SMOOTH",
"227 442 OFFCURVE",
"249 472 OFFCURVE",
"326 472 CURVE SMOOTH",
"409 472 OFFCURVE",
"416 444 OFFCURVE",
"416 423 CURVE SMOOTH",
"416 403 OFFCURVE",
"401 390 OFFCURVE",
"357 366 CURVE SMOOTH",
"215 288 LINE"
);
}
);
width = 635;
}
);
note = E;
unicode = 0045;
},
{
glyphname = G;
lastChange = "2019-02-05 11:13:54 +0000";
layers = (
{
hints = (
{
horizontal = 1;
place = "{-209, 90}";
type = Stem;
},
{
horizontal = 1;
place = "{42, 90}";
type = Stem;
},
{
horizontal = 1;
place = "{600, -20}";
target = down;
type = TopGhost;
},
{
place = "{77, 95}";
type = Stem;
},
{
place = "{488, 93}";
type = Stem;
},
{
horizontal = 1;
place = "{521, 90}";
type = Stem;
}
);
layerId = "A3B50665-EA37-4AC6-885C-1233CA61B6BD";
paths = (
{
closed = 1;
nodes = (
"513 600 LINE SMOOTH",
"501 600 OFFCURVE",
"491 590 OFFCURVE",
"491 579 CURVE SMOOTH",
"491 541 LINE",
"463 581 OFFCURVE",
"412 611 OFFCURVE",
"318 611 CURVE SMOOTH",
"152 611 OFFCURVE",
"104 534 OFFCURVE",
"91 466 CURVE SMOOTH",
"83 417 OFFCURVE",
"77 373 OFFCURVE",
"77 327 CURVE SMOOTH",
"77 280 OFFCURVE",
"83 237 OFFCURVE",
"91 187 CURVE SMOOTH",
"104 119 OFFCURVE",
"152 42 OFFCURVE",
"318 42 CURVE SMOOTH",
"408 42 OFFCURVE",
"459 70 OFFCURVE",
"488 107 CURVE",
"488 101 LINE SMOOTH",
"488 37 OFFCURVE",
"485 -2 OFFCURVE",
"476 -48 CURVE SMOOTH",
"469 -84 OFFCURVE",
"450 -119 OFFCURVE",
"329 -119 CURVE SMOOTH",
"175 -119 OFFCURVE",
"172 -66 OFFCURVE",
"172 -13 CURVE SMOOTH",
"172 -3 OFFCURVE",
"162 8 OFFCURVE",
"150 8 CURVE SMOOTH",
"104 8 LINE SMOOTH",
"92 8 OFFCURVE",
"82 -3 OFFCURVE",
"82 -14 CURVE SMOOTH",
"82 -19 LINE SMOOTH",
"82 -68 OFFCURVE",
"87 -209 OFFCURVE",
"326 -209 CURVE SMOOTH",
"507 -209 OFFCURVE",
"554 -133 OFFCURVE",
"566 -64 CURVE SMOOTH",
"575 -14 OFFCURVE",
"581 29 OFFCURVE",
"581 101 CURVE SMOOTH",
"581 577 LINE SMOOTH",
"581 589 OFFCURVE",
"571 600 OFFCURVE",
"558 600 CURVE SMOOTH"
);
},
{
closed = 1;
nodes = (
"454 521 OFFCURVE",
"471 484 OFFCURVE",
"478 451 CURVE SMOOTH",
"487 404 OFFCURVE",
"490 366 OFFCURVE",
"490 327 CURVE SMOOTH",
"490 302 OFFCURVE",
"487 240 OFFCURVE",
"478 198 CURVE SMOOTH",
"472 168 OFFCURVE",
"454 132 OFFCURVE",
"330 132 CURVE SMOOTH",
"206 132 OFFCURVE",
"187 168 OFFCURVE",
"181 198 CURVE SMOOTH",
"172 241 OFFCURVE",
"170 283 OFFCURVE",
"170 327 CURVE SMOOTH",
"170 365 OFFCURVE",
"172 404 OFFCURVE",
"181 451 CURVE SMOOTH",
"188 484 OFFCURVE",
"206 521 OFFCURVE",
"330 521 CURVE SMOOTH"
);
}
);
width = 668;
},
{
layerId = "014D4A40-7C7F-4023-B30E-1F55CE5EA091";
width = 600;
}
);
note = G;
unicode = 0047;
},
{
color = 3;
glyphname = H;
lastChange = "2019-02-19 11:32:50 +0000";
layers = (
{
background = {
paths = (
{
closed = 1;
nodes = (
"252 770 LINE SMOOTH",
"252 790 OFFCURVE",
"240 810 OFFCURVE",
"210 810 CURVE SMOOTH",
"120 810 LINE SMOOTH",
"90 810 OFFCURVE",
"80 790 OFFCURVE",
"80 770 CURVE SMOOTH",
"80 40 LINE SMOOTH",
"80 20 OFFCURVE",
"90 0 OFFCURVE",
"120 0 CURVE SMOOTH",
"212 0 LINE SMOOTH",
"242 0 OFFCURVE",
"252 20 OFFCURVE",
"252 40 CURVE SMOOTH"
);
},
{
closed = 1;
nodes = (
"550 40 LINE SMOOTH",
"550 20 OFFCURVE",
"560 0 OFFCURVE",
"590 0 CURVE SMOOTH",
"682 0 LINE SMOOTH",
"712 0 OFFCURVE",
"722 20 OFFCURVE",
"722 40 CURVE SMOOTH",
"722 770 LINE SMOOTH",
"722 790 OFFCURVE",
"710 810 OFFCURVE",
"680 810 CURVE SMOOTH",
"590 810 LINE SMOOTH",
"560 810 OFFCURVE",
"550 790 OFFCURVE",
"550 770 CURVE SMOOTH"
);
},
{
closed = 1;
nodes = (
"586 491 LINE",
"216 491 LINE",
"216 332 LINE",
"586 332 LINE"
);
}
);
};
hints = (
{
horizontal = 1;
place = "{0, 21}";
target = up;
type = BottomGhost;
},
{
horizontal = 1;
place = "{364, 86}";
type = Stem;
},
{
horizontal = 1;
place = "{801, -20}";
target = down;
type = TopGhost;
},
{
place = "{96, 92}";
type = Stem;
},
{
place = "{576, 92}";
type = Stem;
}
);
layerId = "A3B50665-EA37-4AC6-885C-1233CA61B6BD";
paths = (
{
closed = 1;
nodes = (
"207 788 LINE SMOOTH",
"207 799 OFFCURVE",
"197 810 OFFCURVE",
"185 810 CURVE SMOOTH",
"132 810 LINE SMOOTH",
"120 810 OFFCURVE",
"110 799 OFFCURVE",
"110 788 CURVE SMOOTH",
"110 22 LINE SMOOTH",
"110 11 OFFCURVE",
"120 0 OFFCURVE",
"132 0 CURVE SMOOTH",
"185 0 LINE SMOOTH",
"197 0 OFFCURVE",
"207 11 OFFCURVE",
"207 22 CURVE SMOOTH"
);
},
{
closed = 1;
nodes = (
"589 22 LINE SMOOTH",
"589 11 OFFCURVE",
"599 0 OFFCURVE",
"611 0 CURVE SMOOTH",
"664 0 LINE SMOOTH",
"676 0 OFFCURVE",
"686 11 OFFCURVE",
"686 22 CURVE SMOOTH",
"686 788 LINE SMOOTH",
"686 799 OFFCURVE",
"676 810 OFFCURVE",
"664 810 CURVE SMOOTH",
"611 810 LINE SMOOTH",
"599 810 OFFCURVE",
"589 799 OFFCURVE",
"589 788 CURVE SMOOTH"
);
},
{
closed = 1;
nodes = (
"605 455 LINE",
"191 455 LINE",
"191 367 LINE",
"605 367 LINE"
);
}
);
width = 796;
},
{
hints = (
{
horizontal = 1;
place = "{0, 21}";
target = up;
type = BottomGhost;
},
{
horizontal = 1;
place = "{342, 139}";
type = Stem;
},
{
horizontal = 1;
place = "{810, -20}";
target = down;
type = TopGhost;
},
{
place = "{65, 162}";
type = Stem;
},
{
place = "{545, 162}";
type = Stem;
}
);
layerId = "014D4A40-7C7F-4023-B30E-1F55CE5EA091";
paths = (
{
closed = 1;
nodes = (
"252 770 LINE SMOOTH",
"252 790 OFFCURVE",
"240 810 OFFCURVE",
"210 810 CURVE SMOOTH",
"120 810 LINE SMOOTH",
"90 810 OFFCURVE",
"80 790 OFFCURVE",
"80 770 CURVE SMOOTH",
"80 40 LINE SMOOTH",
"80 20 OFFCURVE",
"90 0 OFFCURVE",
"120 0 CURVE SMOOTH",
"212 0 LINE SMOOTH",
"242 0 OFFCURVE",
"252 20 OFFCURVE",
"252 40 CURVE SMOOTH"
);
},
{
closed = 1;
nodes = (
"550 40 LINE SMOOTH",
"550 20 OFFCURVE",
"560 0 OFFCURVE",
"590 0 CURVE SMOOTH",
"682 0 LINE SMOOTH",
"712 0 OFFCURVE",
"722 20 OFFCURVE",
"722 40 CURVE SMOOTH",
"722 770 LINE SMOOTH",
"722 790 OFFCURVE",
"710 810 OFFCURVE",
"680 810 CURVE SMOOTH",
"590 810 LINE SMOOTH",
"560 810 OFFCURVE",
"550 790 OFFCURVE",
"550 770 CURVE SMOOTH"
);
},
{
closed = 1;
nodes = (
"586 491 LINE",
"216 491 LINE",
"216 332 LINE",
"586 332 LINE"
);
}
);
width = 802;
}
);
note = H;
rightMetricsKey = "=|";
unicode = 0048;
},
{
color = 3;
glyphname = I;
lastChange = "2019-02-19 11:33:05 +0000";
layers = (
{
layerId = "A3B50665-EA37-4AC6-885C-1233CA61B6BD";
paths = (
{
closed = 1;
nodes = (
"207 788 LINE SMOOTH",
"207 799 OFFCURVE",
"197 810 OFFCURVE",
"185 810 CURVE SMOOTH",
"132 810 LINE SMOOTH",
"120 810 OFFCURVE",
"110 799 OFFCURVE",
"110 788 CURVE SMOOTH",
"110 22 LINE SMOOTH",
"110 11 OFFCURVE",
"120 0 OFFCURVE",
"132 0 CURVE SMOOTH",
"185 0 LINE SMOOTH",
"197 0 OFFCURVE",
"207 11 OFFCURVE",
"207 22 CURVE SMOOTH"
);
}
);
width = 317;
},
{
layerId = "014D4A40-7C7F-4023-B30E-1F55CE5EA091";
paths = (
{
closed = 1;
nodes = (
"252 770 LINE SMOOTH",
"252 790 OFFCURVE",
"240 810 OFFCURVE",
"210 810 CURVE SMOOTH",
"120 810 LINE SMOOTH",
"90 810 OFFCURVE",
"80 790 OFFCURVE",
"80 770 CURVE SMOOTH",
"80 40 LINE SMOOTH",
"80 20 OFFCURVE",
"90 0 OFFCURVE",
"120 0 CURVE SMOOTH",
"212 0 LINE SMOOTH",
"242 0 OFFCURVE",
"252 20 OFFCURVE",
"252 40 CURVE SMOOTH"
);
}
);
width = 332;
}
);
leftMetricsKey = H;
rightMetricsKey = H;
unicode = 0049;
},
{
glyphname = K;
lastChange = "2019-02-05 11:47:16 +0000";
layers = (
{
background = {
paths = (
{
closed = 1;
nodes = (
"109 801 LINE SMOOTH",
"97 801 OFFCURVE",
"87 790 OFFCURVE",
"87 779 CURVE SMOOTH",
"87 22 LINE SMOOTH",
"87 11 OFFCURVE",
"97 0 OFFCURVE",
"109 0 CURVE SMOOTH",
"157 0 LINE SMOOTH",
"170 0 OFFCURVE",
"180 11 OFFCURVE",
"180 22 CURVE SMOOTH",
"180 258 LINE",
"308 258 LINE SMOOTH",
"423 258 OFFCURVE",
"443 221 OFFCURVE",
"454 166 CURVE SMOOTH",
"483 22 LINE SMOOTH",
"485 11 OFFCURVE",
"494 0 OFFCURVE",
"509 0 CURVE SMOOTH",
"557 0 LINE SMOOTH",
"570 0 OFFCURVE",
"579 9 OFFCURVE",
"576 23 CURVE SMOOTH",
"540 201 LINE SMOOTH",
"531 247 OFFCURVE",
"509 289 OFFCURVE",
"436 309 CURVE",
"484 336 OFFCURVE",
"501 383 OFFCURVE",
"511 445 CURVE SMOOTH",
"516 481 OFFCURVE",
"518 524 OFFCURVE",
"518 569 CURVE SMOOTH",
"518 579 LINE SMOOTH",
"518 590 OFFCURVE",
"508 600 OFFCURVE",
"495 600 CURVE SMOOTH",
"447 600 LINE SMOOTH",
"435 600 OFFCURVE",
"425 589 OFFCURVE",
"425 577 CURVE SMOOTH",
"425 500 OFFCURVE",
"422 456 OFFCURVE",
"413 414 CURVE",
"407 380 OFFCURVE",
"389 343 OFFCURVE",
"264 343 CURVE SMOOTH",
"180 343 LINE",
"180 779 LINE SMOOTH",
"180 790 OFFCURVE",
"169 801 OFFCURVE",
"157 801 CURVE SMOOTH"
);
}
);
};
hints = (
{
horizontal = 1;
place = "{0, 21}";
target = up;
type = BottomGhost;
},
{
horizontal = 1;
place = "{258, 85}";
type = Stem;
},
{
horizontal = 1;
place = "{600, -20}";
target = down;
type = TopGhost;
},
{
horizontal = 1;
place = "{801, -20}";
target = down;
type = TopGhost;
},
{
place = "{87, 93}";
type = Stem;
},
{
place = "{425, 93}";
type = Stem;
}
);
layerId = "A3B50665-EA37-4AC6-885C-1233CA61B6BD";
paths = (
{
closed = 1;
nodes = (
"180 779 LINE SMOOTH",
"180 790 OFFCURVE",
"169 801 OFFCURVE",
"157 801 CURVE SMOOTH",
"109 801 LINE SMOOTH",
"97 801 OFFCURVE",
"87 790 OFFCURVE",
"87 779 CURVE SMOOTH",
"87 22 LINE SMOOTH",
"87 11 OFFCURVE",
"97 0 OFFCURVE",
"109 0 CURVE SMOOTH",
"157 0 LINE SMOOTH",
"170 0 OFFCURVE",
"180 11 OFFCURVE",
"180 22 CURVE SMOOTH"
);
},
{
closed = 1;
nodes = (
"570 83 OFFCURVE",
"544 80 OFFCURVE",
"528 80 CURVE SMOOTH",
"470 80 OFFCURVE",
"434 105 OFFCURVE",
"378 176 CURVE SMOOTH",
"232 359 LINE",
"233 288 LINE",
"546 572 LINE SMOOTH",
"557 582 OFFCURVE",
"552 590 OFFCURVE",
"539 590 CURVE SMOOTH",
"450 590 LINE SMOOTH",
"443 590 OFFCURVE",
"436 588 OFFCURVE",
"431 583 CURVE SMOOTH",
"160 331 LINE",
"160 301 LINE",
"159 300 LINE",
"332 89 LINE SMOOTH",
"390 19 OFFCURVE",
"441 -7 OFFCURVE",
"512 -7 CURVE SMOOTH",
"541 -7 OFFCURVE",
"569 -2 OFFCURVE",
"596 11 CURVE",
"604 14 OFFCURVE",
"607 19 OFFCURVE",
"607 28 CURVE",
"606 79 LINE",
"606 91 OFFCURVE",
"600 94 OFFCURVE",
"589 90 CURVE SMOOTH"
);
}
);
width = 601;
},
{
hints = (
{
horizontal = 1;
place = "{0, 21}";
target = up;
type = BottomGhost;
},
{
horizontal = 1;
place = "{227, 148}";
type = Stem;
},
{
horizontal = 1;
place = "{600, -20}";
target = down;
type = TopGhost;
},
{
horizontal = 1;
place = "{810, -20}";
target = down;
type = TopGhost;
},
{
place = "{65, 162}";
type = Stem;
},
{
place = "{383, 162}";
type = Stem;
}
);
layerId = "014D4A40-7C7F-4023-B30E-1F55CE5EA091";
paths = (
{
closed = 1;
nodes = (
"105 810 LINE SMOOTH",
"75 810 OFFCURVE",
"65 790 OFFCURVE",
"65 770 CURVE SMOOTH",
"65 40 LINE SMOOTH",
"65 20 OFFCURVE",
"75 0 OFFCURVE",
"105 0 CURVE SMOOTH",
"187 0 LINE SMOOTH",
"217 0 OFFCURVE",
"227 20 OFFCURVE",
"227 40 CURVE SMOOTH",
"227 227 LINE",
"306 227 LINE SMOOTH",
"378 227 OFFCURVE",
"395 212 OFFCURVE",
"408 156 CURVE SMOOTH",
"434 40 LINE SMOOTH",
"438 20 OFFCURVE",
"449 0 OFFCURVE",
"481 0 CURVE SMOOTH",
"565 0 LINE SMOOTH",
"588 0 OFFCURVE",
"604 18 OFFCURVE",
"598 44 CURVE SMOOTH",
"564 201 LINE SMOOTH",
"554 248 OFFCURVE",
"532 291 OFFCURVE",
"457 311 CURVE",
"503 335 OFFCURVE",
"526 375 OFFCURVE",
"537 430 CURVE SMOOTH",
"543 463 OFFCURVE",
"545 500 OFFCURVE",
"545 544 CURVE SMOOTH",
"545 570 LINE SMOOTH",
"545 590 OFFCURVE",
"533 600 OFFCURVE",
"503 600 CURVE SMOOTH",
"423 600 LINE SMOOTH",
"393 600 OFFCURVE",
"383 580 OFFCURVE",
"383 560 CURVE SMOOTH",
"383 490 OFFCURVE",
"381 460 OFFCURVE",
"375 425 CURVE SMOOTH",
"371 401 OFFCURVE",
"356 375 OFFCURVE",
"270 375 CURVE SMOOTH",
"227 375 LINE",
"227 770 LINE SMOOTH",
"227 790 OFFCURVE",
"215 810 OFFCURVE",
"185 810 CURVE SMOOTH"
);
}
);
width = 629;
}
);
note = k;
unicode = 004B;
},
{
glyphname = M;
lastChange = "2019-02-05 11:22:22 +0000";
layers = (
{
hints = (
{
horizontal = 1;
place = "{0, 21}";
target = up;
type = BottomGhost;
},
{
horizontal = 1;
place = "{521, 90}";
type = Stem;
},
{
place = "{87, 93}";
type = Stem;
},
{
place = "{464, 93}";
type = Stem;
},
{
place = "{842, 93}";
type = Stem;
},
{
horizontal = 1;
place = "{600, -20}";
target = down;
type = TopGhost;
}
);
layerId = "A3B50665-EA37-4AC6-885C-1233CA61B6BD";
paths = (
{
closed = 1;
nodes = (
"157 0 LINE SMOOTH",
"170 0 OFFCURVE",
"180 11 OFFCURVE",
"180 22 CURVE SMOOTH",
"180 331 LINE SMOOTH",
"180 377 OFFCURVE",
"183 412 OFFCURVE",
"190 452 CURVE SMOOTH",
"196 484 OFFCURVE",
"214 521 OFFCURVE",
"322 521 CURVE SMOOTH",
"425 521 OFFCURVE",
"447 484 OFFCURVE",
"453 452 CURVE SMOOTH",
"462 404 OFFCURVE",
"464 361 OFFCURVE",
"464 300 CURVE SMOOTH",
"464 22 LINE SMOOTH",
"464 11 OFFCURVE",
"474 0 OFFCURVE",
"487 0 CURVE SMOOTH",
"536 0 LINE SMOOTH",
"547 0 OFFCURVE",
"557 11 OFFCURVE",
"557 22 CURVE SMOOTH",
"557 320 LINE SMOOTH",
"557 372 OFFCURVE",
"560 409 OFFCURVE",
"568 452 CURVE SMOOTH",
"574 484 OFFCURVE",
"593 521 OFFCURVE",
"699 521 CURVE SMOOTH",
"803 521 OFFCURVE",
"825 484 OFFCURVE",
"831 452 CURVE SMOOTH",
"839 404 OFFCURVE",
"842 361 OFFCURVE",
"842 300 CURVE SMOOTH",
"842 22 LINE SMOOTH",
"842 11 OFFCURVE",
"852 0 OFFCURVE",
"865 0 CURVE SMOOTH",
"913 0 LINE SMOOTH",
"925 0 OFFCURVE",
"935 11 OFFCURVE",
"935 22 CURVE SMOOTH",
"935 299 LINE SMOOTH",
"935 371 OFFCURVE",
"929 417 OFFCURVE",
"920 467 CURVE SMOOTH",
"909 533 OFFCURVE",
"859 611 OFFCURVE",
"712 611 CURVE SMOOTH",
"604 611 OFFCURVE",
"548 573 OFFCURVE",
"524 520 CURVE",
"498 568 OFFCURVE",
"443 611 OFFCURVE",
"335 611 CURVE SMOOTH",
"253 611 OFFCURVE",
"201 581 OFFCURVE",
"173 538 CURVE",
"173 579 LINE SMOOTH",
"173 590 OFFCURVE",
"163 600 OFFCURVE",
"151 600 CURVE SMOOTH",
"109 600 LINE SMOOTH",
"97 600 OFFCURVE",
"87 589 OFFCURVE",
"87 577 CURVE SMOOTH",
"87 22 LINE SMOOTH",
"87 11 OFFCURVE",
"97 0 OFFCURVE",
"109 0 CURVE SMOOTH"
);
}
);
width = 1017;
},
{
hints = (
{
horizontal = 1;
place = "{0, 21}";
target = up;
type = BottomGhost;
},
{
horizontal = 1;
place = "{465, 155}";
type = Stem;
},
{
place = "{65, 139}";
type = Stem;
},
{
place = "{419, 162}";
type = Stem;
},
{
place = "{773, 162}";
type = Stem;
},
{
horizontal = 1;
place = "{465, 135}";
type = Stem;
},
{
place = "{65, 162}";
type = Stem;
}
);
layerId = "014D4A40-7C7F-4023-B30E-1F55CE5EA091";
paths = (
{
closed = 1;
nodes = (
"187 0 LINE SMOOTH",
"217 0 OFFCURVE",
"227 20 OFFCURVE",
"227 40 CURVE SMOOTH",
"227 305 LINE SMOOTH",
"227 350 OFFCURVE",
"229 380 OFFCURVE",
"235 416 CURVE SMOOTH",
"239 439 OFFCURVE",
"251 465 OFFCURVE",
"326 465 CURVE SMOOTH",
"394 465 OFFCURVE",
"407 439 OFFCURVE",
"411 415 CURVE SMOOTH",
"417 380 OFFCURVE",
"419 351 OFFCURVE",
"419 304 CURVE SMOOTH",
"419 40 LINE SMOOTH",
"419 20 OFFCURVE",
"429 0 OFFCURVE",
"459 0 CURVE SMOOTH",
"541 0 LINE SMOOTH",
"571 0 OFFCURVE",
"581 20 OFFCURVE",
"581 40 CURVE SMOOTH",
"581 305 LINE SMOOTH",
"581 350 OFFCURVE",
"583 380 OFFCURVE",
"589 416 CURVE SMOOTH",
"593 439 OFFCURVE",
"605 465 OFFCURVE",
"680 465 CURVE SMOOTH",
"748 465 OFFCURVE",
"761 439 OFFCURVE",
"765 415 CURVE SMOOTH",
"771 380 OFFCURVE",
"773 351 OFFCURVE",
"773 304 CURVE SMOOTH",
"773 40 LINE SMOOTH",
"773 20 OFFCURVE",
"783 0 OFFCURVE",
"813 0 CURVE SMOOTH",
"895 0 LINE SMOOTH",
"925 0 OFFCURVE",
"935 20 OFFCURVE",
"935 40 CURVE SMOOTH",
"935 301 LINE SMOOTH",
"935 375 OFFCURVE",
"928 421 OFFCURVE",
"923 449 CURVE SMOOTH",
"908 537 OFFCURVE",
"856 620 OFFCURVE",
"714 620 CURVE SMOOTH",
"606 620 OFFCURVE",
"559 580 OFFCURVE",
"539 534 CURVE",
"508 584 OFFCURVE",
"453 620 OFFCURVE",
"360 620 CURVE SMOOTH",
"271 620 OFFCURVE",
"224 579 OFFCURVE",
"204 532 CURVE",
"204 570 LINE SMOOTH",
"204 590 OFFCURVE",
"192 600 OFFCURVE",
"162 600 CURVE SMOOTH",
"105 600 LINE SMOOTH",
"75 600 OFFCURVE",
"65 580 OFFCURVE",
"65 560 CURVE SMOOTH",
"65 40 LINE SMOOTH",
"65 20 OFFCURVE",
"75 0 OFFCURVE",
"105 0 CURVE SMOOTH"
);
}
);
width = 995;
}
);
note = M;
unicode = 004D;
},
{
glyphname = N;
lastChange = "2019-02-05 11:08:29 +0000";
layers = (
{
hints = (
{
horizontal = 1;
place = "{0, 21}";
target = up;
type = BottomGhost;
},
{
horizontal = 1;
place = "{801, -20}";
target = down;
type = TopGhost;
},
{
place = "{96, 92}";
type = Stem;
},
{
place = "{576, 92}";
type = Stem;
}
);
layerId = "A3B50665-EA37-4AC6-885C-1233CA61B6BD";
paths = (
{
closed = 1;
nodes = (
"118 801 LINE SMOOTH",
"106 801 OFFCURVE",
"96 790 OFFCURVE",
"96 779 CURVE SMOOTH",
"96 22 LINE SMOOTH",
"96 11 OFFCURVE",
"106 0 OFFCURVE",
"118 0 CURVE SMOOTH",
"166 0 LINE SMOOTH",
"178 0 OFFCURVE",
"188 11 OFFCURVE",
"188 22 CURVE SMOOTH",
"188 649 LINE",
"576 166 LINE",
"576 22 LINE SMOOTH",
"576 11 OFFCURVE",
"586 0 OFFCURVE",
"598 0 CURVE SMOOTH",
"646 0 LINE SMOOTH",
"658 0 OFFCURVE",
"668 11 OFFCURVE",
"668 22 CURVE SMOOTH",
"668 779 LINE SMOOTH",
"668 790 OFFCURVE",
"656 801 OFFCURVE",
"646 801 CURVE SMOOTH",
"598 801 LINE SMOOTH",
"588 801 OFFCURVE",
"576 790 OFFCURVE",
"576 779 CURVE SMOOTH",
"576 303 LINE",
"189 786 LINE SMOOTH",
"181 796 OFFCURVE",
"173 801 OFFCURVE",
"157 801 CURVE SMOOTH"
);
}
);
width = 764;
},
{
hints = (
{
horizontal = 1;
place = "{0, 21}";
target = up;
type = BottomGhost;
},
{
horizontal = 1;
place = "{810, -20}";
target = down;
type = TopGhost;
},
{
place = "{65, 162}";
type = Stem;
},
{
place = "{545, 162}";
type = Stem;
}
);
layerId = "014D4A40-7C7F-4023-B30E-1F55CE5EA091";
paths = (
{
closed = 1;
nodes = (
"105 810 LINE SMOOTH",
"75 810 OFFCURVE",
"65 790 OFFCURVE",
"65 770 CURVE SMOOTH",
"65 40 LINE SMOOTH",
"65 20 OFFCURVE",
"75 0 OFFCURVE",
"105 0 CURVE SMOOTH",
"187 0 LINE SMOOTH",
"217 0 OFFCURVE",
"227 20 OFFCURVE",
"227 40 CURVE SMOOTH",
"227 554 LINE",
"545 144 LINE",
"545 40 LINE SMOOTH",
"545 20 OFFCURVE",
"555 0 OFFCURVE",
"585 0 CURVE SMOOTH",
"667 0 LINE SMOOTH",
"697 0 OFFCURVE",
"707 20 OFFCURVE",
"707 40 CURVE SMOOTH",
"707 770 LINE SMOOTH",
"707 790 OFFCURVE",
"674 810 OFFCURVE",
"664 810 CURVE SMOOTH",
"586 810 LINE SMOOTH",
"576 810 OFFCURVE",
"545 790 OFFCURVE",
"545 770 CURVE SMOOTH",
"545 382 LINE",
"233 786 LINE SMOOTH",
"225 796 OFFCURVE",
"215 810 OFFCURVE",
"185 810 CURVE SMOOTH"
);
}
);
width = 772;
}
);
note = N;
unicode = 004E;
},
{
glyphname = O;
lastChange = "2019-02-05 11:08:29 +0000";
layers = (
{
hints = (
{
horizontal = 1;
place = "{0, 21}";
target = up;
type = BottomGhost;
},
{
horizontal = 1;
place = "{521, 90}";
type = Stem;
},
{
place = "{87, 93}";
type = Stem;
},
{
place = "{484, 93}";
type = Stem;
},
{
horizontal = 1;
place = "{600, -20}";
target = down;
type = TopGhost;
}
);
layerId = "A3B50665-EA37-4AC6-885C-1233CA61B6BD";
paths = (
{
closed = 1;
nodes = (
"255 611 OFFCURVE",
"201 581 OFFCURVE",
"173 538 CURVE",
"173 579 LINE SMOOTH",
"173 590 OFFCURVE",
"163 600 OFFCURVE",
"151 600 CURVE SMOOTH",
"109 600 LINE SMOOTH",
"97 600 OFFCURVE",
"87 589 OFFCURVE",
"87 577 CURVE SMOOTH",
"87 22 LINE SMOOTH",
"87 11 OFFCURVE",
"97 0 OFFCURVE",
"109 0 CURVE SMOOTH",
"157 0 LINE SMOOTH",
"170 0 OFFCURVE",
"180 11 OFFCURVE",
"180 22 CURVE SMOOTH",
"180 331 LINE SMOOTH",
"180 377 OFFCURVE",
"183 412 OFFCURVE",
"190 452 CURVE SMOOTH",
"196 484 OFFCURVE",
"214 521 OFFCURVE",
"332 521 CURVE SMOOTH",
"445 521 OFFCURVE",
"467 484 OFFCURVE",
"473 452 CURVE SMOOTH",
"482 404 OFFCURVE",
"484 361 OFFCURVE",
"484 300 CURVE SMOOTH",
"484 22 LINE SMOOTH",
"484 11 OFFCURVE",
"494 0 OFFCURVE",
"507 0 CURVE SMOOTH",
"555 0 LINE SMOOTH",
"567 0 OFFCURVE",
"577 11 OFFCURVE",
"577 22 CURVE SMOOTH",
"577 299 LINE SMOOTH",
"577 371 OFFCURVE",
"571 417 OFFCURVE",
"563 467 CURVE SMOOTH",
"551 533 OFFCURVE",
"502 611 OFFCURVE",
"343 611 CURVE SMOOTH"
);
}
);
width = 659;
},
{
hints = (
{
horizontal = 1;
place = "{0, 21}";
target = up;
type = BottomGhost;
},
{
horizontal = 1;
place = "{465, 155}";
type = Stem;
},
{
place = "{65, 139}";
type = Stem;
},
{
place = "{439, 162}";
type = Stem;
},
{
horizontal = 1;
place = "{465, 135}";
type = Stem;
},
{
place = "{65, 162}";
type = Stem;
}
);
layerId = "014D4A40-7C7F-4023-B30E-1F55CE5EA091";
paths = (
{
closed = 1;
nodes = (
"271 620 OFFCURVE",
"224 579 OFFCURVE",
"204 532 CURVE",
"204 570 LINE SMOOTH",
"204 590 OFFCURVE",
"192 600 OFFCURVE",
"162 600 CURVE SMOOTH",
"105 600 LINE SMOOTH",
"75 600 OFFCURVE",
"65 580 OFFCURVE",
"65 560 CURVE SMOOTH",
"65 40 LINE SMOOTH",
"65 20 OFFCURVE",
"75 0 OFFCURVE",
"105 0 CURVE SMOOTH",
"187 0 LINE SMOOTH",
"217 0 OFFCURVE",
"227 20 OFFCURVE",
"227 40 CURVE SMOOTH",
"227 305 LINE SMOOTH",
"227 350 OFFCURVE",
"229 380 OFFCURVE",
"235 416 CURVE SMOOTH",
"239 439 OFFCURVE",
"251 465 OFFCURVE",
"336 465 CURVE SMOOTH",
"414 465 OFFCURVE",
"427 439 OFFCURVE",
"431 415 CURVE SMOOTH",
"437 380 OFFCURVE",
"439 351 OFFCURVE",
"439 304 CURVE SMOOTH",
"439 40 LINE SMOOTH",
"439 20 OFFCURVE",
"449 0 OFFCURVE",
"479 0 CURVE SMOOTH",
"561 0 LINE SMOOTH",
"591 0 OFFCURVE",
"601 20 OFFCURVE",
"601 40 CURVE SMOOTH",
"601 301 LINE SMOOTH",
"601 375 OFFCURVE",
"594 421 OFFCURVE",
"589 449 CURVE SMOOTH",
"574 537 OFFCURVE",
"522 620 OFFCURVE",
"368 620 CURVE SMOOTH"
);
}
);
width = 661;
}
);
note = O;
unicode = 004F;
},
{
glyphname = R;
lastChange = "2019-02-05 11:08:29 +0000";
layers = (
{
hints = (
{
horizontal = 1;
place = "{0, 21}";
target = up;
type = BottomGhost;
},
{
horizontal = 1;
place = "{521, 90}";
type = Stem;
},
{
place = "{87, 93}";
type = Stem;
},
{
place = "{416, 90}";
type = Stem;
},
{
horizontal = 1;
place = "{600, -20}";
target = down;
type = TopGhost;
}
);
layerId = "A3B50665-EA37-4AC6-885C-1233CA61B6BD";
paths = (
{
closed = 1;
nodes = (
"247 611 OFFCURVE",
"199 580 OFFCURVE",
"173 535 CURVE",
"173 579 LINE SMOOTH",
"173 590 OFFCURVE",
"163 600 OFFCURVE",
"151 600 CURVE SMOOTH",
"109 600 LINE SMOOTH",
"97 600 OFFCURVE",
"87 589 OFFCURVE",
"87 577 CURVE SMOOTH",
"87 22 LINE SMOOTH",
"87 11 OFFCURVE",
"97 0 OFFCURVE",
"109 0 CURVE SMOOTH",
"157 0 LINE SMOOTH",
"170 0 OFFCURVE",
"180 11 OFFCURVE",
"180 22 CURVE SMOOTH",
"180 357 LINE SMOOTH",
"180 398 OFFCURVE",
"183 430 OFFCURVE",
"190 455 CURVE SMOOTH",
"203 499 OFFCURVE",
"234 521 OFFCURVE",
"304 521 CURVE SMOOTH",
"383 521 OFFCURVE",
"416 495 OFFCURVE",
"416 415 CURVE SMOOTH",
"416 405 OFFCURVE",
"426 393 OFFCURVE",
"438 393 CURVE SMOOTH",
"483 393 LINE SMOOTH",
"496 393 OFFCURVE",
"506 405 OFFCURVE",
"506 416 CURVE SMOOTH",
"506 434 LINE SMOOTH",
"506 549 OFFCURVE",
"448 611 OFFCURVE",
"326 611 CURVE SMOOTH"
);
}
);
width = 515;
},
{
hints = (
{
horizontal = 1;
place = "{0, 21}";
target = up;
type = BottomGhost;
},
{
horizontal = 1;
place = "{469, 131}";
type = Stem;
},
{
place = "{65, 162}";
type = Stem;
},
{
place = "{379, 155}";
type = Stem;
},
{
horizontal = 1;
place = "{469, 151}";
type = Stem;
},
{
place = "{65, 139}";
type = Stem;
}
);
layerId = "014D4A40-7C7F-4023-B30E-1F55CE5EA091";
paths = (
{
closed = 1;
nodes = (
"271 620 OFFCURVE",
"224 579 OFFCURVE",
"204 532 CURVE",
"204 570 LINE SMOOTH",
"204 590 OFFCURVE",
"192 600 OFFCURVE",
"162 600 CURVE SMOOTH",
"105 600 LINE SMOOTH",
"75 600 OFFCURVE",
"65 580 OFFCURVE",
"65 560 CURVE SMOOTH",
"65 40 LINE SMOOTH",
"65 20 OFFCURVE",
"75 0 OFFCURVE",
"105 0 CURVE SMOOTH",
"187 0 LINE SMOOTH",
"217 0 OFFCURVE",
"227 20 OFFCURVE",
"227 40 CURVE SMOOTH",
"227 338 LINE SMOOTH",
"227 373 OFFCURVE",
"229 395 OFFCURVE",
"234 416 CURVE SMOOTH",
"239 439 OFFCURVE",
"252 469 OFFCURVE",
"305 469 CURVE SMOOTH",
"371 469 OFFCURVE",
"379 450 OFFCURVE",
"379 410 CURVE SMOOTH",
"379 397 OFFCURVE",
"388 376 OFFCURVE",
"418 376 CURVE SMOOTH",
"494 376 LINE SMOOTH",
"524 376 OFFCURVE",
"534 396 OFFCURVE",
"534 416 CURVE SMOOTH",
"534 428 LINE SMOOTH",
"534 553 OFFCURVE",
"474 620 OFFCURVE",
"360 620 CURVE SMOOTH"
);
}
);
width = 534;
}
);
note = R;
unicode = 0052;
},
{
glyphname = S;
lastChange = "2019-02-05 11:08:29 +0000";
layers = (
{
hints = (
{
horizontal = 1;
place = "{-10, 89}";
type = Stem;
},
{
horizontal = 1;
place = "{522, 89}";
type = Stem;
},
{
place = "{78, 84}";
type = Stem;
},
{
place = "{464, 96}";
type = Stem;
},
{
place = "{78, 96}";
type = Stem;
}
);
layerId = "A3B50665-EA37-4AC6-885C-1233CA61B6BD";
paths = (
{
closed = 1;
nodes = (
"127 611 OFFCURVE",
"78 525 OFFCURVE",
"78 450 CURVE SMOOTH",
"78 365 OFFCURVE",
"124 327 OFFCURVE",
"225 291 CURVE SMOOTH",
"355 243 LINE SMOOTH",
"441 210 OFFCURVE",
"464 192 OFFCURVE",
"464 158 CURVE SMOOTH",
"464 120 OFFCURVE",
"447 79 OFFCURVE",
"317 79 CURVE SMOOTH",
"166 79 OFFCURVE",
"162 133 OFFCURVE",
"162 186 CURVE SMOOTH",
"162 196 OFFCURVE",
"152 208 OFFCURVE",
"139 208 CURVE SMOOTH",
"94 208 LINE SMOOTH",
"82 208 OFFCURVE",
"72 196 OFFCURVE",
"72 185 CURVE SMOOTH",
"72 129 OFFCURVE",
"78 -10 OFFCURVE",
"317 -10 CURVE SMOOTH",
"507 -10 OFFCURVE",
"560 77 OFFCURVE",
"560 152 CURVE SMOOTH",
"560 239 OFFCURVE",
"509 278 OFFCURVE",
"407 315 CURVE SMOOTH",
"272 366 LINE SMOOTH",
"195 395 OFFCURVE",
"174 411 OFFCURVE",
"174 444 CURVE SMOOTH",
"174 481 OFFCURVE",
"188 522 OFFCURVE",
"315 522 CURVE SMOOTH",
"465 522 OFFCURVE",
"465 468 OFFCURVE",
"465 415 CURVE SMOOTH",
"465 405 OFFCURVE",
"475 393 OFFCURVE",
"487 393 CURVE SMOOTH",
"533 393 LINE SMOOTH",
"545 393 OFFCURVE",
"555 405 OFFCURVE",
"555 416 CURVE SMOOTH",
"555 472 OFFCURVE",
"554 611 OFFCURVE",
"316 611 CURVE SMOOTH"
);
}
);
width = 633;
},
{
hints = (
{
horizontal = 1;
place = "{-10, 148}";
type = Stem;
},
{
horizontal = 1;
place = "{472, 148}";
type = Stem;
},
{
place = "{44, 170}";
type = Stem;
},
{
place = "{417, 155}";
type = Stem;
},
{
place = "{44, 152}";
type = Stem;
},
{
place = "{417, 170}";
type = Stem;
}
);
layerId = "014D4A40-7C7F-4023-B30E-1F55CE5EA091";
paths = (
{
closed = 1;
nodes = (
"89 620 OFFCURVE",
"44 508 OFFCURVE",
"44 438 CURVE SMOOTH",
"44 356 OFFCURVE",
"72 297 OFFCURVE",
"218 260 CURVE SMOOTH",
"325 233 LINE SMOOTH",
"383 218 OFFCURVE",
"417 209 OFFCURVE",
"417 179 CURVE SMOOTH",
"417 146 OFFCURVE",
"368 138 OFFCURVE",
"310 138 CURVE SMOOTH",
"207 138 OFFCURVE",
"196 160 OFFCURVE",
"196 200 CURVE SMOOTH",
"196 213 OFFCURVE",
"187 234 OFFCURVE",
"157 234 CURVE SMOOTH",
"81 234 LINE SMOOTH",
"51 234 OFFCURVE",
"41 214 OFFCURVE",
"41 194 CURVE SMOOTH",
"41 123 OFFCURVE",
"54 -10 OFFCURVE",
"309 -10 CURVE SMOOTH",
"542 -10 OFFCURVE",
"587 102 OFFCURVE",
"587 177 CURVE SMOOTH",
"587 259 OFFCURVE",
"550 305 OFFCURVE",
"403 343 CURVE SMOOTH",
"311 367 LINE SMOOTH",
"248 384 OFFCURVE",
"214 394 OFFCURVE",
"214 427 CURVE SMOOTH",
"214 464 OFFCURVE",
"263 472 OFFCURVE",
"312 472 CURVE SMOOTH",
"406 472 OFFCURVE",
"417 450 OFFCURVE",
"417 410 CURVE SMOOTH",
"417 397 OFFCURVE",
"426 376 OFFCURVE",
"456 376 CURVE SMOOTH",
"532 376 LINE SMOOTH",
"562 376 OFFCURVE",
"572 396 OFFCURVE",
"572 416 CURVE SMOOTH",
"572 487 OFFCURVE",
"559 620 OFFCURVE",
"313 620 CURVE SMOOTH"
);
}
);
width = 616;
}
);
note = S;
unicode = 0053;
},
{
color = 3;
glyphname = a;
lastChange = "2019-02-19 09:04:50 +0000";
layers = (
{
background = {
paths = (
{
closed = 1;
nodes = (
"484 525 OFFCURVE",
"509 470 OFFCURVE",
"509 301 CURVE SMOOTH",
"509 132 OFFCURVE",
"484 76 OFFCURVE",
"342 76 CURVE SMOOTH",
"220 76 OFFCURVE",
"171 132 OFFCURVE",
"171 301 CURVE SMOOTH",
"171 470 OFFCURVE",
"220 525 OFFCURVE",
"342 525 CURVE SMOOTH"
);
},
{
closed = 1;
nodes = (
"600 575 LINE SMOOTH",
"600 591 OFFCURVE",
"591 600 OFFCURVE",
"575 600 CURVE SMOOTH",
"532 600 LINE SMOOTH",
"516 600 OFFCURVE",
"507 591 OFFCURVE",
"507 575 CURVE SMOOTH",
"507 502 LINE",
"519 529 LINE",
"493 575 OFFCURVE",
"431 611 OFFCURVE",
"328 611 CURVE SMOOTH",
"159 611 OFFCURVE",
"77 512 OFFCURVE",
"77 301 CURVE SMOOTH",
"77 90 OFFCURVE",
"159 -10 OFFCURVE",
"328 -10 CURVE SMOOTH",
"440 -10 OFFCURVE",
"506 29 OFFCURVE",
"522 82 CURVE",
"509 144 LINE",
"509 113 LINE SMOOTH",
"509 36 OFFCURVE",
"556 -4 OFFCURVE",
"645 -4 CURVE SMOOTH",
"659 -4 OFFCURVE",
"676 -2 OFFCURVE",
"690 1 CURVE SMOOTH",
"704 4 OFFCURVE",
"710 15 OFFCURVE",
"710 29 CURVE SMOOTH",
"710 55 LINE SMOOTH",
"710 72 OFFCURVE",
"700 79 OFFCURVE",
"682 77 CURVE SMOOTH",
"673 76 OFFCURVE",
"665 75 OFFCURVE",
"656 75 CURVE SMOOTH",
"613 75 OFFCURVE",
"600 91 OFFCURVE",
"600 131 CURVE SMOOTH"
);
}
);
};
hints = (
{
horizontal = 1;
place = "{-10, 90}";
type = Stem;
},
{
horizontal = 1;
place = "{521, 90}";
type = Stem;
},
{
horizontal = 1;
place = "{801, -20}";
target = down;
type = TopGhost;
},
{
place = "{77, 93}";
type = Stem;
},
{
place = "{487, 93}";
type = Stem;
},
{
horizontal = 1;
place = "{0, 21}";
target = up;
type = BottomGhost;
}
);
layerId = "A3B50665-EA37-4AC6-885C-1233CA61B6BD";
paths = (
{
closed = 1;
nodes = (
"484 525 OFFCURVE",
"509 470 OFFCURVE",
"509 301 CURVE SMOOTH",
"509 132 OFFCURVE",
"484 76 OFFCURVE",
"342 76 CURVE SMOOTH",
"220 76 OFFCURVE",
"171 132 OFFCURVE",
"171 301 CURVE SMOOTH",
"171 470 OFFCURVE",
"220 525 OFFCURVE",
"342 525 CURVE SMOOTH"
);
},
{
closed = 1;
nodes = (
"600 575 LINE SMOOTH",
"600 591 OFFCURVE",
"591 600 OFFCURVE",
"575 600 CURVE SMOOTH",
"537 600 LINE SMOOTH",
"521 600 OFFCURVE",
"512 591 OFFCURVE",
"512 575 CURVE SMOOTH",
"512 502 LINE",
"519 529 LINE",
"493 575 OFFCURVE",
"431 611 OFFCURVE",
"328 611 CURVE SMOOTH",
"159 611 OFFCURVE",
"77 512 OFFCURVE",
"77 301 CURVE SMOOTH",
"77 90 OFFCURVE",
"159 -10 OFFCURVE",
"328 -10 CURVE SMOOTH",
"440 -10 OFFCURVE",
"506 29 OFFCURVE",
"522 82 CURVE",
"509 144 LINE",
"509 113 LINE SMOOTH",
"509 36 OFFCURVE",
"556 -4 OFFCURVE",
"645 -4 CURVE SMOOTH",
"659 -4 OFFCURVE",
"676 -2 OFFCURVE",
"690 1 CURVE SMOOTH",
"704 4 OFFCURVE",
"710 15 OFFCURVE",
"710 29 CURVE SMOOTH",
"710 55 LINE SMOOTH",
"710 72 OFFCURVE",
"700 79 OFFCURVE",
"682 77 CURVE SMOOTH",
"673 76 OFFCURVE",
"665 75 OFFCURVE",
"656 75 CURVE SMOOTH",
"613 75 OFFCURVE",
"600 91 OFFCURVE",
"600 131 CURVE SMOOTH"
);
}
);
width = 707;
},
{
background = {
paths = (
{
closed = 1;
nodes = (
"507 600 LINE SMOOTH",
"482 600 OFFCURVE",
"467 585 OFFCURVE",
"467 560 CURVE SMOOTH",
"467 504 LINE",
"486 531 LINE",
"456 585 OFFCURVE",
"399 610 OFFCURVE",
"312 610 CURVE SMOOTH",
"141 610 OFFCURVE",
"55 506 OFFCURVE",
"55 300 CURVE SMOOTH",
"55 95 OFFCURVE",
"142 -10 OFFCURVE",
"312 -10 CURVE SMOOTH",
"406 -10 OFFCURVE",
"464 18 OFFCURVE",
"490 79 CURVE",
"490 30 LINE SMOOTH",
"490 9 OFFCURVE",
"503 0 OFFCURVE",
"532 0 CURVE SMOOTH",
"589 0 LINE SMOOTH",
"614 0 OFFCURVE",
"629 15 OFFCURVE",
"629 40 CURVE SMOOTH",
"629 560 LINE SMOOTH",
"629 585 OFFCURVE",
"614 600 OFFCURVE",
"589 600 CURVE SMOOTH"
);
},
{
closed = 1;
nodes = (
"436 465 OFFCURVE",
"467 425 OFFCURVE",
"467 305 CURVE SMOOTH",
"467 185 OFFCURVE",
"436 145 OFFCURVE",
"343 145 CURVE SMOOTH",
"252 145 OFFCURVE",
"217 189 OFFCURVE",
"217 305 CURVE SMOOTH",
"217 421 OFFCURVE",
"252 465 OFFCURVE",
"343 465 CURVE SMOOTH"
);
}
);
};
hints = (
{
horizontal = 1;
place = "{-10, 155}";
type = Stem;
},
{
horizontal = 1;
place = "{465, 155}";
type = Stem;
},
{
horizontal = 1;
place = "{810, -20}";
target = down;
type = TopGhost;
},
{
place = "{55, 162}";
type = Stem;
},
{
place = "{441, 162}";
type = Stem;
},
{
horizontal = 1;
place = "{0, 21}";
target = up;
type = BottomGhost;
},
{
place = "{464, 139}";
type = Stem;
}
);
layerId = "014D4A40-7C7F-4023-B30E-1F55CE5EA091";
paths = (
{
closed = 1;
nodes = (
"436 469 OFFCURVE",
"467 425 OFFCURVE",
"467 305 CURVE SMOOTH",
"467 185 OFFCURVE",
"436 141 OFFCURVE",
"343 141 CURVE SMOOTH",
"252 141 OFFCURVE",
"217 189 OFFCURVE",
"217 305 CURVE SMOOTH",
"217 421 OFFCURVE",
"252 469 OFFCURVE",
"343 469 CURVE SMOOTH"
);
},
{
closed = 1;
nodes = (
"629 560 LINE SMOOTH",
"629 585 OFFCURVE",
"614 600 OFFCURVE",
"589 600 CURVE SMOOTH",
"517 600 LINE SMOOTH",
"492 600 OFFCURVE",
"477 585 OFFCURVE",
"477 560 CURVE SMOOTH",
"477 504 LINE",
"486 531 LINE",
"456 585 OFFCURVE",
"399 610 OFFCURVE",
"312 610 CURVE SMOOTH",
"141 610 OFFCURVE",
"55 506 OFFCURVE",
"55 300 CURVE SMOOTH",
"55 95 OFFCURVE",
"142 -10 OFFCURVE",
"312 -10 CURVE SMOOTH",
"406 -10 OFFCURVE",
"464 18 OFFCURVE",
"490 79 CURVE",
"467 210 LINE",
"467 155 LINE SMOOTH",
"467 57 OFFCURVE",
"529 -4 OFFCURVE",
"658 -4 CURVE SMOOTH",
"678 -4 OFFCURVE",
"698 -1 OFFCURVE",
"716 4 CURVE SMOOTH",
"736 10 OFFCURVE",
"745 25 OFFCURVE",
"745 48 CURVE SMOOTH",
"745 98 LINE SMOOTH",
"745 126 OFFCURVE",
"735 138 OFFCURVE",
"710 132 CURVE SMOOTH",
"701 130 OFFCURVE",
"691 128 OFFCURVE",
"683 128 CURVE SMOOTH",
"647 128 OFFCURVE",
"629 146 OFFCURVE",
"629 187 CURVE SMOOTH"
);
}
);
width = 724;
}
);
leftMetricsKey = o;
note = d;
unicode = 0061;
},
{
color = 3;
glyphname = b;
lastChange = "2019-02-19 09:15:16 +0000";
layers = (
{
hints = (
{
horizontal = 1;
place = "{0, 21}";
target = up;
type = BottomGhost;
},
{
horizontal = 1;
place = "{521, 90}";
type = Stem;
},
{
horizontal = 1;
place = "{801, -20}";
target = down;
type = TopGhost;
},
{
place = "{87, 93}";
type = Stem;
},
{
place = "{497, 93}";
type = Stem;
},
{
horizontal = 1;
place = "{-10, 90}";
type = Stem;
}
);
layerId = "A3B50665-EA37-4AC6-885C-1233CA61B6BD";
paths = (
{
closed = 1;
nodes = (
"477 525 OFFCURVE",
"526 470 OFFCURVE",
"526 301 CURVE SMOOTH",
"526 132 OFFCURVE",
"477 76 OFFCURVE",
"355 76 CURVE SMOOTH",
"213 76 OFFCURVE",
"188 132 OFFCURVE",
"188 301 CURVE SMOOTH",
"188 470 OFFCURVE",
"213 525 OFFCURVE",
"355 525 CURVE SMOOTH"
);
},
{
closed = 1;
nodes = (
"158 0 LINE SMOOTH",
"174 0 OFFCURVE",
"183 9 OFFCURVE",
"183 25 CURVE SMOOTH",
"183 107 LINE",
"175 82 LINE",
"191 29 OFFCURVE",
"257 -10 OFFCURVE",
"369 -10 CURVE SMOOTH",
"538 -10 OFFCURVE",
"620 90 OFFCURVE",
"620 301 CURVE SMOOTH",
"620 512 OFFCURVE",
"538 611 OFFCURVE",
"369 611 CURVE SMOOTH",
"266 611 OFFCURVE",
"204 575 OFFCURVE",
"178 529 CURVE",
"190 502 LINE",
"190 785 LINE SMOOTH",
"190 801 OFFCURVE",
"181 810 OFFCURVE",
"165 810 CURVE SMOOTH",
"122 810 LINE SMOOTH",
"106 810 OFFCURVE",
"97 801 OFFCURVE",
"97 785 CURVE SMOOTH",
"97 25 LINE SMOOTH",
"97 9 OFFCURVE",
"106 0 OFFCURVE",
"122 0 CURVE SMOOTH"
);
}
);
width = 697;
},
{
background = {
paths = (
{
closed = 1;
nodes = (
"309 620 OFFCURVE",
"264 599 OFFCURVE",
"237 567 CURVE",
"237 770 LINE SMOOTH",
"237 790 OFFCURVE",
"227 810 OFFCURVE",
"197 810 CURVE SMOOTH",
"115 810 LINE SMOOTH",
"85 810 OFFCURVE",
"75 790 OFFCURVE",
"75 770 CURVE SMOOTH",
"75 40 LINE SMOOTH",
"75 20 OFFCURVE",
"85 0 OFFCURVE",
"115 0 CURVE SMOOTH",
"172 0 LINE SMOOTH",
"202 0 OFFCURVE",
"214 10 OFFCURVE",
"214 30 CURVE SMOOTH",
"214 80 LINE",
"237 27 OFFCURVE",
"283 -10 OFFCURVE",
"383 -10 CURVE SMOOTH",
"544 -10 OFFCURVE",
"595 73 OFFCURVE",
"611 161 CURVE SMOOTH",
"616 189 OFFCURVE",
"623 234 OFFCURVE",
"623 305 CURVE SMOOTH",
"623 376 OFFCURVE",
"616 421 OFFCURVE",
"611 449 CURVE SMOOTH",
"595 537 OFFCURVE",
"545 620 OFFCURVE",
"383 620 CURVE SMOOTH"
);
},
{
closed = 1;
nodes = (
"434 465 OFFCURVE",
"449 439 OFFCURVE",
"453 415 CURVE SMOOTH",
"459 380 OFFCURVE",
"461 350 OFFCURVE",
"461 305 CURVE SMOOTH",
"461 260 OFFCURVE",
"459 230 OFFCURVE",
"453 195 CURVE SMOOTH",
"449 171 OFFCURVE",
"434 145 OFFCURVE",
"348 145 CURVE SMOOTH",
"263 145 OFFCURVE",
"249 171 OFFCURVE",
"245 195 CURVE SMOOTH",
"239 230 OFFCURVE",
"237 260 OFFCURVE",
"237 305 CURVE SMOOTH",
"237 349 OFFCURVE",
"239 380 OFFCURVE",
"245 415 CURVE SMOOTH",
"249 439 OFFCURVE",
"263 465 OFFCURVE",
"348 465 CURVE SMOOTH"
);
}
);
};
hints = (
{
horizontal = 1;
place = "{-10, 155}";
type = Stem;
},
{
horizontal = 1;
place = "{465, 155}";
type = Stem;
},
{
horizontal = 1;
place = "{810, -20}";
target = down;
type = TopGhost;
},
{
place = "{65, 162}";
type = Stem;
},
{
place = "{451, 162}";
type = Stem;
},
{
horizontal = 1;
place = "{0, 21}";
target = up;
type = BottomGhost;
},
{
place = "{65, 139}";
type = Stem;
}
);
layerId = "014D4A40-7C7F-4023-B30E-1F55CE5EA091";
paths = (
{
closed = 1;
nodes = (
"452 469 OFFCURVE",
"487 421 OFFCURVE",
"487 305 CURVE SMOOTH",
"487 189 OFFCURVE",
"452 141 OFFCURVE",
"361 141 CURVE SMOOTH",
"268 141 OFFCURVE",
"237 185 OFFCURVE",
"237 305 CURVE SMOOTH",
"237 425 OFFCURVE",
"268 469 OFFCURVE",
"361 469 CURVE SMOOTH"
);
},
{
closed = 1;
nodes = (
"187 0 LINE SMOOTH",
"213 0 OFFCURVE",
"227 14 OFFCURVE",
"227 40 CURVE SMOOTH",
"227 114 LINE",
"214 79 LINE",
"240 18 OFFCURVE",
"298 -10 OFFCURVE",
"392 -10 CURVE SMOOTH",
"562 -10 OFFCURVE",
"649 95 OFFCURVE",
"649 300 CURVE SMOOTH",
"649 506 OFFCURVE",
"563 610 OFFCURVE",
"392 610 CURVE SMOOTH",
"305 610 OFFCURVE",
"248 585 OFFCURVE",
"218 531 CURVE",
"237 504 LINE",
"237 770 LINE SMOOTH",
"237 795 OFFCURVE",
"222 810 OFFCURVE",
"197 810 CURVE SMOOTH",
"115 810 LINE SMOOTH",
"90 810 OFFCURVE",
"75 795 OFFCURVE",
"75 770 CURVE SMOOTH",
"75 40 LINE SMOOTH",
"75 14 OFFCURVE",
"89 0 OFFCURVE",
"115 0 CURVE SMOOTH"
);
}
);
width = 704;
}
);
leftMetricsKey = h;
note = b;
rightMetricsKey = o;
unicode = 0062;
},
{
color = 3;
glyphname = c;
lastChange = "2019-02-19 11:19:35 +0000";
layers = (
{
background = {
paths = (
{
closed = 1;
nodes = (
"159 611 OFFCURVE",
"77 512 OFFCURVE",
"77 301 CURVE SMOOTH",
"77 90 OFFCURVE",
"159 -10 OFFCURVE",
"340 -10 CURVE SMOOTH",
"521 -10 OFFCURVE",
"603 90 OFFCURVE",
"603 301 CURVE SMOOTH",
"603 512 OFFCURVE",
"521 611 OFFCURVE",
"340 611 CURVE SMOOTH"
);
},
{
closed = 1;
nodes = (
"220 76 OFFCURVE",
"171 132 OFFCURVE",
"171 301 CURVE SMOOTH",
"171 470 OFFCURVE",
"220 525 OFFCURVE",
"340 525 CURVE SMOOTH",
"460 525 OFFCURVE",
"509 470 OFFCURVE",
"509 301 CURVE SMOOTH",
"509 132 OFFCURVE",
"460 76 OFFCURVE",
"340 76 CURVE SMOOTH"
);
}
);
};
layerId = "A3B50665-EA37-4AC6-885C-1233CA61B6BD";
paths = (
{
closed = 1;
nodes = (
"395 -10 OFFCURVE",
"441 -5 OFFCURVE",
"486 6 CURVE SMOOTH",
"500 10 OFFCURVE",
"507 20 OFFCURVE",
"507 34 CURVE SMOOTH",
"507 72 LINE SMOOTH",
"507 89 OFFCURVE",
"497 97 OFFCURVE",
"480 93 CURVE SMOOTH",
"442 84 OFFCURVE",
"397 76 OFFCURVE",
"349 76 CURVE SMOOTH",
"220 76 OFFCURVE",
"172 132 OFFCURVE",
"172 301 CURVE SMOOTH",
"172 470 OFFCURVE",
"220 526 OFFCURVE",
"349 526 CURVE SMOOTH",
"397 526 OFFCURVE",
"442 518 OFFCURVE",
"480 509 CURVE SMOOTH",
"497 505 OFFCURVE",
"507 513 OFFCURVE",
"507 530 CURVE SMOOTH",
"507 567 LINE SMOOTH",
"507 581 OFFCURVE",
"500 591 OFFCURVE",
"486 595 CURVE SMOOTH",
"441 608 OFFCURVE",
"395 611 OFFCURVE",
"351 611 CURVE SMOOTH",
"159 611 OFFCURVE",
"77 511 OFFCURVE",
"77 301 CURVE SMOOTH",
"77 90 OFFCURVE",
"159 -10 OFFCURVE",
"351 -10 CURVE SMOOTH"
);
}
);
width = 528;
},
{
background = {
paths = (
{
closed = 1;
nodes = (
"141 610 OFFCURVE",
"55 516 OFFCURVE",
"55 305 CURVE SMOOTH",
"55 85 OFFCURVE",
"142 -10 OFFCURVE",
"342 -10 CURVE SMOOTH",
"540 -10 OFFCURVE",
"627 85 OFFCURVE",
"627 305 CURVE SMOOTH",
"627 516 OFFCURVE",
"541 610 OFFCURVE",
"342 610 CURVE SMOOTH"
);
},
{
closed = 1;
nodes = (
"430 469 OFFCURVE",
"465 421 OFFCURVE",
"465 305 CURVE SMOOTH",
"465 189 OFFCURVE",
"430 141 OFFCURVE",
"342 141 CURVE SMOOTH",
"252 141 OFFCURVE",
"217 189 OFFCURVE",
"217 305 CURVE SMOOTH",
"217 421 OFFCURVE",
"252 469 OFFCURVE",
"342 469 CURVE SMOOTH"
);
}
);
};
layerId = "014D4A40-7C7F-4023-B30E-1F55CE5EA091";
paths = (
{
closed = 1;
nodes = (
"408 -10 OFFCURVE",
"461 -3 OFFCURVE",
"496 5 CURVE SMOOTH",
"520 10 OFFCURVE",
"531 25 OFFCURVE",
"531 49 CURVE SMOOTH",
"531 115 LINE SMOOTH",
"531 142 OFFCURVE",
"515 156 OFFCURVE",
"488 152 CURVE SMOOTH",
"446 146 OFFCURVE",
"405 138 OFFCURVE",
"361 139 CURVE SMOOTH",
"252 141 OFFCURVE",
"220 187 OFFCURVE",
"220 302 CURVE SMOOTH",
"220 413 OFFCURVE",
"252 461 OFFCURVE",
"361 461 CURVE SMOOTH",
"405 461 OFFCURVE",
"446 454 OFFCURVE",
"488 448 CURVE SMOOTH",
"515 444 OFFCURVE",
"531 458 OFFCURVE",
"531 485 CURVE SMOOTH",
"531 551 LINE SMOOTH",
"531 575 OFFCURVE",
"520 590 OFFCURVE",
"496 595 CURVE SMOOTH",
"461 603 OFFCURVE",
"408 610 OFFCURVE",
"362 610 CURVE SMOOTH",
"142 610 OFFCURVE",
"55 515 OFFCURVE",
"55 302 CURVE SMOOTH",
"55 85 OFFCURVE",
"142 -10 OFFCURVE",
"362 -10 CURVE SMOOTH"
);
}
);
width = 553;
}
);
unicode = 0063;
},
{
color = 3;
glyphname = d;
lastChange = "2019-02-19 09:15:21 +0000";
layers = (
{
background = {
paths = (
{
closed = 1;
nodes = (
"530 801 LINE SMOOTH",
"517 801 OFFCURVE",
"507 790 OFFCURVE",
"507 779 CURVE SMOOTH",
"507 502 LINE",
"519 529 LINE",
"493 575 OFFCURVE",
"441 611 OFFCURVE",
"338 611 CURVE SMOOTH",
"172 611 OFFCURVE",
"123 533 OFFCURVE",
"111 466 CURVE SMOOTH",
"102 417 OFFCURVE",
"97 373 OFFCURVE",
"97 301 CURVE SMOOTH",
"97 230 OFFCURVE",
"103 185 OFFCURVE",
"111 134 CURVE SMOOTH",
"121 68 OFFCURVE",
"172 -10 OFFCURVE",
"338 -10 CURVE SMOOTH",
"435 -10 OFFCURVE",
"487 22 OFFCURVE",
"514 63 CURVE",
"514 21 LINE SMOOTH",
"514 10 OFFCURVE",
"524 0 OFFCURVE",
"536 0 CURVE SMOOTH",
"578 0 LINE SMOOTH",
"590 0 OFFCURVE",
"600 11 OFFCURVE",
"600 22 CURVE SMOOTH",
"600 779 LINE SMOOTH",
"600 790 OFFCURVE",
"590 801 OFFCURVE",
"578 801 CURVE SMOOTH"
);
},
{
closed = 1;
nodes = (
"473 521 OFFCURVE",
"491 484 OFFCURVE",
"497 451 CURVE SMOOTH",
"506 404 OFFCURVE",
"508 364 OFFCURVE",
"508 301 CURVE SMOOTH",
"508 238 OFFCURVE",
"505 197 OFFCURVE",
"497 149 CURVE SMOOTH",
"492 117 OFFCURVE",
"473 80 OFFCURVE",
"350 80 CURVE SMOOTH",
"225 80 OFFCURVE",
"207 117 OFFCURVE",
"201 149 CURVE SMOOTH",
"192 197 OFFCURVE",
"190 238 OFFCURVE",
"190 301 CURVE SMOOTH",
"190 365 OFFCURVE",
"192 404 OFFCURVE",
"201 451 CURVE SMOOTH",
"207 484 OFFCURVE",
"225 521 OFFCURVE",
"351 521 CURVE SMOOTH"
);
}
);
};
hints = (
{
horizontal = 1;
place = "{-10, 90}";
type = Stem;
},
{
horizontal = 1;
place = "{521, 90}";
type = Stem;
},
{
horizontal = 1;
place = "{801, -20}";
target = down;
type = TopGhost;
},
{
place = "{77, 93}";
type = Stem;
},
{
place = "{487, 93}";
type = Stem;
},
{
horizontal = 1;
place = "{0, 21}";
target = up;
type = BottomGhost;
}
);
layerId = "A3B50665-EA37-4AC6-885C-1233CA61B6BD";
paths = (
{
closed = 1;
nodes = (
"484 525 OFFCURVE",
"509 470 OFFCURVE",
"509 301 CURVE SMOOTH",
"509 132 OFFCURVE",
"484 76 OFFCURVE",
"342 76 CURVE SMOOTH",
"220 76 OFFCURVE",
"171 132 OFFCURVE",
"171 301 CURVE SMOOTH",
"171 470 OFFCURVE",
"220 525 OFFCURVE",
"342 525 CURVE SMOOTH"
);
},
{
closed = 1;
nodes = (
"600 785 LINE SMOOTH",
"600 801 OFFCURVE",
"591 810 OFFCURVE",
"575 810 CURVE SMOOTH",
"532 810 LINE SMOOTH",
"516 810 OFFCURVE",
"507 801 OFFCURVE",
"507 785 CURVE SMOOTH",
"507 502 LINE",
"519 529 LINE",
"493 575 OFFCURVE",
"431 611 OFFCURVE",
"328 611 CURVE SMOOTH",
"159 611 OFFCURVE",
"77 512 OFFCURVE",
"77 301 CURVE SMOOTH",
"77 90 OFFCURVE",
"159 -10 OFFCURVE",
"328 -10 CURVE SMOOTH",
"440 -10 OFFCURVE",
"506 29 OFFCURVE",
"522 82 CURVE",
"509 144 LINE",
"509 113 LINE SMOOTH",
"509 36 OFFCURVE",
"556 -4 OFFCURVE",
"645 -4 CURVE SMOOTH",
"659 -4 OFFCURVE",
"676 -2 OFFCURVE",
"690 1 CURVE SMOOTH",
"704 4 OFFCURVE",
"710 15 OFFCURVE",
"710 29 CURVE SMOOTH",
"710 55 LINE SMOOTH",
"710 72 OFFCURVE",
"700 79 OFFCURVE",
"682 77 CURVE SMOOTH",
"673 76 OFFCURVE",
"665 75 OFFCURVE",
"656 75 CURVE SMOOTH",
"613 75 OFFCURVE",
"600 91 OFFCURVE",
"600 131 CURVE SMOOTH"
);
}
);
width = 707;
},
{
background = {
paths = (
{
closed = 1;
nodes = (
"507 810 LINE SMOOTH",
"477 810 OFFCURVE",
"467 790 OFFCURVE",
"467 770 CURVE SMOOTH",
"467 504 LINE",
"486 531 LINE",
"460 578 OFFCURVE",
"414 610 OFFCURVE",
"321 610 CURVE SMOOTH",
"159 610 OFFCURVE",
"108 528 OFFCURVE",
"93 442 CURVE SMOOTH",
"88 414 OFFCURVE",
"81 370 OFFCURVE",
"81 300 CURVE SMOOTH",
"81 230 OFFCURVE",
"88 186 OFFCURVE",
"93 158 CURVE SMOOTH",
"108 72 OFFCURVE",
"160 -10 OFFCURVE",
"321 -10 CURVE SMOOTH",
"420 -10 OFFCURVE",
"467 26 OFFCURVE",
"490 79 CURVE",
"490 30 LINE SMOOTH",
"490 10 OFFCURVE",
"502 0 OFFCURVE",
"532 0 CURVE SMOOTH",
"589 0 LINE SMOOTH",
"619 0 OFFCURVE",
"629 20 OFFCURVE",
"629 40 CURVE SMOOTH",
"629 770 LINE SMOOTH",
"629 790 OFFCURVE",
"619 810 OFFCURVE",
"589 810 CURVE SMOOTH"
);
},
{
closed = 1;
nodes = (
"441 465 OFFCURVE",
"455 439 OFFCURVE",
"459 415 CURVE SMOOTH",
"465 380 OFFCURVE",
"467 349 OFFCURVE",
"467 305 CURVE SMOOTH",
"467 260 OFFCURVE",
"465 230 OFFCURVE",
"459 195 CURVE SMOOTH",
"455 171 OFFCURVE",
"441 145 OFFCURVE",
"356 145 CURVE SMOOTH",
"270 145 OFFCURVE",
"255 171 OFFCURVE",
"251 195 CURVE SMOOTH",
"245 230 OFFCURVE",
"243 260 OFFCURVE",
"243 305 CURVE SMOOTH",
"243 350 OFFCURVE",
"245 380 OFFCURVE",
"251 415 CURVE SMOOTH",
"255 439 OFFCURVE",
"270 465 OFFCURVE",
"356 465 CURVE SMOOTH"
);
}
);
};
hints = (
{
horizontal = 1;
place = "{-10, 155}";
type = Stem;
},
{
horizontal = 1;
place = "{465, 155}";
type = Stem;
},
{
horizontal = 1;
place = "{810, -20}";
target = down;
type = TopGhost;
},
{
place = "{55, 162}";
type = Stem;
},
{
place = "{441, 162}";
type = Stem;
},
{
horizontal = 1;
place = "{0, 21}";
target = up;
type = BottomGhost;
},
{
place = "{464, 139}";
type = Stem;
}
);
layerId = "014D4A40-7C7F-4023-B30E-1F55CE5EA091";
paths = (
{
closed = 1;
nodes = (
"436 469 OFFCURVE",
"467 425 OFFCURVE",
"467 305 CURVE SMOOTH",
"467 185 OFFCURVE",
"436 141 OFFCURVE",
"343 141 CURVE SMOOTH",
"252 141 OFFCURVE",
"217 189 OFFCURVE",
"217 305 CURVE SMOOTH",
"217 421 OFFCURVE",
"252 469 OFFCURVE",
"343 469 CURVE SMOOTH"
);
},
{
closed = 1;
nodes = (
"629 770 LINE SMOOTH",
"629 795 OFFCURVE",
"614 810 OFFCURVE",
"589 810 CURVE SMOOTH",
"507 810 LINE SMOOTH",
"482 810 OFFCURVE",
"467 795 OFFCURVE",
"467 770 CURVE SMOOTH",
"467 504 LINE",
"486 531 LINE",
"456 585 OFFCURVE",
"399 610 OFFCURVE",
"312 610 CURVE SMOOTH",
"141 610 OFFCURVE",
"55 506 OFFCURVE",
"55 300 CURVE SMOOTH",
"55 95 OFFCURVE",
"142 -10 OFFCURVE",
"312 -10 CURVE SMOOTH",
"406 -10 OFFCURVE",
"464 18 OFFCURVE",
"490 79 CURVE",
"467 210 LINE",
"467 155 LINE SMOOTH",
"467 57 OFFCURVE",
"529 -4 OFFCURVE",
"658 -4 CURVE SMOOTH",
"678 -4 OFFCURVE",
"698 -1 OFFCURVE",
"716 4 CURVE SMOOTH",
"736 10 OFFCURVE",
"745 25 OFFCURVE",
"745 48 CURVE SMOOTH",
"745 98 LINE SMOOTH",
"745 126 OFFCURVE",
"735 138 OFFCURVE",
"710 132 CURVE SMOOTH",
"701 130 OFFCURVE",
"691 128 OFFCURVE",
"683 128 CURVE SMOOTH",
"647 128 OFFCURVE",
"629 146 OFFCURVE",
"629 187 CURVE SMOOTH"
);
}
);
width = 724;
}
);
leftMetricsKey = o;
note = d;
rightMetricsKey = a;
unicode = 0064;
},
{
color = 3;
glyphname = e;
lastChange = "2019-02-18 22:24:58 +0000";
layers = (
{
background = {
paths = (
{
closed = 1;
nodes = (
"859 611 OFFCURVE",
"777 512 OFFCURVE",
"777 301 CURVE SMOOTH",
"777 90 OFFCURVE",
"859 -10 OFFCURVE",
"1040 -10 CURVE SMOOTH",
"1221 -10 OFFCURVE",
"1303 90 OFFCURVE",
"1303 301 CURVE SMOOTH",
"1303 512 OFFCURVE",
"1221 611 OFFCURVE",
"1040 611 CURVE SMOOTH"
);
},
{
closed = 1;
nodes = (
"920 76 OFFCURVE",
"871 132 OFFCURVE",
"871 301 CURVE SMOOTH",
"871 470 OFFCURVE",
"920 525 OFFCURVE",
"1040 525 CURVE SMOOTH",
"1160 525 OFFCURVE",
"1209 470 OFFCURVE",
"1209 301 CURVE SMOOTH",
"1209 132 OFFCURVE",
"1160 76 OFFCURVE",
"1040 76 CURVE SMOOTH"
);
},
{
closed = 1;
nodes = (
"172 470 OFFCURVE",
"220 526 OFFCURVE",
"349 526 CURVE SMOOTH",
"397 526 OFFCURVE",
"442 518 OFFCURVE",
"480 509 CURVE SMOOTH",
"497 505 OFFCURVE",
"507 513 OFFCURVE",
"507 530 CURVE SMOOTH",
"507 567 LINE SMOOTH",
"507 581 OFFCURVE",
"500 591 OFFCURVE",
"486 595 CURVE SMOOTH",
"441 608 OFFCURVE",
"395 611 OFFCURVE",
"351 611 CURVE SMOOTH",
"159 611 OFFCURVE",
"77 511 OFFCURVE",
"77 301 CURVE SMOOTH",
"77 90 OFFCURVE",
"159 -10 OFFCURVE",
"351 -10 CURVE SMOOTH",
"395 -10 OFFCURVE",
"441 -5 OFFCURVE",
"486 6 CURVE SMOOTH",
"500 10 OFFCURVE",
"507 20 OFFCURVE",
"507 34 CURVE SMOOTH",
"507 72 LINE SMOOTH",
"507 89 OFFCURVE",
"497 97 OFFCURVE",
"480 93 CURVE SMOOTH",
"442 84 OFFCURVE",
"397 76 OFFCURVE",
"349 76 CURVE SMOOTH",
"220 76 OFFCURVE",
"172 132 OFFCURVE",
"172 301 CURVE"
);
}
);
};
hints = (
{
horizontal = 1;
place = "{-10, 90}";
type = Stem;
},
{
horizontal = 1;
place = "{522, 89}";
type = Stem;
},
{
place = "{77, 92}";
type = Stem;
},
{
place = "{469, 96}";
type = Stem;
}
);
layerId = "A3B50665-EA37-4AC6-885C-1233CA61B6BD";
paths = (
{
closed = 1;
nodes = (
"171 301 CURVE SMOOTH",
"171 469 OFFCURVE",
"220 526 OFFCURVE",
"340 526 CURVE SMOOTH",
"430 526 OFFCURVE",
"469 500 OFFCURVE",
"469 442 CURVE SMOOTH",
"469 404 OFFCURVE",
"446 373 OFFCURVE",
"409 355 CURVE SMOOTH",
"156 232 LINE",
"156 144 LINE",
"438 282 LINE SMOOTH",
"530 327 OFFCURVE",
"565 374 OFFCURVE",
"565 447 CURVE SMOOTH",
"565 547 OFFCURVE",
"497 611 OFFCURVE",
"340 611 CURVE SMOOTH",
"166 611 OFFCURVE",
"77 511 OFFCURVE",
"77 300 CURVE SMOOTH",
"77 90 OFFCURVE",
"159 -10 OFFCURVE",
"359 -10 CURVE SMOOTH",
"423 -10 OFFCURVE",
"469 -1 OFFCURVE",
"514 9 CURVE SMOOTH",
"528 12 OFFCURVE",
"535 23 OFFCURVE",
"535 37 CURVE SMOOTH",
"535 74 LINE SMOOTH",
"535 91 OFFCURVE",
"525 99 OFFCURVE",
"508 95 CURVE SMOOTH",
"470 86 OFFCURVE",
"425 75 OFFCURVE",
"357 75 CURVE SMOOTH",
"218 75 OFFCURVE",
"171 132 OFFCURVE"
);
}
);
width = 616;
},
{
background = {
paths = (
{
closed = 1;
nodes = (
"214 305 CURVE SMOOTH",
"214 441 OFFCURVE",
"266 478 OFFCURVE",
"347 478 CURVE SMOOTH",
"397 478 OFFCURVE",
"416 462 OFFCURVE",
"416 430 CURVE SMOOTH",
"416 407 OFFCURVE",
"400 387 OFFCURVE",
"369 372 CURVE SMOOTH",
"179 279 LINE",
"179 155 LINE",
"484 304 LINE SMOOTH",
"559 341 OFFCURVE",
"586 382 OFFCURVE",
"586 447 CURVE SMOOTH",
"586 532 OFFCURVE",
"540 610 OFFCURVE",
"352 610 CURVE SMOOTH",
"161 610 OFFCURVE",
"55 506 OFFCURVE",
"55 307 CURVE SMOOTH",
"55 85 OFFCURVE",
"142 -10 OFFCURVE",
"362 -10 CURVE SMOOTH",
"438 -10 OFFCURVE",
"491 -2 OFFCURVE",
"526 5 CURVE SMOOTH",
"550 10 OFFCURVE",
"561 25 OFFCURVE",
"561 49 CURVE SMOOTH",
"561 112 LINE SMOOTH",
"561 139 OFFCURVE",
"545 153 OFFCURVE",
"518 149 CURVE SMOOTH",
"476 143 OFFCURVE",
"435 136 OFFCURVE",
"361 136 CURVE SMOOTH",
"257 136 OFFCURVE",
"214 187 OFFCURVE"
);
}
);
};
hints = (
{
horizontal = 1;
place = "{-10, 155}";
type = Stem;
},
{
horizontal = 1;
place = "{472, 148}";
type = Stem;
},
{
place = "{55, 160}";
type = Stem;
},
{
place = "{416, 170}";
type = Stem;
}
);
layerId = "014D4A40-7C7F-4023-B30E-1F55CE5EA091";
paths = (
{
closed = 1;
nodes = (
"214 305 CURVE SMOOTH",
"214 441 OFFCURVE",
"266 478 OFFCURVE",
"347 478 CURVE SMOOTH",
"394 478 OFFCURVE",
"416 462 OFFCURVE",
"416 430 CURVE SMOOTH",
"416 407 OFFCURVE",
"400 387 OFFCURVE",
"369 372 CURVE SMOOTH",
"179 279 LINE",
"179 145 LINE",
"484 294 LINE SMOOTH",
"559 331 OFFCURVE",
"586 379 OFFCURVE",
"586 444 CURVE SMOOTH",
"586 532 OFFCURVE",
"540 610 OFFCURVE",
"352 610 CURVE SMOOTH",
"161 610 OFFCURVE",
"55 506 OFFCURVE",
"55 307 CURVE SMOOTH",
"55 85 OFFCURVE",
"142 -10 OFFCURVE",
"362 -10 CURVE SMOOTH",
"435 -10 OFFCURVE",
"488 -2 OFFCURVE",
"523 5 CURVE SMOOTH",
"547 10 OFFCURVE",
"558 25 OFFCURVE",
"558 49 CURVE SMOOTH",
"558 112 LINE SMOOTH",
"558 139 OFFCURVE",
"542 153 OFFCURVE",
"515 149 CURVE SMOOTH",
"473 143 OFFCURVE",
"432 136 OFFCURVE",
"361 136 CURVE SMOOTH",
"257 136 OFFCURVE",
"214 187 OFFCURVE"
);
}
);
width = 611;
}
);
leftMetricsKey = o;
note = e;
unicode = 0065;
},
{
color = 3;
glyphname = f;
lastChange = "2019-02-19 10:54:31 +0000";
layers = (
{
background = {
paths = (
{
closed = 1;
nodes = (
"196 820 OFFCURVE",
"108 733 OFFCURVE",
"108 584 CURVE SMOOTH",
"108 25 LINE SMOOTH",
"108 9 OFFCURVE",
"117 0 OFFCURVE",
"133 0 CURVE SMOOTH",
"176 0 LINE SMOOTH",
"192 0 OFFCURVE",
"201 9 OFFCURVE",
"201 25 CURVE SMOOTH",
"201 576 LINE SMOOTH",
"201 700 OFFCURVE",
"261 738 OFFCURVE",
"344 738 CURVE SMOOTH",
"377 738 OFFCURVE",
"402 733 OFFCURVE",
"426 725 CURVE SMOOTH",
"444 719 OFFCURVE",
"455 727 OFFCURVE",
"455 745 CURVE SMOOTH",
"455 779 LINE SMOOTH",
"455 793 OFFCURVE",
"448 803 OFFCURVE",
"434 807 CURVE SMOOTH",
"403 816 OFFCURVE",
"368 820 OFFCURVE",
"340 820 CURVE SMOOTH"
);
},
{
closed = 1;
nodes = (
"377 519 LINE SMOOTH",
"393 519 OFFCURVE",
"402 528 OFFCURVE",
"402 544 CURVE SMOOTH",
"402 575 LINE SMOOTH",
"402 591 OFFCURVE",
"393 600 OFFCURVE",
"377 600 CURVE SMOOTH",
"33 600 LINE SMOOTH",
"17 600 OFFCURVE",
"8 591 OFFCURVE",
"8 575 CURVE SMOOTH",
"8 544 LINE SMOOTH",
"8 528 OFFCURVE",
"17 519 OFFCURVE",
"33 519 CURVE SMOOTH"
);
}
);
};
layerId = "A3B50665-EA37-4AC6-885C-1233CA61B6BD";
paths = (
{
closed = 1;
nodes = (
"202 820 OFFCURVE",
"108 728 OFFCURVE",
"108 584 CURVE SMOOTH",
"108 25 LINE SMOOTH",
"108 9 OFFCURVE",
"117 0 OFFCURVE",
"133 0 CURVE SMOOTH",
"176 0 LINE SMOOTH",
"192 0 OFFCURVE",
"201 9 OFFCURVE",
"201 25 CURVE SMOOTH",
"201 576 LINE SMOOTH",
"201 700 OFFCURVE",
"264 738 OFFCURVE",
"354 738 CURVE SMOOTH",
"395 738 OFFCURVE",
"420 733 OFFCURVE",
"444 725 CURVE SMOOTH",
"462 719 OFFCURVE",
"473 727 OFFCURVE",
"473 745 CURVE SMOOTH",
"473 779 LINE SMOOTH",
"473 793 OFFCURVE",
"466 803 OFFCURVE",
"452 807 CURVE SMOOTH",
"421 816 OFFCURVE",
"389 820 OFFCURVE",
"356 820 CURVE SMOOTH"
);
},
{
closed = 1;
nodes = (
"377 519 LINE SMOOTH",
"393 519 OFFCURVE",
"402 528 OFFCURVE",
"402 544 CURVE SMOOTH",
"402 575 LINE SMOOTH",
"402 591 OFFCURVE",
"393 600 OFFCURVE",
"377 600 CURVE SMOOTH",
"33 600 LINE SMOOTH",
"17 600 OFFCURVE",
"8 591 OFFCURVE",
"8 575 CURVE SMOOTH",
"8 544 LINE SMOOTH",
"8 528 OFFCURVE",
"17 519 OFFCURVE",
"33 519 CURVE SMOOTH"
);
}
);
width = 338;
},
{
background = {
paths = (
{
closed = 1;
nodes = (
"211 820 OFFCURVE",
"95 734 OFFCURVE",
"95 584 CURVE SMOOTH",
"95 40 LINE SMOOTH",
"95 14 OFFCURVE",
"109 0 OFFCURVE",
"135 0 CURVE SMOOTH",
"211 0 LINE SMOOTH",
"237 0 OFFCURVE",
"251 14 OFFCURVE",
"251 40 CURVE SMOOTH",
"251 582 LINE SMOOTH",
"251 650 OFFCURVE",
"299 689 OFFCURVE",
"383 689 CURVE SMOOTH",
"403 689 OFFCURVE",
"425 687 OFFCURVE",
"446 682 CURVE SMOOTH",
"475 675 OFFCURVE",
"491 685 OFFCURVE",
"491 714 CURVE SMOOTH",
"491 769 LINE SMOOTH",
"491 793 OFFCURVE",
"480 809 OFFCURVE",
"456 813 CURVE SMOOTH",
"426 818 OFFCURVE",
"397 820 OFFCURVE",
"375 820 CURVE SMOOTH"
);
},
{
closed = 1;
nodes = (
"393 468 LINE SMOOTH",
"419 468 OFFCURVE",
"433 482 OFFCURVE",
"433 508 CURVE SMOOTH",
"433 560 LINE SMOOTH",
"433 586 OFFCURVE",
"419 600 OFFCURVE",
"393 600 CURVE SMOOTH",
"34 600 LINE SMOOTH",
"8 600 OFFCURVE",
"-6 586 OFFCURVE",
"-6 560 CURVE SMOOTH",
"-6 508 LINE SMOOTH",
"-6 482 OFFCURVE",
"8 468 OFFCURVE",
"34 468 CURVE SMOOTH"
);
}
);
};
layerId = "014D4A40-7C7F-4023-B30E-1F55CE5EA091";
paths = (
{
closed = 1;
nodes = (
"211 820 OFFCURVE",
"95 734 OFFCURVE",
"95 584 CURVE SMOOTH",
"95 40 LINE SMOOTH",
"95 14 OFFCURVE",
"109 0 OFFCURVE",
"135 0 CURVE SMOOTH",
"211 0 LINE SMOOTH",
"237 0 OFFCURVE",
"251 14 OFFCURVE",
"251 40 CURVE SMOOTH",
"251 582 LINE SMOOTH",
"251 650 OFFCURVE",
"299 689 OFFCURVE",
"390 689 CURVE SMOOTH",
"418 689 OFFCURVE",
"440 687 OFFCURVE",
"461 682 CURVE SMOOTH",
"490 675 OFFCURVE",
"506 685 OFFCURVE",
"506 714 CURVE SMOOTH",
"506 769 LINE SMOOTH",
"506 793 OFFCURVE",
"495 809 OFFCURVE",
"471 813 CURVE SMOOTH",
"441 818 OFFCURVE",
"412 820 OFFCURVE",
"385 820 CURVE SMOOTH"
);
},
{
closed = 1;
nodes = (
"393 468 LINE SMOOTH",
"419 468 OFFCURVE",
"433 482 OFFCURVE",
"433 508 CURVE SMOOTH",
"433 560 LINE SMOOTH",
"433 586 OFFCURVE",
"419 600 OFFCURVE",
"393 600 CURVE SMOOTH",
"34 600 LINE SMOOTH",
"8 600 OFFCURVE",
"-6 586 OFFCURVE",
"-6 560 CURVE SMOOTH",
"-6 508 LINE SMOOTH",
"-6 482 OFFCURVE",
"8 468 OFFCURVE",
"34 468 CURVE SMOOTH"
);
}
);
width = 392;
}
);
unicode = 0066;
},
{
color = 3;
glyphname = g;
lastChange = "2019-02-19 11:24:10 +0000";
layers = (
{
background = {
paths = (
{
closed = 1;
nodes = (
"1430 -209 OFFCURVE",
"1476 -134 OFFCURVE",
"1489 -64 CURVE SMOOTH",
"1498 -14 OFFCURVE",
"1504 30 OFFCURVE",
"1504 101 CURVE SMOOTH",
"1504 577 LINE SMOOTH",
"1504 589 OFFCURVE",
"1494 600 OFFCURVE",
"1481 600 CURVE SMOOTH",
"1436 600 LINE SMOOTH",
"1424 600 OFFCURVE",
"1414 590 OFFCURVE",
"1414 579 CURVE SMOOTH",
"1414 546 LINE",
"1386 583 OFFCURVE",
"1335 611 OFFCURVE",
"1241 611 CURVE SMOOTH",
"1075 611 OFFCURVE",
"1026 533 OFFCURVE",
"1014 466 CURVE SMOOTH",
"1005 417 OFFCURVE",
"1000 373 OFFCURVE",
"1000 318 CURVE SMOOTH",
"1000 265 OFFCURVE",
"1006 220 OFFCURVE",
"1014 169 CURVE SMOOTH",
"1024 103 OFFCURVE",
"1075 25 OFFCURVE",
"1241 25 CURVE SMOOTH",
"1331 25 OFFCURVE",
"1382 51 OFFCURVE",
"1411 86 CURVE",
"1410 30 OFFCURVE",
"1407 -4 OFFCURVE",
"1400 -46 CURVE SMOOTH",
"1394 -82 OFFCURVE",
"1379 -119 OFFCURVE",
"1238 -119 CURVE SMOOTH",
"1145 -119 OFFCURVE",
"1100 -110 OFFCURVE",
"1057 -106 CURVE SMOOTH",
"1047 -105 OFFCURVE",
"1035 -113 OFFCURVE",
"1035 -125 CURVE SMOOTH",
"1035 -171 LINE SMOOTH",
"1035 -185 OFFCURVE",
"1045 -195 OFFCURVE",
"1057 -196 CURVE",
"1097 -202 OFFCURVE",
"1160 -209 OFFCURVE",
"1236 -209 CURVE SMOOTH"
);
},
{
closed = 1;
nodes = (
"1128 115 OFFCURVE",
"1110 152 OFFCURVE",
"1104 184 CURVE SMOOTH",
"1095 232 OFFCURVE",
"1093 273 OFFCURVE",
"1093 318 CURVE SMOOTH",
"1093 365 OFFCURVE",
"1095 404 OFFCURVE",
"1104 451 CURVE SMOOTH",
"1110 484 OFFCURVE",
"1128 521 OFFCURVE",
"1254 521 CURVE SMOOTH",
"1376 521 OFFCURVE",
"1394 484 OFFCURVE",
"1400 451 CURVE SMOOTH",
"1409 404 OFFCURVE",
"1411 364 OFFCURVE",
"1411 318 CURVE SMOOTH",
"1411 273 OFFCURVE",
"1408 232 OFFCURVE",
"1400 184 CURVE SMOOTH",
"1395 152 OFFCURVE",
"1376 115 OFFCURVE",
"1253 115 CURVE SMOOTH"
);
},
{
closed = 1;
nodes = (
"525 -200 OFFCURVE",
"607 -100 OFFCURVE",
"607 111 CURVE SMOOTH",
"607 321 OFFCURVE",
"525 421 OFFCURVE",
"333 421 CURVE SMOOTH",
"289 421 OFFCURVE",
"243 418 OFFCURVE",
"198 405 CURVE SMOOTH",
"184 401 OFFCURVE",
"177 391 OFFCURVE",
"177 377 CURVE SMOOTH",
"177 340 LINE SMOOTH",
"177 323 OFFCURVE",
"187 315 OFFCURVE",
"204 319 CURVE SMOOTH",
"242 328 OFFCURVE",
"287 336 OFFCURVE",
"335 336 CURVE SMOOTH",
"464 336 OFFCURVE",
"512 280 OFFCURVE",
"512 111 CURVE",
"512 -58 OFFCURVE",
"464 -114 OFFCURVE",
"335 -114 CURVE SMOOTH",
"287 -114 OFFCURVE",
"242 -106 OFFCURVE",
"204 -97 CURVE SMOOTH",
"187 -93 OFFCURVE",
"177 -101 OFFCURVE",
"177 -118 CURVE SMOOTH",
"177 -156 LINE SMOOTH",
"177 -170 OFFCURVE",
"184 -180 OFFCURVE",
"198 -184 CURVE SMOOTH",
"243 -197 OFFCURVE",
"289 -200 OFFCURVE",
"333 -200 CURVE SMOOTH"
);
}
);
};
hints = (
{
horizontal = 1;
place = "{-209, 90}";
type = Stem;
},
{
horizontal = 1;
place = "{25, 90}";
type = Stem;
},
{
horizontal = 1;
place = "{521, 90}";
type = Stem;
},
{
place = "{77, 93}";
type = Stem;
},
{
place = "{488, 93}";
type = Stem;
},
{
horizontal = 1;
place = "{600, -20}";
target = down;
type = TopGhost;
}
);
layerId = "A3B50665-EA37-4AC6-885C-1233CA61B6BD";
paths = (
{
closed = 1;
nodes = (
"221 96 OFFCURVE",
"171 149 OFFCURVE",
"171 310 CURVE SMOOTH",
"171 471 OFFCURVE",
"221 525 OFFCURVE",
"344 525 CURVE SMOOTH",
"488 525 OFFCURVE",
"513 471 OFFCURVE",
"513 310 CURVE SMOOTH",
"513 149 OFFCURVE",
"488 96 OFFCURVE",
"344 96 CURVE SMOOTH"
);
},
{
closed = 1;
nodes = (
"604 575 LINE SMOOTH",
"604 591 OFFCURVE",
"595 600 OFFCURVE",
"579 600 CURVE SMOOTH",
"543 600 LINE SMOOTH",
"527 600 OFFCURVE",
"518 591 OFFCURVE",
"518 575 CURVE SMOOTH",
"518 494 LINE",
"526 522 LINE",
"510 573 OFFCURVE",
"443 611 OFFCURVE",
"330 611 CURVE SMOOTH",
"160 611 OFFCURVE",
"77 514 OFFCURVE",
"77 310 CURVE SMOOTH",
"77 106 OFFCURVE",
"160 10 OFFCURVE",
"330 10 CURVE SMOOTH",
"434 10 OFFCURVE",
"497 45 OFFCURVE",
"523 89 CURVE",
"511 114 LINE",
"511 81 LINE SMOOTH",
"511 -60 OFFCURVE",
"461 -112 OFFCURVE",
"305 -112 CURVE SMOOTH",
"237 -112 OFFCURVE",
"187 -98 OFFCURVE",
"144 -85 CURVE SMOOTH",
"127 -80 OFFCURVE",
"117 -89 OFFCURVE",
"117 -106 CURVE SMOOTH",
"117 -152 LINE SMOOTH",
"117 -166 OFFCURVE",
"127 -173 OFFCURVE",
"139 -177 CURVE SMOOTH",
"183 -192 OFFCURVE",
"239 -199 OFFCURVE",
"303 -199 CURVE SMOOTH",
"515 -199 OFFCURVE",
"604 -107 OFFCURVE",
"604 81 CURVE SMOOTH"
);
}
);
width = 701;
},
{
background = {
paths = (
{
closed = 1;
nodes = (
"253 161 OFFCURVE",
"217 205 OFFCURVE",
"217 310 CURVE SMOOTH",
"217 415 OFFCURVE",
"253 459 OFFCURVE",
"345 459 CURVE SMOOTH",
"440 459 OFFCURVE",
"471 419 OFFCURVE",
"471 310 CURVE SMOOTH",
"471 202 OFFCURVE",
"440 161 OFFCURVE",
"345 161 CURVE SMOOTH"
);
},
{
closed = 1;
nodes = (
"633 560 LINE SMOOTH",
"633 586 OFFCURVE",
"619 600 OFFCURVE",
"593 600 CURVE SMOOTH",
"521 600 LINE SMOOTH",
"495 600 OFFCURVE",
"481 586 OFFCURVE",
"481 560 CURVE SMOOTH",
"481 486 LINE",
"494 524 LINE",
"468 583 OFFCURVE",
"409 610 OFFCURVE",
"314 610 CURVE SMOOTH",
"143 610 OFFCURVE",
"55 508 OFFCURVE",
"55 310 CURVE SMOOTH",
"55 111 OFFCURVE",
"142 10 OFFCURVE",
"314 10 CURVE SMOOTH",
"402 10 OFFCURVE",
"460 34 OFFCURVE",
"490 86 CURVE",
"476 133 LINE",
"476 112 LINE SMOOTH",
"476 -3 OFFCURVE",
"436 -49 OFFCURVE",
"327 -51 CURVE SMOOTH",
"283 -52 OFFCURVE",
"242 -44 OFFCURVE",
"200 -38 CURVE SMOOTH",
"173 -34 OFFCURVE",
"157 -48 OFFCURVE",
"157 -75 CURVE SMOOTH",
"157 -141 LINE SMOOTH",
"157 -165 OFFCURVE",
"168 -180 OFFCURVE",
"192 -185 CURVE SMOOTH",
"227 -192 OFFCURVE",
"280 -200 OFFCURVE",
"326 -200 CURVE SMOOTH",
"546 -200 OFFCURVE",
"633 -105 OFFCURVE",
"633 112 CURVE SMOOTH"
);
}
);
};
hints = (
{
horizontal = 1;
place = "{-200, 148}";
type = Stem;
},
{
horizontal = 1;
place = "{57, 151}";
type = Stem;
},
{
horizontal = 1;
place = "{600, -20}";
target = down;
type = TopGhost;
},
{
place = "{55, 166}";
type = Stem;
},
{
place = "{445, 162}";
type = Stem;
},
{
horizontal = 1;
place = "{465, 155}";
type = Stem;
},
{
place = "{468, 139}";
type = Stem;
}
);
layerId = "014D4A40-7C7F-4023-B30E-1F55CE5EA091";
paths = (
{
closed = 1;
nodes = (
"253 171 OFFCURVE",
"217 213 OFFCURVE",
"217 315 CURVE SMOOTH",
"217 417 OFFCURVE",
"253 459 OFFCURVE",
"345 459 CURVE SMOOTH",
"440 459 OFFCURVE",
"471 420 OFFCURVE",
"471 315 CURVE SMOOTH",
"471 210 OFFCURVE",
"440 171 OFFCURVE",
"345 171 CURVE SMOOTH"
);
},
{
closed = 1;
nodes = (
"633 560 LINE SMOOTH",
"633 586 OFFCURVE",
"619 600 OFFCURVE",
"593 600 CURVE SMOOTH",
"521 600 LINE SMOOTH",
"495 600 OFFCURVE",
"481 586 OFFCURVE",
"481 560 CURVE SMOOTH",
"481 486 LINE",
"494 521 LINE",
"468 581 OFFCURVE",
"409 610 OFFCURVE",
"314 610 CURVE SMOOTH",
"143 610 OFFCURVE",
"55 510 OFFCURVE",
"55 315 CURVE SMOOTH",
"55 119 OFFCURVE",
"142 20 OFFCURVE",
"314 20 CURVE SMOOTH",
"402 20 OFFCURVE",
"460 46 OFFCURVE",
"490 99 CURVE",
"476 133 LINE",
"476 92 LINE SMOOTH",
"476 -3 OFFCURVE",
"436 -49 OFFCURVE",
"307 -51 CURVE SMOOTH",
"253 -52 OFFCURVE",
"184 -38 OFFCURVE",
"142 -29 CURVE SMOOTH",
"115 -23 OFFCURVE",
"99 -39 OFFCURVE",
"99 -66 CURVE SMOOTH",
"99 -137 LINE SMOOTH",
"99 -161 OFFCURVE",
"110 -175 OFFCURVE",
"134 -181 CURVE SMOOTH",
"178 -192 OFFCURVE",
"240 -200 OFFCURVE",
"306 -200 CURVE SMOOTH",
"546 -200 OFFCURVE",
"633 -105 OFFCURVE",
"633 92 CURVE SMOOTH"
);
}
);
width = 708;
}
);
leftMetricsKey = o;
note = g;
rightMetricsKey = "=|n";
unicode = 0067;
},
{
color = 3;
glyphname = h;
lastChange = "2019-02-19 09:15:26 +0000";
layers = (
{
background = {
paths = (
{
closed = 1;
nodes = (
"587 331 LINE SMOOTH",
"587 517 OFFCURVE",
"511 611 OFFCURVE",
"348 611 CURVE SMOOTH",
"266 611 OFFCURVE",
"204 575 OFFCURVE",
"178 529 CURVE",
"185 492 LINE",
"185 789 LINE SMOOTH",
"185 800 OFFCURVE",
"175 810 OFFCURVE",
"162 810 CURVE SMOOTH",
"119 810 LINE SMOOTH",
"107 810 OFFCURVE",
"97 799 OFFCURVE",
"97 788 CURVE SMOOTH",
"97 25 LINE SMOOTH",
"97 9 OFFCURVE",
"106 0 OFFCURVE",
"122 0 CURVE SMOOTH",
"165 0 LINE SMOOTH",
"181 0 OFFCURVE",
"190 9 OFFCURVE",
"190 25 CURVE SMOOTH",
"190 331 LINE SMOOTH",
"190 470 OFFCURVE",
"234 525 OFFCURVE",
"342 525 CURVE SMOOTH",
"450 525 OFFCURVE",
"494 470 OFFCURVE",
"494 331 CURVE SMOOTH",
"494 123 LINE SMOOTH",
"494 36 OFFCURVE",
"545 -4 OFFCURVE",
"632 -4 CURVE SMOOTH",
"646 -4 OFFCURVE",
"663 -2 OFFCURVE",
"677 1 CURVE SMOOTH",
"691 4 OFFCURVE",
"697 15 OFFCURVE",
"697 29 CURVE SMOOTH",
"697 55 LINE SMOOTH",
"697 72 OFFCURVE",
"687 79 OFFCURVE",
"669 77 CURVE SMOOTH",
"660 76 OFFCURVE",
"652 75 OFFCURVE",
"643 75 CURVE SMOOTH",
"600 75 OFFCURVE",
"587 91 OFFCURVE",
"587 141 CURVE SMOOTH"
);
}
);
};
hints = (
{
horizontal = 1;
place = "{0, 21}";
target = up;
type = BottomGhost;
},
{
horizontal = 1;
place = "{521, 90}";
type = Stem;
},
{
horizontal = 1;
place = "{801, -20}";
target = down;
type = TopGhost;
},
{
place = "{87, 93}";
type = Stem;
},
{
place = "{484, 93}";
type = Stem;
}
);
layerId = "A3B50665-EA37-4AC6-885C-1233CA61B6BD";
paths = (
{
closed = 1;
nodes = (
"587 331 LINE SMOOTH",
"587 517 OFFCURVE",
"511 611 OFFCURVE",
"348 611 CURVE SMOOTH",
"266 611 OFFCURVE",
"204 574 OFFCURVE",
"178 526 CURVE",
"190 492 LINE",
"190 789 LINE SMOOTH",
"190 800 OFFCURVE",
"180 810 OFFCURVE",
"167 810 CURVE SMOOTH",
"119 810 LINE SMOOTH",
"107 810 OFFCURVE",
"97 799 OFFCURVE",
"97 788 CURVE SMOOTH",
"97 25 LINE SMOOTH",
"97 9 OFFCURVE",
"106 0 OFFCURVE",
"122 0 CURVE SMOOTH",
"165 0 LINE SMOOTH",
"181 0 OFFCURVE",
"190 9 OFFCURVE",
"190 25 CURVE SMOOTH",
"190 331 LINE SMOOTH",
"190 470 OFFCURVE",
"234 525 OFFCURVE",
"342 525 CURVE SMOOTH",
"450 525 OFFCURVE",
"494 470 OFFCURVE",
"494 331 CURVE SMOOTH",
"494 123 LINE SMOOTH",
"494 36 OFFCURVE",
"545 -4 OFFCURVE",
"632 -4 CURVE SMOOTH",
"646 -4 OFFCURVE",
"663 -2 OFFCURVE",
"677 1 CURVE SMOOTH",
"691 4 OFFCURVE",
"697 15 OFFCURVE",
"697 29 CURVE SMOOTH",
"697 55 LINE SMOOTH",
"697 72 OFFCURVE",
"687 79 OFFCURVE",
"669 77 CURVE SMOOTH",
"660 76 OFFCURVE",
"652 75 OFFCURVE",
"643 75 CURVE SMOOTH",
"600 75 OFFCURVE",
"587 91 OFFCURVE",
"587 141 CURVE SMOOTH"
);
}
);
width = 694;
},
{
background = {
paths = (
{
closed = 1;
nodes = (
"611 338 LINE SMOOTH",
"611 527 OFFCURVE",
"542 610 OFFCURVE",
"386 610 CURVE SMOOTH",
"305 610 OFFCURVE",
"248 585 OFFCURVE",
"218 531 CURVE",
"227 479 LINE",
"227 570 LINE SMOOTH",
"227 590 OFFCURVE",
"215 600 OFFCURVE",
"185 600 CURVE SMOOTH",
"115 600 LINE SMOOTH",
"85 600 OFFCURVE",
"75 580 OFFCURVE",
"75 560 CURVE SMOOTH",
"75 40 LINE SMOOTH",
"75 20 OFFCURVE",
"85 0 OFFCURVE",
"115 0 CURVE SMOOTH",
"197 0 LINE SMOOTH",
"227 0 OFFCURVE",
"237 20 OFFCURVE",
"237 40 CURVE SMOOTH",
"237 338 LINE SMOOTH",
"237 426 OFFCURVE",
"272 469 OFFCURVE",
"343 469 CURVE SMOOTH",
"414 469 OFFCURVE",
"449 426 OFFCURVE",
"449 338 CURVE SMOOTH",
"449 155 LINE SMOOTH",
"449 57 OFFCURVE",
"511 -4 OFFCURVE",
"640 -4 CURVE SMOOTH",
"660 -4 OFFCURVE",
"680 -1 OFFCURVE",
"698 4 CURVE SMOOTH",
"718 10 OFFCURVE",
"727 25 OFFCURVE",
"727 48 CURVE SMOOTH",
"727 98 LINE SMOOTH",
"727 126 OFFCURVE",
"717 138 OFFCURVE",
"692 132 CURVE SMOOTH",
"683 130 OFFCURVE",
"673 128 OFFCURVE",
"665 128 CURVE SMOOTH",
"629 128 OFFCURVE",
"611 146 OFFCURVE",
"611 187 CURVE SMOOTH"
);
}
);
};
hints = (
{
horizontal = 1;
place = "{0, 21}";
target = up;
type = BottomGhost;
},
{
horizontal = 1;
place = "{465, 155}";
type = Stem;
},
{
horizontal = 1;
place = "{810, -20}";
target = down;
type = TopGhost;
},
{
place = "{65, 162}";
type = Stem;
},
{
place = "{439, 162}";
type = Stem;
}
);
layerId = "014D4A40-7C7F-4023-B30E-1F55CE5EA091";
paths = (
{
closed = 1;
nodes = (
"611 338 LINE SMOOTH",
"611 527 OFFCURVE",
"542 610 OFFCURVE",
"386 610 CURVE SMOOTH",
"305 610 OFFCURVE",
"248 585 OFFCURVE",
"218 527 CURVE",
"237 479 LINE",
"237 780 LINE SMOOTH",
"237 800 OFFCURVE",
"225 810 OFFCURVE",
"195 810 CURVE SMOOTH",
"115 810 LINE SMOOTH",
"85 810 OFFCURVE",
"75 790 OFFCURVE",
"75 770 CURVE SMOOTH",
"75 40 LINE SMOOTH",
"75 20 OFFCURVE",
"85 0 OFFCURVE",
"115 0 CURVE SMOOTH",
"197 0 LINE SMOOTH",
"227 0 OFFCURVE",
"237 20 OFFCURVE",
"237 40 CURVE SMOOTH",
"237 338 LINE SMOOTH",
"237 426 OFFCURVE",
"272 469 OFFCURVE",
"343 469 CURVE SMOOTH",
"414 469 OFFCURVE",
"449 426 OFFCURVE",
"449 338 CURVE SMOOTH",
"449 155 LINE SMOOTH",
"449 57 OFFCURVE",
"511 -4 OFFCURVE",
"640 -4 CURVE SMOOTH",
"660 -4 OFFCURVE",
"680 -1 OFFCURVE",
"698 4 CURVE SMOOTH",
"718 10 OFFCURVE",
"727 25 OFFCURVE",
"727 48 CURVE SMOOTH",
"727 98 LINE SMOOTH",
"727 126 OFFCURVE",
"717 138 OFFCURVE",
"692 132 CURVE SMOOTH",
"683 130 OFFCURVE",
"673 128 OFFCURVE",
"665 128 CURVE SMOOTH",
"629 128 OFFCURVE",
"611 146 OFFCURVE",
"611 187 CURVE SMOOTH"
);
}
);
width = 706;
}
);
note = h;
rightMetricsKey = n;
unicode = 0068;
},
{
color = 3;
glyphname = i;
lastChange = "2019-02-19 10:56:20 +0000";
layers = (
{
hints = (
{
horizontal = 1;
place = "{0, 21}";
target = up;
type = BottomGhost;
},
{
horizontal = 1;
place = "{602, -20}";
target = down;
type = TopGhost;
},
{
horizontal = 1;
place = "{696, 105}";
type = Stem;
},
{
place = "{87, 93}";
type = Stem;
}
);
layerId = "A3B50665-EA37-4AC6-885C-1233CA61B6BD";
paths = (
{
closed = 1;
nodes = (
"119 602 LINE SMOOTH",
"107 602 OFFCURVE",
"97 591 OFFCURVE",
"97 580 CURVE SMOOTH",
"97 22 LINE SMOOTH",
"97 11 OFFCURVE",
"107 0 OFFCURVE",
"119 0 CURVE SMOOTH",
"167 0 LINE SMOOTH",
"180 0 OFFCURVE",
"190 11 OFFCURVE",
"190 22 CURVE SMOOTH",
"190 581 LINE SMOOTH",
"190 592 OFFCURVE",
"179 602 OFFCURVE",
"167 602 CURVE SMOOTH"
);
},
{
closed = 1;
nodes = (
"188 704 OFFCURVE",
"210 728 OFFCURVE",
"210 763 CURVE SMOOTH",
"210 796 OFFCURVE",
"188 820 OFFCURVE",
"144 820 CURVE SMOOTH",
"100 820 OFFCURVE",
"77 796 OFFCURVE",
"77 763 CURVE SMOOTH",
"77 728 OFFCURVE",
"100 704 OFFCURVE",
"144 704 CURVE SMOOTH"
);
}
);
width = 287;
},
{
hints = (
{
horizontal = 1;
place = "{0, 21}";
target = up;
type = BottomGhost;
},
{
horizontal = 1;
place = "{620, -20}";
target = down;
type = TopGhost;
},
{
horizontal = 1;
place = "{670, 140}";
type = Stem;
},
{
place = "{65, 162}";
type = Stem;
}
);
layerId = "014D4A40-7C7F-4023-B30E-1F55CE5EA091";
paths = (
{
closed = 1;
nodes = (
"115 600 LINE SMOOTH",
"85 600 OFFCURVE",
"75 580 OFFCURVE",
"75 560 CURVE SMOOTH",
"75 40 LINE SMOOTH",
"75 20 OFFCURVE",
"85 0 OFFCURVE",
"115 0 CURVE SMOOTH",
"197 0 LINE SMOOTH",
"227 0 OFFCURVE",
"237 20 OFFCURVE",
"237 40 CURVE SMOOTH",
"237 570 LINE SMOOTH",
"237 590 OFFCURVE",
"225 600 OFFCURVE",
"195 600 CURVE SMOOTH"
);
},
{
closed = 1;
nodes = (
"229 640 OFFCURVE",
"262 681 OFFCURVE",
"262 730 CURVE SMOOTH",
"262 780 OFFCURVE",
"229 820 OFFCURVE",
"156 820 CURVE SMOOTH",
"83 820 OFFCURVE",
"50 780 OFFCURVE",
"50 730 CURVE SMOOTH",
"50 680 OFFCURVE",
"83 640 OFFCURVE",
"156 640 CURVE SMOOTH"
);
}
);
width = 312;
}
);
note = i;
unicode = 0069;
},
{
color = 3;
glyphname = j;
lastChange = "2019-02-19 10:48:33 +0000";
layers = (
{
background = {
paths = (
{
closed = 1;
nodes = (
"102 -190 OFFCURVE",
"190 -103 OFFCURVE",
"190 46 CURVE SMOOTH",
"190 600 LINE",
"97 600 LINE",
"97 54 LINE SMOOTH",
"97 -70 OFFCURVE",
"37 -108 OFFCURVE",
"-46 -108 CURVE SMOOTH",
"-92 -108 OFFCURVE",
"-121 -99 OFFCURVE",
"-157 -84 CURVE",
"-157 -171 LINE",
"-121 -183 OFFCURVE",
"-77 -190 OFFCURVE",
"-42 -190 CURVE SMOOTH"
);
},
{
closed = 1;
nodes = (
"188 704 OFFCURVE",
"210 728 OFFCURVE",
"210 763 CURVE SMOOTH",
"210 796 OFFCURVE",
"188 820 OFFCURVE",
"144 820 CURVE SMOOTH",
"100 820 OFFCURVE",
"77 796 OFFCURVE",
"77 763 CURVE SMOOTH",
"77 728 OFFCURVE",
"100 704 OFFCURVE",
"144 704 CURVE SMOOTH"
);
}
);
};
guideLines = (
{
angle = 270;
position = "{97, 251}";
}
);
layerId = "A3B50665-EA37-4AC6-885C-1233CA61B6BD";
paths = (
{
closed = 1;
nodes = (
"102 -190 OFFCURVE",
"190 -103 OFFCURVE",
"190 46 CURVE SMOOTH",
"190 575 LINE SMOOTH",
"190 591 OFFCURVE",
"181 600 OFFCURVE",
"165 600 CURVE SMOOTH",
"122 600 LINE SMOOTH",
"106 600 OFFCURVE",
"97 591 OFFCURVE",
"97 575 CURVE SMOOTH",
"97 54 LINE SMOOTH",
"97 -70 OFFCURVE",
"37 -108 OFFCURVE",
"-46 -108 CURVE SMOOTH",
"-79 -108 OFFCURVE",
"-104 -103 OFFCURVE",
"-128 -95 CURVE SMOOTH",
"-146 -89 OFFCURVE",
"-157 -97 OFFCURVE",
"-157 -115 CURVE SMOOTH",
"-157 -149 LINE SMOOTH",
"-157 -163 OFFCURVE",
"-150 -173 OFFCURVE",
"-136 -177 CURVE SMOOTH",
"-105 -185 OFFCURVE",
"-70 -190 OFFCURVE",
"-42 -190 CURVE SMOOTH"
);
},
{
closed = 1;
nodes = (
"188 704 OFFCURVE",
"210 728 OFFCURVE",
"210 763 CURVE SMOOTH",
"210 796 OFFCURVE",
"188 820 OFFCURVE",
"144 820 CURVE SMOOTH",
"100 820 OFFCURVE",
"77 796 OFFCURVE",
"77 763 CURVE SMOOTH",
"77 728 OFFCURVE",
"100 704 OFFCURVE",
"144 704 CURVE SMOOTH"
);
}
);
width = 287;
},
{
background = {
paths = (
{
closed = 1;
nodes = (
"125 -200 OFFCURVE",
"241 -114 OFFCURVE",
"241 36 CURVE SMOOTH",
"241 600 LINE",
"85 600 LINE",
"85 38 LINE SMOOTH",
"85 -30 OFFCURVE",
"37 -69 OFFCURVE",
"-47 -69 CURVE SMOOTH",
"-81 -69 OFFCURVE",
"-119 -64 OFFCURVE",
"-155 -47 CURVE",
"-155 -185 LINE",
"-114 -196 OFFCURVE",
"-69 -200 OFFCURVE",
"-39 -200 CURVE SMOOTH"
);
},
{
closed = 1;
nodes = (
"236 640 OFFCURVE",
"269 681 OFFCURVE",
"269 730 CURVE SMOOTH",
"269 780 OFFCURVE",
"236 820 OFFCURVE",
"163 820 CURVE SMOOTH",
"90 820 OFFCURVE",
"57 780 OFFCURVE",
"57 730 CURVE SMOOTH",
"57 680 OFFCURVE",
"90 640 OFFCURVE",
"163 640 CURVE SMOOTH"
);
}
);
};
guideLines = (
{
angle = 270;
position = "{85, 269}";
}
);
layerId = "014D4A40-7C7F-4023-B30E-1F55CE5EA091";
paths = (
{
closed = 1;
nodes = (
"125 -200 OFFCURVE",
"241 -114 OFFCURVE",
"241 36 CURVE SMOOTH",
"241 560 LINE SMOOTH",
"241 586 OFFCURVE",
"227 600 OFFCURVE",
"201 600 CURVE SMOOTH",
"125 600 LINE SMOOTH",
"99 600 OFFCURVE",
"85 586 OFFCURVE",
"85 560 CURVE SMOOTH",
"85 38 LINE SMOOTH",
"85 -30 OFFCURVE",
"37 -69 OFFCURVE",
"-47 -69 CURVE SMOOTH",
"-67 -69 OFFCURVE",
"-89 -67 OFFCURVE",
"-110 -62 CURVE SMOOTH",
"-139 -56 OFFCURVE",
"-155 -65 OFFCURVE",
"-155 -94 CURVE SMOOTH",
"-155 -149 LINE SMOOTH",
"-155 -173 OFFCURVE",
"-144 -189 OFFCURVE",
"-120 -193 CURVE SMOOTH",
"-90 -198 OFFCURVE",
"-61 -200 OFFCURVE",
"-39 -200 CURVE SMOOTH"
);
},
{
closed = 1;
nodes = (
"236 640 OFFCURVE",
"269 681 OFFCURVE",
"269 730 CURVE SMOOTH",
"269 780 OFFCURVE",
"236 820 OFFCURVE",
"163 820 CURVE SMOOTH",
"90 820 OFFCURVE",
"57 780 OFFCURVE",
"57 730 CURVE SMOOTH",
"57 680 OFFCURVE",
"90 640 OFFCURVE",
"163 640 CURVE SMOOTH"
);
}
);
width = 316;
}
);
unicode = 006A;
},
{
color = 3;
glyphname = k;
lastChange = "2019-02-19 10:18:45 +0000";
layers = (
{
background = {
paths = (
{
closed = 1;
nodes = (
"1300 779 LINE SMOOTH",
"1300 790 OFFCURVE",
"1289 801 OFFCURVE",
"1277 801 CURVE SMOOTH",
"1229 801 LINE SMOOTH",
"1217 801 OFFCURVE",
"1207 790 OFFCURVE",
"1207 779 CURVE SMOOTH",
"1207 22 LINE SMOOTH",
"1207 11 OFFCURVE",
"1217 0 OFFCURVE",
"1229 0 CURVE SMOOTH",
"1277 0 LINE SMOOTH",
"1290 0 OFFCURVE",
"1300 11 OFFCURVE",
"1300 22 CURVE SMOOTH"
);
},
{
closed = 1;
nodes = (
"1638 278 OFFCURVE",
"1585 314 OFFCURVE",
"1469 314 CURVE",
"1469 298 LINE",
"1582 298 OFFCURVE",
"1630 367 OFFCURVE",
"1635 488 CURVE SMOOTH",
"1639 579 LINE SMOOTH",
"1639 590 OFFCURVE",
"1629 600 OFFCURVE",
"1616 600 CURVE SMOOTH",
"1568 600 LINE SMOOTH",
"1556 600 OFFCURVE",
"1547 589 OFFCURVE",
"1546 577 CURVE SMOOTH",
"1542 488 LINE SMOOTH",
"1537 374 OFFCURVE",
"1489 343 OFFCURVE",
"1364 343 CURVE SMOOTH",
"1284 343 LINE",
"1284 258 LINE",
"1428 258 LINE SMOOTH",
"1543 258 OFFCURVE",
"1561 221 OFFCURVE",
"1574 166 CURVE SMOOTH",
"1584 123 LINE SMOOTH",
"1604 37 OFFCURVE",
"1645 -4 OFFCURVE",
"1732 -4 CURVE SMOOTH",
"1746 -4 OFFCURVE",
"1763 -2 OFFCURVE",
"1777 1 CURVE SMOOTH",
"1791 4 OFFCURVE",
"1797 15 OFFCURVE",
"1797 29 CURVE SMOOTH",
"1797 55 LINE SMOOTH",
"1797 72 OFFCURVE",
"1787 79 OFFCURVE",
"1769 77 CURVE SMOOTH",
"1760 76 OFFCURVE",
"1752 75 OFFCURVE",
"1743 75 CURVE SMOOTH",
"1700 75 OFFCURVE",
"1691 90 OFFCURVE",
"1677 141 CURVE SMOOTH",
"1660 201 LINE SMOOTH"
);
},
{
closed = 1;
nodes = (
"237 770 LINE SMOOTH",
"237 790 OFFCURVE",
"225 810 OFFCURVE",
"195 810 CURVE SMOOTH",
"115 810 LINE SMOOTH",
"85 810 OFFCURVE",
"75 790 OFFCURVE",
"75 770 CURVE SMOOTH",
"75 40 LINE SMOOTH",
"75 20 OFFCURVE",
"85 0 OFFCURVE",
"115 0 CURVE SMOOTH",
"197 0 LINE SMOOTH",
"227 0 OFFCURVE",
"237 20 OFFCURVE",
"237 40 CURVE SMOOTH"
);
},
{
closed = 1;
nodes = (
"500 283 OFFCURVE",
"444 317 OFFCURVE",
"349 317 CURVE",
"349 290 LINE",
"481 290 OFFCURVE",
"549 365 OFFCURVE",
"555 502 CURVE SMOOTH",
"558 570 LINE SMOOTH",
"559 590 OFFCURVE",
"546 600 OFFCURVE",
"516 600 CURVE SMOOTH",
"436 600 LINE SMOOTH",
"406 600 OFFCURVE",
"397 580 OFFCURVE",
"396 560 CURVE SMOOTH",
"393 502 LINE SMOOTH",
"388 401 OFFCURVE",
"361 375 OFFCURVE",
"260 375 CURVE SMOOTH",
"221 375 LINE",
"221 227 LINE",
"266 227 LINE SMOOTH",
"338 227 OFFCURVE",
"354 212 OFFCURVE",
"368 156 CURVE SMOOTH",
"377 121 LINE SMOOTH",
"396 47 OFFCURVE",
"440 -4 OFFCURVE",
"563 -4 CURVE SMOOTH",
"587 -4 OFFCURVE",
"607 -1 OFFCURVE",
"625 4 CURVE SMOOTH",
"645 10 OFFCURVE",
"654 25 OFFCURVE",
"654 48 CURVE SMOOTH",
"654 98 LINE SMOOTH",
"654 126 OFFCURVE",
"644 138 OFFCURVE",
"619 132 CURVE SMOOTH",
"610 130 OFFCURVE",
"600 128 OFFCURVE",
"588 128 CURVE SMOOTH",
"550 128 OFFCURVE",
"535 144 OFFCURVE",
"524 189 CURVE SMOOTH",
"515 224 LINE SMOOTH"
);
}
);
};
hints = (
{
horizontal = 1;
place = "{0, 21}";
target = up;
type = BottomGhost;
},
{
horizontal = 1;
place = "{258, 85}";
type = Stem;
},
{
horizontal = 1;
place = "{600, -20}";
target = down;
type = TopGhost;
},
{
horizontal = 1;
place = "{801, -20}";
target = down;
type = TopGhost;
},
{
place = "{87, 93}";
type = Stem;
},
{
place = "{425, 93}";
type = Stem;
}
);
layerId = "A3B50665-EA37-4AC6-885C-1233CA61B6BD";
paths = (
{
closed = 1;
nodes = (
"190 788 LINE SMOOTH",
"190 799 OFFCURVE",
"179 810 OFFCURVE",
"167 810 CURVE SMOOTH",
"119 810 LINE SMOOTH",
"107 810 OFFCURVE",
"97 799 OFFCURVE",
"97 788 CURVE SMOOTH",
"97 22 LINE SMOOTH",
"97 11 OFFCURVE",
"107 0 OFFCURVE",
"119 0 CURVE SMOOTH",
"167 0 LINE SMOOTH",
"180 0 OFFCURVE",
"190 11 OFFCURVE",
"190 22 CURVE SMOOTH"
);
},
{
closed = 1;
nodes = (
"471 281 OFFCURVE",
"447 314 OFFCURVE",
"329 314 CURVE",
"329 298 LINE",
"472 298 OFFCURVE",
"523 377 OFFCURVE",
"529 488 CURVE SMOOTH",
"534 579 LINE SMOOTH",
"535 590 OFFCURVE",
"524 600 OFFCURVE",
"511 600 CURVE SMOOTH",
"463 600 LINE SMOOTH",
"451 600 OFFCURVE",
"442 589 OFFCURVE",
"441 577 CURVE SMOOTH",
"436 488 LINE SMOOTH",
"430 384 OFFCURVE",
"379 345 OFFCURVE",
"254 345 CURVE SMOOTH",
"174 345 LINE",
"174 260 LINE",
"254 260 LINE SMOOTH",
"355 260 OFFCURVE",
"388 238 OFFCURVE",
"408 166 CURVE SMOOTH",
"425 106 LINE SMOOTH",
"447 28 OFFCURVE",
"489 -4 OFFCURVE",
"572 -4 CURVE SMOOTH",
"591 -4 OFFCURVE",
"608 0 OFFCURVE",
"622 3 CURVE SMOOTH",
"636 6 OFFCURVE",
"642 17 OFFCURVE",
"642 31 CURVE SMOOTH",
"642 57 LINE SMOOTH",
"642 74 OFFCURVE",
"632 81 OFFCURVE",
"614 79 CURVE SMOOTH",
"605 78 OFFCURVE",
"597 75 OFFCURVE",
"583 75 CURVE SMOOTH",
"539 75 OFFCURVE",
"527 86 OFFCURVE",
"511 141 CURVE SMOOTH",
"494 201 LINE SMOOTH"
);
}
);
width = 629;
},
{
background = {
paths = (
{
closed = 1;
nodes = (
"237 770 LINE SMOOTH",
"237 790 OFFCURVE",
"225 810 OFFCURVE",
"195 810 CURVE SMOOTH",
"115 810 LINE SMOOTH",
"85 810 OFFCURVE",
"75 790 OFFCURVE",
"75 770 CURVE SMOOTH",
"75 40 LINE SMOOTH",
"75 20 OFFCURVE",
"85 0 OFFCURVE",
"115 0 CURVE SMOOTH",
"197 0 LINE SMOOTH",
"227 0 OFFCURVE",
"237 20 OFFCURVE",
"237 40 CURVE SMOOTH"
);
},
{
closed = 1;
nodes = (
"503 283 OFFCURVE",
"447 317 OFFCURVE",
"349 317 CURVE",
"349 290 LINE",
"491 290 OFFCURVE",
"555 365 OFFCURVE",
"555 502 CURVE SMOOTH",
"555 570 LINE SMOOTH",
"555 590 OFFCURVE",
"543 600 OFFCURVE",
"513 600 CURVE SMOOTH",
"433 600 LINE SMOOTH",
"403 600 OFFCURVE",
"393 580 OFFCURVE",
"393 560 CURVE SMOOTH",
"393 532 LINE SMOOTH",
"393 401 OFFCURVE",
"371 375 OFFCURVE",
"260 375 CURVE SMOOTH",
"221 375 LINE",
"221 227 LINE",
"266 227 LINE SMOOTH",
"338 227 OFFCURVE",
"354 212 OFFCURVE",
"368 156 CURVE SMOOTH",
"377 121 LINE SMOOTH",
"396 47 OFFCURVE",
"439 -4 OFFCURVE",
"560 -4 CURVE SMOOTH",
"580 -4 OFFCURVE",
"600 -1 OFFCURVE",
"618 4 CURVE SMOOTH",
"638 10 OFFCURVE",
"647 25 OFFCURVE",
"647 48 CURVE SMOOTH",
"647 98 LINE SMOOTH",
"647 126 OFFCURVE",
"637 138 OFFCURVE",
"612 132 CURVE SMOOTH",
"603 130 OFFCURVE",
"593 128 OFFCURVE",
"585 128 CURVE SMOOTH",
"552 128 OFFCURVE",
"538 144 OFFCURVE",
"527 189 CURVE SMOOTH",
"518 224 LINE SMOOTH"
);
}
);
};
hints = (
{
horizontal = 1;
place = "{0, 21}";
target = up;
type = BottomGhost;
},
{
horizontal = 1;
place = "{227, 148}";
type = Stem;
},
{
horizontal = 1;
place = "{600, -20}";
target = down;
type = TopGhost;
},
{
horizontal = 1;
place = "{810, -20}";
target = down;
type = TopGhost;
},
{
place = "{65, 162}";
type = Stem;
},
{
place = "{383, 162}";
type = Stem;
}
);
layerId = "014D4A40-7C7F-4023-B30E-1F55CE5EA091";
paths = (
{
closed = 1;
nodes = (
"237 770 LINE SMOOTH",
"237 790 OFFCURVE",
"225 810 OFFCURVE",
"195 810 CURVE SMOOTH",
"115 810 LINE SMOOTH",
"85 810 OFFCURVE",
"75 790 OFFCURVE",
"75 770 CURVE SMOOTH",
"75 40 LINE SMOOTH",
"75 20 OFFCURVE",
"85 0 OFFCURVE",
"115 0 CURVE SMOOTH",
"197 0 LINE SMOOTH",
"227 0 OFFCURVE",
"237 20 OFFCURVE",
"237 40 CURVE SMOOTH"
);
},
{
closed = 1;
nodes = (
"500 283 OFFCURVE",
"444 317 OFFCURVE",
"349 317 CURVE",
"349 290 LINE",
"481 290 OFFCURVE",
"549 365 OFFCURVE",
"555 502 CURVE SMOOTH",
"558 570 LINE SMOOTH",
"559 590 OFFCURVE",
"546 600 OFFCURVE",
"516 600 CURVE SMOOTH",
"436 600 LINE SMOOTH",
"406 600 OFFCURVE",
"397 580 OFFCURVE",
"396 560 CURVE SMOOTH",
"393 502 LINE SMOOTH",
"388 401 OFFCURVE",
"361 375 OFFCURVE",
"260 375 CURVE SMOOTH",
"221 375 LINE",
"221 227 LINE",
"266 227 LINE SMOOTH",
"338 227 OFFCURVE",
"354 212 OFFCURVE",
"368 156 CURVE SMOOTH",
"377 121 LINE SMOOTH",
"396 47 OFFCURVE",
"440 -4 OFFCURVE",
"563 -4 CURVE SMOOTH",
"587 -4 OFFCURVE",
"607 -1 OFFCURVE",
"625 4 CURVE SMOOTH",
"645 10 OFFCURVE",
"654 25 OFFCURVE",
"654 48 CURVE SMOOTH",
"654 98 LINE SMOOTH",
"654 126 OFFCURVE",
"644 138 OFFCURVE",
"619 132 CURVE SMOOTH",
"610 130 OFFCURVE",
"600 128 OFFCURVE",
"588 128 CURVE SMOOTH",
"550 128 OFFCURVE",
"535 144 OFFCURVE",
"524 189 CURVE SMOOTH",
"515 224 LINE SMOOTH"
);
}
);
width = 629;
}
);
leftMetricsKey = h;
note = k;
unicode = 006B;
},
{
color = 3;
glyphname = l;
lastChange = "2019-02-19 09:10:01 +0000";
layers = (
{
background = {
paths = (
{
closed = 1;
nodes = (
"256 -4 OFFCURVE",
"282 0 OFFCURVE",
"300 7 CURVE",
"300 83 LINE",
"277 76 OFFCURVE",
"262 75 OFFCURVE",
"246 75 CURVE SMOOTH",
"203 75 OFFCURVE",
"190 91 OFFCURVE",
"190 131 CURVE SMOOTH",
"190 801 LINE",
"97 801 LINE",
"97 113 LINE SMOOTH",
"97 36 OFFCURVE",
"148 -4 OFFCURVE",
"235 -4 CURVE SMOOTH"
);
}
);
};
hints = (
{
horizontal = 1;
place = "{0, 21}";
target = up;
type = BottomGhost;
},
{
horizontal = 1;
place = "{801, -20}";
target = down;
type = TopGhost;
},
{
place = "{87, 93}";
type = Stem;
}
);
layerId = "A3B50665-EA37-4AC6-885C-1233CA61B6BD";
paths = (
{
closed = 1;
nodes = (
"249 -4 OFFCURVE",
"266 -2 OFFCURVE",
"280 1 CURVE SMOOTH",
"294 4 OFFCURVE",
"300 15 OFFCURVE",
"300 29 CURVE SMOOTH",
"300 55 LINE SMOOTH",
"300 72 OFFCURVE",
"290 79 OFFCURVE",
"272 77 CURVE SMOOTH",
"263 75 OFFCURVE",
"255 75 OFFCURVE",
"246 75 CURVE SMOOTH",
"203 75 OFFCURVE",
"190 91 OFFCURVE",
"190 141 CURVE SMOOTH",
"190 785 LINE SMOOTH",
"190 801 OFFCURVE",
"181 810 OFFCURVE",
"165 810 CURVE SMOOTH",
"122 810 LINE SMOOTH",
"106 810 OFFCURVE",
"97 801 OFFCURVE",
"97 785 CURVE SMOOTH",
"97 123 LINE SMOOTH",
"97 36 OFFCURVE",
"148 -4 OFFCURVE",
"235 -4 CURVE SMOOTH"
);
}
);
width = 297;
},
{
background = {
paths = (
{
closed = 1;
nodes = (
"297 -4 OFFCURVE",
"329 1 OFFCURVE",
"353 13 CURVE",
"353 138 LINE",
"334 128 OFFCURVE",
"313 124 OFFCURVE",
"294 124 CURVE SMOOTH",
"255 124 OFFCURVE",
"237 141 OFFCURVE",
"237 182 CURVE SMOOTH",
"237 810 LINE",
"75 810 LINE",
"75 155 LINE SMOOTH",
"75 57 OFFCURVE",
"137 -4 OFFCURVE",
"266 -4 CURVE SMOOTH"
);
}
);
};
hints = (
{
horizontal = 1;
place = "{0, 21}";
target = up;
type = BottomGhost;
},
{
horizontal = 1;
place = "{810, -20}";
target = down;
type = TopGhost;
},
{
place = "{65, 162}";
type = Stem;
}
);
layerId = "014D4A40-7C7F-4023-B30E-1F55CE5EA091";
paths = (
{
closed = 1;
nodes = (
"286 -4 OFFCURVE",
"306 -1 OFFCURVE",
"324 4 CURVE SMOOTH",
"344 9 OFFCURVE",
"353 25 OFFCURVE",
"353 48 CURVE SMOOTH",
"353 98 LINE SMOOTH",
"353 126 OFFCURVE",
"343 138 OFFCURVE",
"318 132 CURVE SMOOTH",
"309 130 OFFCURVE",
"299 128 OFFCURVE",
"291 128 CURVE SMOOTH",
"255 128 OFFCURVE",
"237 146 OFFCURVE",
"237 187 CURVE SMOOTH",
"237 770 LINE SMOOTH",
"237 796 OFFCURVE",
"223 810 OFFCURVE",
"197 810 CURVE SMOOTH",
"115 810 LINE SMOOTH",
"89 810 OFFCURVE",
"75 796 OFFCURVE",
"75 770 CURVE SMOOTH",
"75 155 LINE SMOOTH",
"75 57 OFFCURVE",
"137 -4 OFFCURVE",
"266 -4 CURVE SMOOTH"
);
}
);
width = 332;
}
);
note = l;
unicode = 006C;
},
{
glyphname = m;
lastChange = "2019-02-05 11:08:29 +0000";
layers = (
{
hints = (
{
horizontal = 1;
place = "{0, 21}";
target = up;
type = BottomGhost;
},
{
horizontal = 1;
place = "{521, 90}";
type = Stem;
},
{
place = "{87, 93}";
type = Stem;
},
{
place = "{464, 93}";
type = Stem;
},
{
place = "{842, 93}";
type = Stem;
}
);
layerId = "A3B50665-EA37-4AC6-885C-1233CA61B6BD";
paths = (
{
closed = 1;
nodes = (
"586 611 OFFCURVE",
"529 588 OFFCURVE",
"495 557 CURVE",
"460 588 OFFCURVE",
"400 611 OFFCURVE",
"298 611 CURVE SMOOTH",
"224 611 OFFCURVE",
"166 601 OFFCURVE",
"115 591 CURVE SMOOTH",
"97 588 OFFCURVE",
"87 575 OFFCURVE",
"87 559 CURVE SMOOTH",
"87 22 LINE SMOOTH",
"87 11 OFFCURVE",
"97 0 OFFCURVE",
"109 0 CURVE SMOOTH",
"157 0 LINE SMOOTH",
"170 0 OFFCURVE",
"180 11 OFFCURVE",
"180 22 CURVE SMOOTH",
"180 511 LINE",
"212 516 OFFCURVE",
"252 521 OFFCURVE",
"300 521 CURVE SMOOTH",
"428 521 OFFCURVE",
"447 484 OFFCURVE",
"453 452 CURVE SMOOTH",
"462 404 OFFCURVE",
"464 363 OFFCURVE",
"464 300 CURVE SMOOTH",
"464 22 LINE SMOOTH",
"464 11 OFFCURVE",
"474 0 OFFCURVE",
"487 0 CURVE SMOOTH",
"535 0 LINE SMOOTH",
"547 0 OFFCURVE",
"557 11 OFFCURVE",
"557 22 CURVE SMOOTH",
"557 299 LINE SMOOTH",
"557 374 OFFCURVE",
"551 419 OFFCURVE",
"542 474 CURVE",
"554 499 OFFCURVE",
"586 521 OFFCURVE",
"682 521 CURVE SMOOTH",
"806 521 OFFCURVE",
"825 484 OFFCURVE",
"831 452 CURVE SMOOTH",
"839 404 OFFCURVE",
"842 363 OFFCURVE",
"842 300 CURVE SMOOTH",
"842 22 LINE SMOOTH",
"842 11 OFFCURVE",
"852 0 OFFCURVE",
"865 0 CURVE SMOOTH",
"912 0 LINE SMOOTH",
"925 0 OFFCURVE",
"935 11 OFFCURVE",
"935 22 CURVE SMOOTH",
"935 299 LINE SMOOTH",
"935 371 OFFCURVE",
"929 417 OFFCURVE",
"920 467 CURVE SMOOTH",
"909 536 OFFCURVE",
"861 611 OFFCURVE",
"682 611 CURVE SMOOTH"
);
}
);
width = 1017;
},
{
hints = (
{
horizontal = 1;
place = "{0, 21}";
target = up;
type = BottomGhost;
},
{
horizontal = 1;
place = "{465, 155}";
type = Stem;
}
);
layerId = "014D4A40-7C7F-4023-B30E-1F55CE5EA091";
paths = (
{
closed = 1;
nodes = (
"590 620 OFFCURVE",
"537 601 OFFCURVE",
"500 572 CURVE",
"459 601 OFFCURVE",
"394 620 OFFCURVE",
"292 620 CURVE SMOOTH",
"232 620 OFFCURVE",
"167 612 OFFCURVE",
"105 595 CURVE SMOOTH",
"76 587 OFFCURVE",
"65 570 OFFCURVE",
"65 538 CURVE SMOOTH",
"65 40 LINE SMOOTH",
"65 20 OFFCURVE",
"75 0 OFFCURVE",
"105 0 CURVE SMOOTH",
"187 0 LINE SMOOTH",
"217 0 OFFCURVE",
"227 20 OFFCURVE",
"227 40 CURVE SMOOTH",
"227 462 LINE",
"256 465 OFFCURVE",
"282 465 OFFCURVE",
"297 465 CURVE SMOOTH",
"388 465 OFFCURVE",
"407 439 OFFCURVE",
"411 415 CURVE SMOOTH",
"417 380 OFFCURVE",
"419 351 OFFCURVE",
"419 304 CURVE SMOOTH",
"419 40 LINE SMOOTH",
"419 20 OFFCURVE",
"429 0 OFFCURVE",
"459 0 CURVE SMOOTH",
"541 0 LINE SMOOTH",
"571 0 OFFCURVE",
"581 20 OFFCURVE",
"581 40 CURVE SMOOTH",
"581 301 LINE SMOOTH",
"581 370 OFFCURVE",
"575 414 OFFCURVE",
"570 443 CURVE",
"583 455 OFFCURVE",
"609 465 OFFCURVE",
"660 465 CURVE SMOOTH",
"742 465 OFFCURVE",
"761 439 OFFCURVE",
"765 415 CURVE SMOOTH",
"771 380 OFFCURVE",
"773 351 OFFCURVE",
"773 304 CURVE SMOOTH",
"773 40 LINE SMOOTH",
"773 20 OFFCURVE",
"783 0 OFFCURVE",
"813 0 CURVE SMOOTH",
"895 0 LINE SMOOTH",
"925 0 OFFCURVE",
"935 20 OFFCURVE",
"935 40 CURVE SMOOTH",
"935 301 LINE SMOOTH",
"935 375 OFFCURVE",
"928 421 OFFCURVE",
"923 449 CURVE SMOOTH",
"907 541 OFFCURVE",
"857 620 OFFCURVE",
"661 620 CURVE SMOOTH"
);
}
);
width = 995;
}
);
note = m;
unicode = 006D;
},
{
color = 3;
glyphname = n;
lastChange = "2019-02-19 09:10:30 +0000";
layers = (
{
background = {
paths = (
{
closed = 1;
nodes = (
"165 0 LINE SMOOTH",
"181 0 OFFCURVE",
"190 9 OFFCURVE",
"190 25 CURVE SMOOTH",
"190 331 LINE SMOOTH",
"190 470 OFFCURVE",
"235 525 OFFCURVE",
"348 525 CURVE SMOOTH",
"449 525 OFFCURVE",
"494 470 OFFCURVE",
"494 301 CURVE SMOOTH",
"494 25 LINE SMOOTH",
"494 9 OFFCURVE",
"503 0 OFFCURVE",
"519 0 CURVE SMOOTH",
"562 0 LINE SMOOTH",
"578 0 OFFCURVE",
"587 9 OFFCURVE",
"587 25 CURVE SMOOTH",
"587 301 LINE SMOOTH",
"587 512 OFFCURVE",
"511 611 OFFCURVE",
"348 611 CURVE SMOOTH",
"266 611 OFFCURVE",
"204 575 OFFCURVE",
"178 529 CURVE",
"190 492 LINE",
"190 579 LINE SMOOTH",
"190 590 OFFCURVE",
"180 600 OFFCURVE",
"167 600 CURVE SMOOTH",
"119 600 LINE SMOOTH",
"107 600 OFFCURVE",
"97 589 OFFCURVE",
"97 578 CURVE SMOOTH",
"97 25 LINE SMOOTH",
"97 9 OFFCURVE",
"106 0 OFFCURVE",
"122 0 CURVE SMOOTH"
);
}
);
};
hints = (
{
horizontal = 1;
place = "{0, 21}";
target = up;
type = BottomGhost;
},
{
horizontal = 1;
place = "{521, 90}";
type = Stem;
},
{
place = "{87, 93}";
type = Stem;
},
{
place = "{484, 93}";
type = Stem;
}
);
layerId = "A3B50665-EA37-4AC6-885C-1233CA61B6BD";
paths = (
{
closed = 1;
nodes = (
"587 331 LINE SMOOTH",
"587 517 OFFCURVE",
"511 611 OFFCURVE",
"348 611 CURVE SMOOTH",
"266 611 OFFCURVE",
"204 575 OFFCURVE",
"178 529 CURVE",
"185 492 LINE",
"185 579 LINE SMOOTH",
"185 590 OFFCURVE",
"175 600 OFFCURVE",
"162 600 CURVE SMOOTH",
"119 600 LINE SMOOTH",
"107 600 OFFCURVE",
"97 589 OFFCURVE",
"97 578 CURVE SMOOTH",
"97 25 LINE SMOOTH",
"97 9 OFFCURVE",
"106 0 OFFCURVE",
"122 0 CURVE SMOOTH",
"165 0 LINE SMOOTH",
"181 0 OFFCURVE",
"190 9 OFFCURVE",
"190 25 CURVE SMOOTH",
"190 331 LINE SMOOTH",
"190 470 OFFCURVE",
"234 525 OFFCURVE",
"342 525 CURVE SMOOTH",
"450 525 OFFCURVE",
"494 470 OFFCURVE",
"494 331 CURVE SMOOTH",
"494 123 LINE SMOOTH",
"494 36 OFFCURVE",
"545 -4 OFFCURVE",
"632 -4 CURVE SMOOTH",
"646 -4 OFFCURVE",
"663 -2 OFFCURVE",
"677 1 CURVE SMOOTH",
"691 4 OFFCURVE",
"697 15 OFFCURVE",
"697 29 CURVE SMOOTH",
"697 55 LINE SMOOTH",
"697 72 OFFCURVE",
"687 79 OFFCURVE",
"669 77 CURVE SMOOTH",
"660 76 OFFCURVE",
"652 75 OFFCURVE",
"643 75 CURVE SMOOTH",
"600 75 OFFCURVE",
"587 91 OFFCURVE",
"587 141 CURVE SMOOTH"
);
}
);
width = 694;
},
{
background = {
paths = (
{
closed = 1;
nodes = (
"1197 0 LINE SMOOTH",
"1227 0 OFFCURVE",
"1237 20 OFFCURVE",
"1237 40 CURVE SMOOTH",
"1237 318 LINE SMOOTH",
"1237 351 OFFCURVE",
"1240 377 OFFCURVE",
"1245 406 CURVE SMOOTH",
"1249 429 OFFCURVE",
"1261 455 OFFCURVE",
"1346 455 CURVE SMOOTH",
"1424 455 OFFCURVE",
"1437 429 OFFCURVE",
"1441 405 CURVE SMOOTH",
"1447 370 OFFCURVE",
"1449 341 OFFCURVE",
"1449 294 CURVE SMOOTH",
"1449 40 LINE SMOOTH",
"1449 20 OFFCURVE",
"1459 0 OFFCURVE",
"1489 0 CURVE SMOOTH",
"1571 0 LINE SMOOTH",
"1601 0 OFFCURVE",
"1611 20 OFFCURVE",
"1611 40 CURVE SMOOTH",
"1611 291 LINE SMOOTH",
"1611 365 OFFCURVE",
"1604 411 OFFCURVE",
"1599 439 CURVE SMOOTH",
"1583 527 OFFCURVE",
"1532 610 OFFCURVE",
"1378 610 CURVE SMOOTH",
"1281 610 OFFCURVE",
"1234 569 OFFCURVE",
"1214 522 CURVE",
"1214 570 LINE SMOOTH",
"1214 590 OFFCURVE",
"1202 600 OFFCURVE",
"1172 600 CURVE SMOOTH",
"1115 600 LINE SMOOTH",
"1085 600 OFFCURVE",
"1075 580 OFFCURVE",
"1075 560 CURVE SMOOTH",
"1075 40 LINE SMOOTH",
"1075 20 OFFCURVE",
"1085 0 OFFCURVE",
"1115 0 CURVE SMOOTH"
);
},
{
closed = 1;
nodes = (
"452 469 OFFCURVE",
"487 421 OFFCURVE",
"487 305 CURVE SMOOTH",
"487 189 OFFCURVE",
"452 141 OFFCURVE",
"361 141 CURVE SMOOTH",
"268 141 OFFCURVE",
"237 185 OFFCURVE",
"237 305 CURVE SMOOTH",
"237 425 OFFCURVE",
"268 469 OFFCURVE",
"361 469 CURVE SMOOTH"
);
},
{
closed = 1;
nodes = (
"75 146 OFFCURVE",
"57 128 OFFCURVE",
"21 128 CURVE SMOOTH",
"13 128 OFFCURVE",
"3 130 OFFCURVE",
"-6 132 CURVE SMOOTH",
"-31 138 OFFCURVE",
"-41 126 OFFCURVE",
"-41 98 CURVE SMOOTH",
"-41 48 LINE SMOOTH",
"-41 25 OFFCURVE",
"-32 10 OFFCURVE",
"-12 4 CURVE SMOOTH",
"6 -1 OFFCURVE",
"26 -4 OFFCURVE",
"46 -4 CURVE SMOOTH",
"175 -4 OFFCURVE",
"237 57 OFFCURVE",
"237 155 CURVE SMOOTH",
"237 210 LINE",
"214 79 LINE",
"240 18 OFFCURVE",
"298 -10 OFFCURVE",
"392 -10 CURVE SMOOTH",
"562 -10 OFFCURVE",
"649 95 OFFCURVE",
"649 300 CURVE SMOOTH",
"649 506 OFFCURVE",
"563 610 OFFCURVE",
"392 610 CURVE SMOOTH",
"305 610 OFFCURVE",
"248 585 OFFCURVE",
"218 531 CURVE",
"237 504 LINE",
"237 560 LINE SMOOTH",
"237 585 OFFCURVE",
"222 600 OFFCURVE",
"197 600 CURVE SMOOTH",
"115 600 LINE SMOOTH",
"90 600 OFFCURVE",
"75 585 OFFCURVE",
"75 560 CURVE SMOOTH",
"75 187 LINE SMOOTH"
);
}
);
};
hints = (
{
horizontal = 1;
place = "{0, 21}";
target = up;
type = BottomGhost;
},
{
horizontal = 1;
place = "{465, 155}";
type = Stem;
},
{
place = "{65, 162}";
type = Stem;
},
{
place = "{439, 162}";
type = Stem;
}
);
layerId = "014D4A40-7C7F-4023-B30E-1F55CE5EA091";
paths = (
{
closed = 1;
nodes = (
"611 338 LINE SMOOTH",
"611 527 OFFCURVE",
"542 610 OFFCURVE",
"386 610 CURVE SMOOTH",
"305 610 OFFCURVE",
"248 585 OFFCURVE",
"218 531 CURVE",
"227 479 LINE",
"227 570 LINE SMOOTH",
"227 590 OFFCURVE",
"215 600 OFFCURVE",
"185 600 CURVE SMOOTH",
"115 600 LINE SMOOTH",
"85 600 OFFCURVE",
"75 580 OFFCURVE",
"75 560 CURVE SMOOTH",
"75 40 LINE SMOOTH",
"75 20 OFFCURVE",
"85 0 OFFCURVE",
"115 0 CURVE SMOOTH",
"197 0 LINE SMOOTH",
"227 0 OFFCURVE",
"237 20 OFFCURVE",
"237 40 CURVE SMOOTH",
"237 338 LINE SMOOTH",
"237 426 OFFCURVE",
"272 469 OFFCURVE",
"343 469 CURVE SMOOTH",
"414 469 OFFCURVE",
"449 426 OFFCURVE",
"449 338 CURVE SMOOTH",
"449 155 LINE SMOOTH",
"449 57 OFFCURVE",
"511 -4 OFFCURVE",
"640 -4 CURVE SMOOTH",
"660 -4 OFFCURVE",
"680 -1 OFFCURVE",
"698 4 CURVE SMOOTH",
"718 10 OFFCURVE",
"727 25 OFFCURVE",
"727 48 CURVE SMOOTH",
"727 98 LINE SMOOTH",
"727 126 OFFCURVE",
"717 138 OFFCURVE",
"692 132 CURVE SMOOTH",
"683 130 OFFCURVE",
"673 128 OFFCURVE",
"665 128 CURVE SMOOTH",
"629 128 OFFCURVE",
"611 146 OFFCURVE",
"611 187 CURVE SMOOTH"
);
}
);
width = 706;
}
);
note = n;
unicode = 006E;
},
{
color = 3;
glyphname = o;
lastChange = "2019-02-18 22:55:21 +0000";
layers = (
{
background = {
paths = (
{
closed = 1;
nodes = (
"484 525 OFFCURVE",
"509 470 OFFCURVE",
"509 301 CURVE SMOOTH",
"509 132 OFFCURVE",
"484 76 OFFCURVE",
"342 76 CURVE SMOOTH",
"220 76 OFFCURVE",
"171 132 OFFCURVE",
"171 301 CURVE SMOOTH",
"171 470 OFFCURVE",
"220 525 OFFCURVE",
"342 525 CURVE SMOOTH"
);
},
{
closed = 1;
nodes = (
"600 575 LINE SMOOTH",
"600 591 OFFCURVE",
"591 600 OFFCURVE",
"575 600 CURVE SMOOTH",
"532 600 LINE SMOOTH",
"516 600 OFFCURVE",
"507 591 OFFCURVE",
"507 575 CURVE SMOOTH",
"507 502 LINE",
"519 529 LINE",
"493 575 OFFCURVE",
"431 611 OFFCURVE",
"328 611 CURVE SMOOTH",
"159 611 OFFCURVE",
"77 512 OFFCURVE",
"77 301 CURVE SMOOTH",
"77 90 OFFCURVE",
"159 -10 OFFCURVE",
"328 -10 CURVE SMOOTH",
"440 -10 OFFCURVE",
"506 29 OFFCURVE",
"522 82 CURVE",
"509 144 LINE",
"509 113 LINE SMOOTH",
"509 36 OFFCURVE",
"556 -4 OFFCURVE",
"645 -4 CURVE SMOOTH",
"659 -4 OFFCURVE",
"676 -2 OFFCURVE",
"690 1 CURVE SMOOTH",
"704 4 OFFCURVE",
"710 15 OFFCURVE",
"710 29 CURVE SMOOTH",
"710 55 LINE SMOOTH",
"710 72 OFFCURVE",
"700 79 OFFCURVE",
"682 77 CURVE SMOOTH",
"673 76 OFFCURVE",
"665 75 OFFCURVE",
"656 75 CURVE SMOOTH",
"613 75 OFFCURVE",
"600 91 OFFCURVE",
"600 131 CURVE SMOOTH"
);
}
);
};
hints = (
{
horizontal = 1;
place = "{-10, 90}";
type = Stem;
},
{
horizontal = 1;
place = "{521, 90}";
type = Stem;
},
{
place = "{77, 93}";
type = Stem;
},
{
place = "{488, 93}";
type = Stem;
}
);
layerId = "A3B50665-EA37-4AC6-885C-1233CA61B6BD";
paths = (
{
closed = 1;
nodes = (
"521 -10 OFFCURVE",
"603 90 OFFCURVE",
"603 301 CURVE SMOOTH",
"603 512 OFFCURVE",
"521 611 OFFCURVE",
"340 611 CURVE SMOOTH",
"159 611 OFFCURVE",
"77 512 OFFCURVE",
"77 301 CURVE SMOOTH",
"77 90 OFFCURVE",
"159 -10 OFFCURVE",
"340 -10 CURVE SMOOTH"
);
},
{
closed = 1;
nodes = (
"220 76 OFFCURVE",
"171 132 OFFCURVE",
"171 301 CURVE SMOOTH",
"171 470 OFFCURVE",
"220 525 OFFCURVE",
"340 525 CURVE SMOOTH",
"460 525 OFFCURVE",
"509 470 OFFCURVE",
"509 301 CURVE SMOOTH",
"509 132 OFFCURVE",
"460 76 OFFCURVE",
"340 76 CURVE SMOOTH"
);
}
);
width = 680;
},
{
background = {
paths = (
{
closed = 1;
nodes = (
"157 610 OFFCURVE",
"107 541 OFFCURVE",
"91 449 CURVE SMOOTH",
"86 421 OFFCURVE",
"79 376 OFFCURVE",
"79 305 CURVE SMOOTH",
"79 234 OFFCURVE",
"86 189 OFFCURVE",
"91 161 CURVE SMOOTH",
"107 69 OFFCURVE",
"156 -10 OFFCURVE",
"339 -10 CURVE SMOOTH",
"540 -10 OFFCURVE",
"627 85 OFFCURVE",
"627 305 CURVE SMOOTH",
"627 516 OFFCURVE",
"541 610 OFFCURVE",
"339 610 CURVE SMOOTH"
);
},
{
closed = 1;
nodes = (
"430 469 OFFCURVE",
"465 421 OFFCURVE",
"465 305 CURVE SMOOTH",
"465 189 OFFCURVE",
"430 141 OFFCURVE",
"339 141 CURVE SMOOTH",
"246 141 OFFCURVE",
"215 185 OFFCURVE",
"215 305 CURVE SMOOTH",
"215 425 OFFCURVE",
"246 469 OFFCURVE",
"339 469 CURVE SMOOTH"
);
}
);
};
hints = (
{
horizontal = 1;
place = "{-10, 155}";
type = Stem;
},
{
horizontal = 1;
place = "{465, 155}";
type = Stem;
},
{
place = "{55, 162}";
type = Stem;
},
{
place = "{441, 162}";
type = Stem;
}
);
layerId = "014D4A40-7C7F-4023-B30E-1F55CE5EA091";
paths = (
{
closed = 1;
nodes = (
"540 -10 OFFCURVE",
"627 85 OFFCURVE",
"627 305 CURVE SMOOTH",
"627 516 OFFCURVE",
"541 610 OFFCURVE",
"342 610 CURVE SMOOTH",
"141 610 OFFCURVE",
"55 516 OFFCURVE",
"55 305 CURVE SMOOTH",
"55 85 OFFCURVE",
"142 -10 OFFCURVE",
"342 -10 CURVE SMOOTH"
);
},
{
closed = 1;
nodes = (
"252 141 OFFCURVE",
"217 189 OFFCURVE",
"217 305 CURVE SMOOTH",
"217 421 OFFCURVE",
"252 469 OFFCURVE",
"342 469 CURVE SMOOTH",
"430 469 OFFCURVE",
"465 421 OFFCURVE",
"465 305 CURVE SMOOTH",
"465 189 OFFCURVE",
"430 141 OFFCURVE",
"342 141 CURVE SMOOTH"
);
}
);
width = 682;
}
);
note = o;
rightMetricsKey = "=|";
unicode = 006F;
},
{
color = 3;
glyphname = p;
lastChange = "2019-02-19 09:15:11 +0000";
layers = (
{
hints = (
{
horizontal = 1;
place = "{-200, 21}";
target = up;
type = BottomGhost;
},
{
horizontal = 1;
place = "{-10, 90}";
type = Stem;
},
{
horizontal = 1;
place = "{521, 90}";
type = Stem;
},
{
place = "{87, 93}";
type = Stem;
},
{
place = "{497, 93}";
type = Stem;
},
{
horizontal = 1;
place = "{600, -20}";
target = down;
type = TopGhost;
}
);
layerId = "A3B50665-EA37-4AC6-885C-1233CA61B6BD";
paths = (
{
closed = 1;
nodes = (
"213 76 OFFCURVE",
"188 131 OFFCURVE",
"188 300 CURVE SMOOTH",
"188 469 OFFCURVE",
"213 525 OFFCURVE",
"355 525 CURVE SMOOTH",
"477 525 OFFCURVE",
"526 469 OFFCURVE",
"526 300 CURVE SMOOTH",
"526 131 OFFCURVE",
"477 76 OFFCURVE",
"355 76 CURVE SMOOTH"
);
},
{
closed = 1;
nodes = (
"106 600 OFFCURVE",
"97 591 OFFCURVE",
"97 575 CURVE SMOOTH",
"97 -165 LINE SMOOTH",
"97 -181 OFFCURVE",
"106 -190 OFFCURVE",
"122 -190 CURVE SMOOTH",
"165 -190 LINE SMOOTH",
"181 -190 OFFCURVE",
"190 -181 OFFCURVE",
"190 -165 CURVE SMOOTH",
"190 99 LINE",
"178 72 LINE",
"204 26 OFFCURVE",
"266 -10 OFFCURVE",
"369 -10 CURVE SMOOTH",
"538 -10 OFFCURVE",
"620 89 OFFCURVE",
"620 300 CURVE SMOOTH",
"620 511 OFFCURVE",
"538 611 OFFCURVE",
"369 611 CURVE SMOOTH",
"257 611 OFFCURVE",
"191 572 OFFCURVE",
"175 519 CURVE",
"183 494 LINE",
"183 575 LINE SMOOTH",
"183 591 OFFCURVE",
"174 600 OFFCURVE",
"158 600 CURVE SMOOTH",
"122 600 LINE SMOOTH"
);
}
);
width = 697;
},
{
hints = (
{
horizontal = 1;
place = "{-210, 21}";
target = up;
type = BottomGhost;
},
{
horizontal = 1;
place = "{-10, 155}";
type = Stem;
},
{
horizontal = 1;
place = "{465, 155}";
type = Stem;
},
{
place = "{65, 162}";
type = Stem;
},
{
place = "{451, 162}";
type = Stem;
},
{
horizontal = 1;
place = "{465, 135}";
type = Stem;
},
{
place = "{65, 139}";
type = Stem;
}
);
layerId = "014D4A40-7C7F-4023-B30E-1F55CE5EA091";
paths = (
{
closed = 1;
nodes = (
"268 131 OFFCURVE",
"237 175 OFFCURVE",
"237 295 CURVE SMOOTH",
"237 415 OFFCURVE",
"268 459 OFFCURVE",
"361 459 CURVE SMOOTH",
"452 459 OFFCURVE",
"487 411 OFFCURVE",
"487 295 CURVE SMOOTH",
"487 179 OFFCURVE",
"452 131 OFFCURVE",
"361 131 CURVE SMOOTH"
);
},
{
closed = 1;
nodes = (
"89 600 OFFCURVE",
"75 586 OFFCURVE",
"75 560 CURVE SMOOTH",
"75 -150 LINE SMOOTH",
"75 -175 OFFCURVE",
"90 -190 OFFCURVE",
"115 -190 CURVE SMOOTH",
"197 -190 LINE SMOOTH",
"222 -190 OFFCURVE",
"237 -175 OFFCURVE",
"237 -150 CURVE SMOOTH",
"237 96 LINE",
"218 69 LINE",
"248 15 OFFCURVE",
"305 -10 OFFCURVE",
"392 -10 CURVE SMOOTH",
"563 -10 OFFCURVE",
"649 94 OFFCURVE",
"649 300 CURVE SMOOTH",
"649 505 OFFCURVE",
"562 610 OFFCURVE",
"392 610 CURVE SMOOTH",
"298 610 OFFCURVE",
"240 582 OFFCURVE",
"214 521 CURVE",
"227 486 LINE",
"227 560 LINE SMOOTH",
"227 586 OFFCURVE",
"213 600 OFFCURVE",
"187 600 CURVE SMOOTH",
"115 600 LINE SMOOTH"
);
}
);
width = 704;
}
);
leftMetricsKey = h;
note = p;
rightMetricsKey = o;
unicode = 0070;
},
{
glyphname = q;
lastChange = "2019-02-05 11:08:29 +0000";
layers = (
{
hints = (
{
horizontal = 1;
place = "{-200, 21}";
target = up;
type = BottomGhost;
},
{
horizontal = 1;
place = "{-10, 90}";
type = Stem;
},
{
horizontal = 1;
place = "{600, -20}";
target = down;
type = TopGhost;
},
{
place = "{77, 93}";
type = Stem;
},
{
place = "{487, 93}";
type = Stem;
},
{
horizontal = 1;
place = "{521, 90}";
type = Stem;
}
);
layerId = "A3B50665-EA37-4AC6-885C-1233CA61B6BD";
paths = (
{
closed = 1;
nodes = (
"516 600 LINE SMOOTH",
"504 600 OFFCURVE",
"494 590 OFFCURVE",
"494 579 CURVE SMOOTH",
"494 537 LINE",
"467 579 OFFCURVE",
"415 611 OFFCURVE",
"318 611 CURVE SMOOTH",
"152 611 OFFCURVE",
"103 533 OFFCURVE",
"91 467 CURVE SMOOTH",
"83 417 OFFCURVE",
"77 372 OFFCURVE",
"77 300 CURVE SMOOTH",
"77 228 OFFCURVE",
"83 185 OFFCURVE",
"91 135 CURVE SMOOTH",
"103 68 OFFCURVE",
"152 -10 OFFCURVE",
"318 -10 CURVE SMOOTH",
"407 -10 OFFCURVE",
"458 17 OFFCURVE",
"487 53 CURVE",
"487 -178 LINE SMOOTH",
"487 -189 OFFCURVE",
"497 -200 OFFCURVE",
"510 -200 CURVE SMOOTH",
"558 -200 LINE SMOOTH",
"570 -200 OFFCURVE",
"580 -189 OFFCURVE",
"580 -178 CURVE SMOOTH",
"580 577 LINE SMOOTH",
"580 589 OFFCURVE",
"570 600 OFFCURVE",
"558 600 CURVE SMOOTH"
);
},
{
closed = 1;
nodes = (
"453 521 OFFCURVE",
"471 484 OFFCURVE",
"477 452 CURVE SMOOTH",
"485 404 OFFCURVE",
"488 363 OFFCURVE",
"488 300 CURVE SMOOTH",
"488 237 OFFCURVE",
"484 197 OFFCURVE",
"477 150 CURVE SMOOTH",
"471 117 OFFCURVE",
"453 80 OFFCURVE",
"331 80 CURVE SMOOTH",
"205 80 OFFCURVE",
"187 117 OFFCURVE",
"181 150 CURVE SMOOTH",
"173 197 OFFCURVE",
"170 236 OFFCURVE",
"170 300 CURVE SMOOTH",
"170 363 OFFCURVE",
"173 404 OFFCURVE",
"181 452 CURVE SMOOTH",
"187 484 OFFCURVE",
"205 521 OFFCURVE",
"330 521 CURVE SMOOTH"
);
}
);
width = 667;
},
{
hints = (
{
horizontal = 1;
place = "{-210, 21}";
target = up;
type = BottomGhost;
},
{
horizontal = 1;
place = "{-10, 155}";
type = Stem;
},
{
horizontal = 1;
place = "{465, 155}";
type = Stem;
},
{
place = "{55, 162}";
type = Stem;
},
{
place = "{441, 162}";
type = Stem;
},
{
horizontal = 1;
place = "{600, -20}";
target = down;
type = TopGhost;
},
{
place = "{464, 139}";
type = Stem;
}
);
layerId = "014D4A40-7C7F-4023-B30E-1F55CE5EA091";
paths = (
{
closed = 1;
nodes = (
"506 600 LINE SMOOTH",
"476 600 OFFCURVE",
"464 590 OFFCURVE",
"464 570 CURVE SMOOTH",
"464 530 LINE",
"441 583 OFFCURVE",
"394 620 OFFCURVE",
"295 620 CURVE SMOOTH",
"134 620 OFFCURVE",
"82 537 OFFCURVE",
"67 449 CURVE SMOOTH",
"62 421 OFFCURVE",
"55 376 OFFCURVE",
"55 305 CURVE SMOOTH",
"55 234 OFFCURVE",
"62 189 OFFCURVE",
"67 161 CURVE SMOOTH",
"82 73 OFFCURVE",
"133 -10 OFFCURVE",
"295 -10 CURVE SMOOTH",
"369 -10 OFFCURVE",
"413 10 OFFCURVE",
"441 43 CURVE",
"441 -170 LINE SMOOTH",
"441 -190 OFFCURVE",
"451 -210 OFFCURVE",
"481 -210 CURVE SMOOTH",
"563 -210 LINE SMOOTH",
"593 -210 OFFCURVE",
"603 -190 OFFCURVE",
"603 -170 CURVE SMOOTH",
"603 560 LINE SMOOTH",
"603 580 OFFCURVE",
"593 600 OFFCURVE",
"563 600 CURVE SMOOTH"
);
},
{
closed = 1;
nodes = (
"415 465 OFFCURVE",
"429 439 OFFCURVE",
"433 415 CURVE SMOOTH",
"439 380 OFFCURVE",
"441 350 OFFCURVE",
"441 305 CURVE SMOOTH",
"441 261 OFFCURVE",
"439 230 OFFCURVE",
"433 195 CURVE SMOOTH",
"429 171 OFFCURVE",
"415 145 OFFCURVE",
"330 145 CURVE SMOOTH",
"244 145 OFFCURVE",
"229 171 OFFCURVE",
"225 195 CURVE SMOOTH",
"219 230 OFFCURVE",
"217 260 OFFCURVE",
"217 305 CURVE SMOOTH",
"217 350 OFFCURVE",
"219 380 OFFCURVE",
"225 415 CURVE SMOOTH",
"229 439 OFFCURVE",
"244 465 OFFCURVE",
"330 465 CURVE SMOOTH"
);
}
);
width = 668;
}
);
note = q;
unicode = 0071;
},
{
glyphname = r;
lastChange = "2019-02-05 11:08:29 +0000";
layers = (
{
hints = (
{
horizontal = 1;
place = "{0, 21}";
target = up;
type = BottomGhost;
},
{
horizontal = 1;
place = "{521, 90}";
type = Stem;
},
{
place = "{87, 93}";
type = Stem;
},
{
horizontal = 1;
place = "{600, -20}";
target = down;
type = TopGhost;
}
);
layerId = "A3B50665-EA37-4AC6-885C-1233CA61B6BD";
paths = (
{
closed = 1;
nodes = (
"255 611 OFFCURVE",
"201 581 OFFCURVE",
"173 538 CURVE",
"173 579 LINE SMOOTH",
"173 590 OFFCURVE",
"163 600 OFFCURVE",
"151 600 CURVE SMOOTH",
"109 600 LINE SMOOTH",
"97 600 OFFCURVE",
"87 589 OFFCURVE",
"87 577 CURVE SMOOTH",
"87 22 LINE SMOOTH",
"87 11 OFFCURVE",
"97 0 OFFCURVE",
"109 0 CURVE SMOOTH",
"157 0 LINE SMOOTH",
"170 0 OFFCURVE",
"180 11 OFFCURVE",
"180 22 CURVE SMOOTH",
"180 300 LINE SMOOTH",
"180 363 OFFCURVE",
"182 404 OFFCURVE",
"190 452 CURVE SMOOTH",
"196 484 OFFCURVE",
"214 521 OFFCURVE",
"330 521 CURVE SMOOTH",
"363 521 OFFCURVE",
"389 518 OFFCURVE",
"420 515 CURVE SMOOTH",
"432 514 OFFCURVE",
"442 523 OFFCURVE",
"442 534 CURVE SMOOTH",
"442 581 LINE SMOOTH",
"442 594 OFFCURVE",
"432 604 OFFCURVE",
"420 605 CURVE",
"394 609 OFFCURVE",
"382 611 OFFCURVE",
"342 611 CURVE SMOOTH"
);
}
);
width = 450;
},
{
hints = (
{
horizontal = 1;
place = "{0, 21}";
target = up;
type = BottomGhost;
},
{
horizontal = 1;
place = "{465, 155}";
type = Stem;
},
{
place = "{65, 139}";
type = Stem;
},
{
horizontal = 1;
place = "{465, 135}";
type = Stem;
},
{
place = "{65, 162}";
type = Stem;
}
);
layerId = "014D4A40-7C7F-4023-B30E-1F55CE5EA091";
paths = (
{
closed = 1;
nodes = (
"271 620 OFFCURVE",
"224 579 OFFCURVE",
"204 532 CURVE",
"204 570 LINE SMOOTH",
"204 590 OFFCURVE",
"192 600 OFFCURVE",
"162 600 CURVE SMOOTH",
"105 600 LINE SMOOTH",
"75 600 OFFCURVE",
"65 580 OFFCURVE",
"65 560 CURVE SMOOTH",
"65 40 LINE SMOOTH",
"65 20 OFFCURVE",
"75 0 OFFCURVE",
"105 0 CURVE SMOOTH",
"187 0 LINE SMOOTH",
"217 0 OFFCURVE",
"227 20 OFFCURVE",
"227 40 CURVE SMOOTH",
"227 327 LINE SMOOTH",
"227 361 OFFCURVE",
"230 386 OFFCURVE",
"235 416 CURVE SMOOTH",
"239 439 OFFCURVE",
"251 465 OFFCURVE",
"326 465 CURVE SMOOTH",
"357 465 OFFCURVE",
"386 463 OFFCURVE",
"429 458 CURVE SMOOTH",
"452 455 OFFCURVE",
"466 468 OFFCURVE",
"466 487 CURVE SMOOTH",
"466 572 LINE SMOOTH",
"466 594 OFFCURVE",
"453 610 OFFCURVE",
"429 614 CURVE SMOOTH",
"411 617 OFFCURVE",
"392 620 OFFCURVE",
"360 620 CURVE SMOOTH"
);
}
);
width = 466;
}
);
note = r;
unicode = 0072;
},
{
color = 3;
glyphname = s;
lastChange = "2019-02-19 09:15:11 +0000";
layers = (
{
background = {
paths = (
{
closed = 1;
nodes = (
"1056 611 OFFCURVE",
"966 552 OFFCURVE",
"966 450 CURVE SMOOTH",
"966 370 OFFCURVE",
"998 332 OFFCURVE",
"1099 291 CURVE SMOOTH",
"1241 233 LINE SMOOTH",
"1301 209 OFFCURVE",
"1316 193 OFFCURVE",
"1316 154 CURVE SMOOTH",
"1316 106 OFFCURVE",
"1265 76 OFFCURVE",
"1172 76 CURVE SMOOTH",
"1118 76 OFFCURVE",
"1066 82 OFFCURVE",
"1007 96 CURVE SMOOTH",
"990 100 OFFCURVE",
"980 92 OFFCURVE",
"980 75 CURVE SMOOTH",
"980 37 LINE SMOOTH",
"980 23 OFFCURVE",
"987 13 OFFCURVE",
"1001 9 CURVE SMOOTH",
"1047 -4 OFFCURVE",
"1108 -10 OFFCURVE",
"1171 -10 CURVE SMOOTH",
"1322 -10 OFFCURVE",
"1414 51 OFFCURVE",
"1414 152 CURVE SMOOTH",
"1414 235 OFFCURVE",
"1378 276 OFFCURVE",
"1273 319 CURVE SMOOTH",
"1131 377 LINE SMOOTH",
"1080 398 OFFCURVE",
"1065 414 OFFCURVE",
"1065 446 CURVE SMOOTH",
"1065 498 OFFCURVE",
"1110 526 OFFCURVE",
"1209 526 CURVE SMOOTH",
"1267 526 OFFCURVE",
"1312 518 OFFCURVE",
"1350 509 CURVE SMOOTH",
"1367 505 OFFCURVE",
"1377 513 OFFCURVE",
"1377 530 CURVE SMOOTH",
"1377 567 LINE SMOOTH",
"1377 581 OFFCURVE",
"1370 591 OFFCURVE",
"1356 595 CURVE SMOOTH",
"1311 608 OFFCURVE",
"1265 611 OFFCURVE",
"1210 611 CURVE SMOOTH"
);
},
{
closed = 1;
nodes = (
"148 610 OFFCURVE",
"49 538 OFFCURVE",
"49 421 CURVE SMOOTH",
"49 195 OFFCURVE",
"371 256 OFFCURVE",
"371 178 CURVE SMOOTH",
"371 151 OFFCURVE",
"340 139 OFFCURVE",
"267 139 CURVE SMOOTH",
"218 139 OFFCURVE",
"177 145 OFFCURVE",
"92 158 CURVE SMOOTH",
"65 162 OFFCURVE",
"49 148 OFFCURVE",
"49 121 CURVE SMOOTH",
"49 55 LINE SMOOTH",
"49 31 OFFCURVE",
"61 17 OFFCURVE",
"85 10 CURVE SMOOTH",
"131 -3 OFFCURVE",
"203 -10 OFFCURVE",
"259 -10 CURVE SMOOTH",
"444 -10 OFFCURVE",
"542 57 OFFCURVE",
"542 176 CURVE SMOOTH",
"542 395 OFFCURVE",
"222 345 OFFCURVE",
"222 419 CURVE SMOOTH",
"222 447 OFFCURVE",
"248 461 OFFCURVE",
"313 461 CURVE SMOOTH",
"365 461 OFFCURVE",
"401 456 OFFCURVE",
"459 446 CURVE SMOOTH",
"486 441 OFFCURVE",
"502 456 OFFCURVE",
"502 483 CURVE SMOOTH",
"502 549 LINE SMOOTH",
"502 574 OFFCURVE",
"490 587 OFFCURVE",
"466 593 CURVE SMOOTH",
"418 604 OFFCURVE",
"372 610 OFFCURVE",
"325 610 CURVE SMOOTH"
);
}
);
};
hints = (
{
horizontal = 1;
place = "{-10, 90}";
type = Stem;
},
{
horizontal = 1;
place = "{521, 90}";
type = Stem;
},
{
place = "{66, 100}";
type = Stem;
},
{
place = "{432, 99}";
type = Stem;
}
);
layerId = "A3B50665-EA37-4AC6-885C-1233CA61B6BD";
paths = (
{
closed = 1;
nodes = (
"175 611 OFFCURVE",
"83 547 OFFCURVE",
"83 440 CURVE SMOOTH",
"83 238 OFFCURVE",
"416 289 OFFCURVE",
"416 159 CURVE SMOOTH",
"416 111 OFFCURVE",
"369 76 OFFCURVE",
"272 76 CURVE SMOOTH",
"218 76 OFFCURVE",
"166 82 OFFCURVE",
"107 96 CURVE SMOOTH",
"90 100 OFFCURVE",
"80 92 OFFCURVE",
"80 75 CURVE SMOOTH",
"80 37 LINE SMOOTH",
"80 23 OFFCURVE",
"87 13 OFFCURVE",
"101 9 CURVE SMOOTH",
"147 -4 OFFCURVE",
"208 -10 OFFCURVE",
"261 -10 CURVE SMOOTH",
"422 -10 OFFCURVE",
"514 56 OFFCURVE",
"514 163 CURVE SMOOTH",
"514 363 OFFCURVE",
"182 324 OFFCURVE",
"182 441 CURVE SMOOTH",
"182 493 OFFCURVE",
"224 526 OFFCURVE",
"317 526 CURVE SMOOTH",
"374 526 OFFCURVE",
"419 518 OFFCURVE",
"457 509 CURVE SMOOTH",
"474 505 OFFCURVE",
"484 513 OFFCURVE",
"484 530 CURVE SMOOTH",
"484 567 LINE SMOOTH",
"484 581 OFFCURVE",
"477 591 OFFCURVE",
"463 595 CURVE SMOOTH",
"418 608 OFFCURVE",
"374 611 OFFCURVE",
"319 611 CURVE SMOOTH"
);
}
);
width = 597;
},
{
background = {
paths = (
{
closed = 1;
nodes = (
"142 610 OFFCURVE",
"42 542 OFFCURVE",
"42 429 CURVE SMOOTH",
"42 330 OFFCURVE",
"87 281 OFFCURVE",
"207 248 CURVE SMOOTH",
"321 217 LINE SMOOTH",
"361 206 OFFCURVE",
"371 200 OFFCURVE",
"371 178 CURVE SMOOTH",
"371 151 OFFCURVE",
"340 139 OFFCURVE",
"267 139 CURVE SMOOTH",
"218 139 OFFCURVE",
"177 143 OFFCURVE",
"92 156 CURVE SMOOTH",
"65 160 OFFCURVE",
"49 146 OFFCURVE",
"49 119 CURVE SMOOTH",
"49 53 LINE SMOOTH",
"49 29 OFFCURVE",
"60 14 OFFCURVE",
"85 8 CURVE SMOOTH",
"131 -3 OFFCURVE",
"203 -10 OFFCURVE",
"269 -10 CURVE SMOOTH",
"445 -10 OFFCURVE",
"542 58 OFFCURVE",
"542 176 CURVE SMOOTH",
"542 269 OFFCURVE",
"484 323 OFFCURVE",
"383 350 CURVE SMOOTH",
"269 381 LINE SMOOTH",
"221 394 OFFCURVE",
"215 404 OFFCURVE",
"215 419 CURVE SMOOTH",
"215 449 OFFCURVE",
"247 461 OFFCURVE",
"313 461 CURVE SMOOTH",
"378 461 OFFCURVE",
"415 456 OFFCURVE",
"469 448 CURVE SMOOTH",
"496 444 OFFCURVE",
"512 458 OFFCURVE",
"512 485 CURVE SMOOTH",
"512 551 LINE SMOOTH",
"512 575 OFFCURVE",
"501 590 OFFCURVE",
"476 595 CURVE SMOOTH",
"427 605 OFFCURVE",
"371 610 OFFCURVE",
"315 610 CURVE SMOOTH"
);
}
);
};
hints = (
{
horizontal = 1;
place = "{-10, 151}";
type = Stem;
},
{
horizontal = 1;
place = "{469, 151}";
type = Stem;
},
{
place = "{42, 174}";
type = Stem;
},
{
place = "{387, 172}";
type = Stem;
}
);
layerId = "014D4A40-7C7F-4023-B30E-1F55CE5EA091";
paths = (
{
closed = 1;
nodes = (
"148 610 OFFCURVE",
"49 538 OFFCURVE",
"49 421 CURVE SMOOTH",
"49 195 OFFCURVE",
"371 256 OFFCURVE",
"371 178 CURVE SMOOTH",
"371 151 OFFCURVE",
"340 139 OFFCURVE",
"267 139 CURVE SMOOTH",
"218 139 OFFCURVE",
"177 145 OFFCURVE",
"92 158 CURVE SMOOTH",
"65 162 OFFCURVE",
"49 148 OFFCURVE",
"49 121 CURVE SMOOTH",
"49 55 LINE SMOOTH",
"49 31 OFFCURVE",
"61 17 OFFCURVE",
"85 10 CURVE SMOOTH",
"131 -3 OFFCURVE",
"203 -10 OFFCURVE",
"259 -10 CURVE SMOOTH",
"444 -10 OFFCURVE",
"542 57 OFFCURVE",
"542 176 CURVE SMOOTH",
"542 395 OFFCURVE",
"222 345 OFFCURVE",
"222 419 CURVE SMOOTH",
"222 447 OFFCURVE",
"248 461 OFFCURVE",
"313 461 CURVE SMOOTH",
"365 461 OFFCURVE",
"401 456 OFFCURVE",
"459 446 CURVE SMOOTH",
"486 441 OFFCURVE",
"502 456 OFFCURVE",
"502 483 CURVE SMOOTH",
"502 549 LINE SMOOTH",
"502 574 OFFCURVE",
"490 587 OFFCURVE",
"466 593 CURVE SMOOTH",
"418 604 OFFCURVE",
"372 610 OFFCURVE",
"325 610 CURVE SMOOTH"
);
}
);
width = 594;
}
);
note = s;
unicode = 0073;
},
{
color = 3;
glyphname = t;
lastChange = "2019-02-19 10:23:19 +0000";
layers = (
{
background = {
paths = (
{
closed = 1;
nodes = (
"408 86 OFFCURVE",
"381 81 OFFCURVE",
"340 81 CURVE SMOOTH",
"248 81 OFFCURVE",
"201 129 OFFCURVE",
"201 223 CURVE SMOOTH",
"201 730 LINE",
"108 730 LINE",
"108 206 LINE SMOOTH",
"108 76 OFFCURVE",
"194 -4 OFFCURVE",
"335 -4 CURVE SMOOTH",
"373 -4 OFFCURVE",
"414 4 OFFCURVE",
"447 19 CURVE",
"447 104 LINE"
);
},
{
closed = 1;
nodes = (
"402 519 LINE",
"402 600 LINE",
"8 600 LINE",
"8 519 LINE"
);
}
);
};
guideLines = (
{
angle = 90;
position = "{201, 397}";
}
);
layerId = "A3B50665-EA37-4AC6-885C-1233CA61B6BD";
paths = (
{
closed = 1;
nodes = (
"393 83 OFFCURVE",
"370 79 OFFCURVE",
"340 79 CURVE SMOOTH",
"248 79 OFFCURVE",
"201 127 OFFCURVE",
"201 221 CURVE SMOOTH",
"201 705 LINE SMOOTH",
"201 721 OFFCURVE",
"192 730 OFFCURVE",
"176 730 CURVE SMOOTH",
"133 730 LINE SMOOTH",
"117 730 OFFCURVE",
"108 721 OFFCURVE",
"108 705 CURVE SMOOTH",
"108 206 LINE SMOOTH",
"108 76 OFFCURVE",
"190 -4 OFFCURVE",
"335 -4 CURVE SMOOTH",
"366 -4 OFFCURVE",
"399 1 OFFCURVE",
"428 12 CURVE SMOOTH",
"441 17 OFFCURVE",
"447 27 OFFCURVE",
"447 41 CURVE SMOOTH",
"447 72 LINE SMOOTH",
"447 90 OFFCURVE",
"436 97 OFFCURVE",
"418 91 CURVE SMOOTH"
);
},
{
closed = 1;
nodes = (
"377 519 LINE SMOOTH",
"393 519 OFFCURVE",
"402 528 OFFCURVE",
"402 544 CURVE SMOOTH",
"402 575 LINE SMOOTH",
"402 591 OFFCURVE",
"393 600 OFFCURVE",
"377 600 CURVE SMOOTH",
"33 600 LINE SMOOTH",
"17 600 OFFCURVE",
"8 591 OFFCURVE",
"8 575 CURVE SMOOTH",
"8 544 LINE SMOOTH",
"8 528 OFFCURVE",
"17 519 OFFCURVE",
"33 519 CURVE SMOOTH"
);
}
);
width = 429;
},
{
background = {
paths = (
{
closed = 1;
nodes = (
"420 125 OFFCURVE",
"387 121 OFFCURVE",
"358 121 CURVE SMOOTH",
"290 121 OFFCURVE",
"251 149 OFFCURVE",
"251 208 CURVE SMOOTH",
"251 720 LINE",
"95 720 LINE",
"95 199 LINE SMOOTH",
"95 51 OFFCURVE",
"198 -10 OFFCURVE",
"343 -10 CURVE SMOOTH",
"369 -10 OFFCURVE",
"413 -5 OFFCURVE",
"449 12 CURVE",
"449 140 LINE"
);
},
{
closed = 1;
nodes = (
"412 474 LINE",
"412 600 LINE",
"4 600 LINE",
"4 474 LINE"
);
}
);
};
layerId = "014D4A40-7C7F-4023-B30E-1F55CE5EA091";
paths = (
{
closed = 1;
nodes = (
"389 133 OFFCURVE",
"373 132 OFFCURVE",
"358 132 CURVE SMOOTH",
"288 132 OFFCURVE",
"251 162 OFFCURVE",
"251 219 CURVE SMOOTH",
"251 690 LINE SMOOTH",
"251 716 OFFCURVE",
"237 730 OFFCURVE",
"211 730 CURVE SMOOTH",
"135 730 LINE SMOOTH",
"109 730 OFFCURVE",
"95 716 OFFCURVE",
"95 690 CURVE SMOOTH",
"95 199 LINE SMOOTH",
"95 64 OFFCURVE",
"173 -10 OFFCURVE",
"343 -10 CURVE SMOOTH",
"362 -10 OFFCURVE",
"390 -7 OFFCURVE",
"417 0 CURVE SMOOTH",
"440 7 OFFCURVE",
"449 23 OFFCURVE",
"449 46 CURVE SMOOTH",
"449 104 LINE SMOOTH",
"449 132 OFFCURVE",
"433 141 OFFCURVE",
"405 136 CURVE SMOOTH"
);
},
{
closed = 1;
nodes = (
"393 468 LINE SMOOTH",
"419 468 OFFCURVE",
"433 482 OFFCURVE",
"433 508 CURVE SMOOTH",
"433 560 LINE SMOOTH",
"433 586 OFFCURVE",
"419 600 OFFCURVE",
"393 600 CURVE SMOOTH",
"34 600 LINE SMOOTH",
"8 600 OFFCURVE",
"-6 586 OFFCURVE",
"-6 560 CURVE SMOOTH",
"-6 508 LINE SMOOTH",
"-6 482 OFFCURVE",
"8 468 OFFCURVE",
"34 468 CURVE SMOOTH"
);
}
);
width = 447;
}
);
unicode = 0074;
},
{
color = 3;
glyphname = u;
lastChange = "2019-02-19 10:15:30 +0000";
layers = (
{
background = {
paths = (
{
closed = 1;
nodes = (
"515 600 LINE SMOOTH",
"499 600 OFFCURVE",
"490 591 OFFCURVE",
"490 575 CURVE SMOOTH",
"490 269 LINE SMOOTH",
"490 130 OFFCURVE",
"445 75 OFFCURVE",
"334 75 CURVE SMOOTH",
"235 75 OFFCURVE",
"190 130 OFFCURVE",
"190 299 CURVE SMOOTH",
"190 575 LINE SMOOTH",
"190 591 OFFCURVE",
"181 600 OFFCURVE",
"165 600 CURVE SMOOTH",
"122 600 LINE SMOOTH",
"106 600 OFFCURVE",
"97 591 OFFCURVE",
"97 575 CURVE SMOOTH",
"97 299 LINE SMOOTH",
"97 88 OFFCURVE",
"173 -11 OFFCURVE",
"334 -11 CURVE SMOOTH",
"414 -11 OFFCURVE",
"476 25 OFFCURVE",
"502 71 CURVE",
"490 108 LINE",
"490 21 LINE SMOOTH",
"490 10 OFFCURVE",
"500 0 OFFCURVE",
"513 0 CURVE SMOOTH",
"561 0 LINE SMOOTH",
"573 0 OFFCURVE",
"583 11 OFFCURVE",
"583 22 CURVE SMOOTH",
"583 575 LINE SMOOTH",
"583 591 OFFCURVE",
"574 600 OFFCURVE",
"558 600 CURVE SMOOTH"
);
}
);
};
hints = (
{
horizontal = 1;
place = "{-10, 90}";
type = Stem;
},
{
horizontal = 1;
place = "{600, -20}";
target = down;
type = TopGhost;
},
{
place = "{82, 93}";
type = Stem;
},
{
place = "{479, 93}";
type = Stem;
},
{
horizontal = 1;
place = "{0, 21}";
target = up;
type = BottomGhost;
}
);
layerId = "A3B50665-EA37-4AC6-885C-1233CA61B6BD";
paths = (
{
closed = 1;
nodes = (
"583 575 LINE SMOOTH",
"583 591 OFFCURVE",
"574 600 OFFCURVE",
"558 600 CURVE SMOOTH",
"515 600 LINE SMOOTH",
"499 600 OFFCURVE",
"490 591 OFFCURVE",
"490 575 CURVE SMOOTH",
"490 269 LINE SMOOTH",
"490 130 OFFCURVE",
"445 75 OFFCURVE",
"334 75 CURVE SMOOTH",
"235 75 OFFCURVE",
"190 130 OFFCURVE",
"190 299 CURVE SMOOTH",
"190 575 LINE SMOOTH",
"190 591 OFFCURVE",
"181 600 OFFCURVE",
"165 600 CURVE SMOOTH",
"122 600 LINE SMOOTH",
"106 600 OFFCURVE",
"97 591 OFFCURVE",
"97 575 CURVE SMOOTH",
"97 299 LINE SMOOTH",
"97 88 OFFCURVE",
"173 -11 OFFCURVE",
"334 -11 CURVE SMOOTH",
"414 -11 OFFCURVE",
"476 25 OFFCURVE",
"502 71 CURVE",
"492 144 LINE",
"492 113 LINE SMOOTH",
"492 36 OFFCURVE",
"539 -4 OFFCURVE",
"628 -4 CURVE SMOOTH",
"642 -4 OFFCURVE",
"659 -2 OFFCURVE",
"673 1 CURVE SMOOTH",
"687 4 OFFCURVE",
"693 15 OFFCURVE",
"693 29 CURVE SMOOTH",
"693 55 LINE SMOOTH",
"693 72 OFFCURVE",
"683 79 OFFCURVE",
"665 77 CURVE SMOOTH",
"656 76 OFFCURVE",
"648 75 OFFCURVE",
"639 75 CURVE SMOOTH",
"596 75 OFFCURVE",
"583 91 OFFCURVE",
"583 131 CURVE SMOOTH"
);
}
);
width = 690;
},
{
background = {
paths = (
{
closed = 1;
nodes = (
"75 262 LINE SMOOTH",
"75 73 OFFCURVE",
"144 -10 OFFCURVE",
"298 -10 CURVE SMOOTH",
"377 -10 OFFCURVE",
"434 15 OFFCURVE",
"464 69 CURVE",
"455 121 LINE",
"455 30 LINE SMOOTH",
"455 10 OFFCURVE",
"467 0 OFFCURVE",
"497 0 CURVE SMOOTH",
"567 0 LINE SMOOTH",
"597 0 OFFCURVE",
"607 20 OFFCURVE",
"607 40 CURVE SMOOTH",
"607 560 LINE SMOOTH",
"607 580 OFFCURVE",
"597 600 OFFCURVE",
"567 600 CURVE SMOOTH",
"485 600 LINE SMOOTH",
"455 600 OFFCURVE",
"445 580 OFFCURVE",
"445 560 CURVE SMOOTH",
"445 262 LINE SMOOTH",
"445 174 OFFCURVE",
"410 131 OFFCURVE",
"341 131 CURVE SMOOTH",
"272 131 OFFCURVE",
"237 174 OFFCURVE",
"237 262 CURVE SMOOTH",
"237 560 LINE SMOOTH",
"237 580 OFFCURVE",
"227 600 OFFCURVE",
"197 600 CURVE SMOOTH",
"115 600 LINE SMOOTH",
"85 600 OFFCURVE",
"75 580 OFFCURVE",
"75 560 CURVE SMOOTH"
);
}
);
};
hints = (
{
horizontal = 1;
place = "{-10, 155}";
type = Stem;
},
{
horizontal = 1;
place = "{600, -20}";
target = down;
type = TopGhost;
},
{
place = "{60, 162}";
type = Stem;
},
{
place = "{434, 162}";
type = Stem;
},
{
horizontal = 1;
place = "{0, 21}";
target = up;
type = BottomGhost;
},
{
place = "{457, 139}";
type = Stem;
}
);
layerId = "014D4A40-7C7F-4023-B30E-1F55CE5EA091";
paths = (
{
closed = 1;
nodes = (
"607 560 LINE SMOOTH",
"607 580 OFFCURVE",
"597 600 OFFCURVE",
"567 600 CURVE SMOOTH",
"485 600 LINE SMOOTH",
"455 600 OFFCURVE",
"445 580 OFFCURVE",
"445 560 CURVE SMOOTH",
"445 262 LINE SMOOTH",
"445 174 OFFCURVE",
"410 131 OFFCURVE",
"341 131 CURVE SMOOTH",
"272 131 OFFCURVE",
"237 174 OFFCURVE",
"237 262 CURVE SMOOTH",
"237 560 LINE SMOOTH",
"237 580 OFFCURVE",
"227 600 OFFCURVE",
"197 600 CURVE SMOOTH",
"115 600 LINE SMOOTH",
"85 600 OFFCURVE",
"75 580 OFFCURVE",
"75 560 CURVE SMOOTH",
"75 262 LINE SMOOTH",
"75 73 OFFCURVE",
"144 -10 OFFCURVE",
"298 -10 CURVE SMOOTH",
"377 -10 OFFCURVE",
"434 15 OFFCURVE",
"464 69 CURVE",
"445 210 LINE",
"445 155 LINE SMOOTH",
"445 57 OFFCURVE",
"507 -4 OFFCURVE",
"636 -4 CURVE SMOOTH",
"656 -4 OFFCURVE",
"676 -1 OFFCURVE",
"694 4 CURVE SMOOTH",
"714 10 OFFCURVE",
"723 25 OFFCURVE",
"723 48 CURVE SMOOTH",
"723 98 LINE SMOOTH",
"723 126 OFFCURVE",
"713 138 OFFCURVE",
"688 132 CURVE SMOOTH",
"679 130 OFFCURVE",
"669 128 OFFCURVE",
"661 128 CURVE SMOOTH",
"625 128 OFFCURVE",
"607 146 OFFCURVE",
"607 187 CURVE SMOOTH"
);
}
);
width = 702;
}
);
note = u;
rightMetricsKey = a;
unicode = 0075;
},
{
color = 3;
glyphname = v;
lastChange = "2019-02-19 10:37:52 +0000";
layers = (
{
background = {
paths = (
{
closed = 1;
nodes = (
"261 29 LINE",
"313 28 LINE",
"108 600 LINE",
"0 600 LINE",
"225 0 LINE",
"344 0 LINE",
"568 600 LINE",
"466 600 LINE"
);
}
);
};
layerId = "A3B50665-EA37-4AC6-885C-1233CA61B6BD";
paths = (
{
closed = 1;
nodes = (
"261 29 LINE",
"313 28 LINE",
"115 580 LINE SMOOTH",
"110 593 OFFCURVE",
"101 600 OFFCURVE",
"87 600 CURVE SMOOTH",
"31 600 LINE SMOOTH",
"13 600 OFFCURVE",
"4 589 OFFCURVE",
"11 571 CURVE SMOOTH",
"218 20 LINE SMOOTH",
"223 7 OFFCURVE",
"232 0 OFFCURVE",
"246 0 CURVE SMOOTH",
"323 0 LINE SMOOTH",
"337 0 OFFCURVE",
"346 7 OFFCURVE",
"351 20 CURVE SMOOTH",
"557 571 LINE SMOOTH",
"564 589 OFFCURVE",
"555 600 OFFCURVE",
"537 600 CURVE SMOOTH",
"487 600 LINE SMOOTH",
"473 600 OFFCURVE",
"464 593 OFFCURVE",
"459 580 CURVE SMOOTH"
);
}
);
width = 569;
},
{
background = {
paths = (
{
closed = 1;
nodes = (
"292 80 LINE",
"362 79 LINE",
"180 600 LINE",
"-3 600 LINE",
"217 0 LINE",
"428 0 LINE",
"648 600 LINE",
"473 600 LINE"
);
}
);
};
layerId = "014D4A40-7C7F-4023-B30E-1F55CE5EA091";
paths = (
{
closed = 1;
nodes = (
"292 80 LINE",
"362 79 LINE",
"191 568 LINE SMOOTH",
"183 590 OFFCURVE",
"169 600 OFFCURVE",
"146 600 CURVE SMOOTH",
"46 600 LINE SMOOTH",
"17 600 OFFCURVE",
"4 581 OFFCURVE",
"14 554 CURVE SMOOTH",
"205 32 LINE SMOOTH",
"213 11 OFFCURVE",
"228 0 OFFCURVE",
"251 0 CURVE SMOOTH",
"394 0 LINE SMOOTH",
"417 0 OFFCURVE",
"432 11 OFFCURVE",
"440 32 CURVE SMOOTH",
"631 554 LINE SMOOTH",
"641 581 OFFCURVE",
"628 600 OFFCURVE",
"599 600 CURVE SMOOTH",
"507 600 LINE SMOOTH",
"484 600 OFFCURVE",
"470 590 OFFCURVE",
"462 568 CURVE SMOOTH"
);
}
);
width = 645;
}
);
unicode = 0076;
},
{
color = 3;
glyphname = y;
lastChange = "2019-02-19 10:15:26 +0000";
layers = (
{
background = {
paths = (
{
closed = 1;
nodes = (
"922 24 LINE",
"949 23 LINE",
"796 497 LINE",
"708 497 LINE",
"875 0 LINE",
"992 0 LINE",
"1159 497 LINE",
"1075 497 LINE"
);
},
{
closed = 1;
nodes = (
"211 -190 OFFCURVE",
"294 -118 OFFCURVE",
"294 4 CURVE SMOOTH",
"294 496 LINE",
"217 497 LINE",
"217 15 LINE SMOOTH",
"217 -87 OFFCURVE",
"158 -118 OFFCURVE",
"77 -118 CURVE SMOOTH",
"32 -118 OFFCURVE",
"3 -111 OFFCURVE",
"-37 -97 CURVE",
"-28 -173 LINE",
"0 -184 OFFCURVE",
"42 -190 OFFCURVE",
"75 -190 CURVE SMOOTH"
);
}
);
};
layerId = "A3B50665-EA37-4AC6-885C-1233CA61B6BD";
paths = (
{
closed = 1;
nodes = (
"186 -190 OFFCURVE",
"246 -136 OFFCURVE",
"288 -12 CURVE SMOOTH",
"459 497 LINE",
"375 497 LINE",
"231 45 LINE",
"223 26 LINE",
"211 -9 LINE SMOOTH",
"186 -78 OFFCURVE",
"146 -118 OFFCURVE",
"78 -118 CURVE SMOOTH",
"34 -118 OFFCURVE",
"3 -111 OFFCURVE",
"-37 -97 CURVE",
"-28 -173 LINE",
"-7 -182 OFFCURVE",
"33 -190 OFFCURVE",
"75 -190 CURVE SMOOTH"
);
},
{
closed = 1;
nodes = (
"257 0 LINE",
"96 497 LINE",
"8 497 LINE",
"175 0 LINE"
);
}
);
width = 467;
},
{
background = {
paths = (
{
closed = 1;
nodes = (
"-150 -190 OFFCURVE",
"-45 -112 OFFCURVE",
"-45 23 CURVE SMOOTH",
"-45 514 LINE",
"-186 514 LINE",
"-186 25 LINE SMOOTH",
"-186 -36 OFFCURVE",
"-229 -72 OFFCURVE",
"-305 -72 CURVE SMOOTH",
"-336 -72 OFFCURVE",
"-370 -67 OFFCURVE",
"-407 -52 CURVE",
"-399 -176 LINE",
"-366 -186 OFFCURVE",
"-325 -190 OFFCURVE",
"-298 -190 CURVE SMOOTH"
);
},
{
closed = 1;
nodes = (
"252 71 LINE",
"294 70 LINE",
"157 508 LINE",
"2 508 LINE",
"171 0 LINE",
"367 0 LINE",
"536 508 LINE",
"388 508 LINE"
);
}
);
};
guideLines = (
{
angle = 253.0219;
position = "{388, 508}";
}
);
layerId = "014D4A40-7C7F-4023-B30E-1F55CE5EA091";
paths = (
{
closed = 1;
nodes = (
"186 -190 OFFCURVE",
"309 -174 OFFCURVE",
"369 6 CURVE SMOOTH",
"536 508 LINE",
"388 508 LINE",
"264 100 LINE",
"248 59 LINE",
"238 26 LINE SMOOTH",
"219 -38 OFFCURVE",
"171 -72 OFFCURVE",
"95 -72 CURVE SMOOTH",
"64 -72 OFFCURVE",
"30 -67 OFFCURVE",
"-7 -52 CURVE",
"1 -176 LINE",
"34 -186 OFFCURVE",
"75 -190 OFFCURVE",
"102 -190 CURVE SMOOTH"
);
},
{
closed = 1;
nodes = (
"317 0 LINE",
"157 508 LINE",
"2 508 LINE",
"171 0 LINE"
);
}
);
width = 538;
}
);
unicode = 0079;
},
{
color = 3;
glyphname = l.ss01;
lastChange = "2019-02-19 10:18:48 +0000";
layers = (
{
background = {
paths = (
{
closed = 1;
nodes = (
"1300 779 LINE SMOOTH",
"1300 790 OFFCURVE",
"1289 801 OFFCURVE",
"1277 801 CURVE SMOOTH",
"1229 801 LINE SMOOTH",
"1217 801 OFFCURVE",
"1207 790 OFFCURVE",
"1207 779 CURVE SMOOTH",
"1207 22 LINE SMOOTH",
"1207 11 OFFCURVE",
"1217 0 OFFCURVE",
"1229 0 CURVE SMOOTH",
"1277 0 LINE SMOOTH",
"1290 0 OFFCURVE",
"1300 11 OFFCURVE",
"1300 22 CURVE SMOOTH"
);
},
{
closed = 1;
nodes = (
"1638 278 OFFCURVE",
"1585 314 OFFCURVE",
"1469 314 CURVE",
"1469 298 LINE",
"1582 298 OFFCURVE",
"1630 367 OFFCURVE",
"1635 488 CURVE SMOOTH",
"1639 579 LINE SMOOTH",
"1639 590 OFFCURVE",
"1629 600 OFFCURVE",
"1616 600 CURVE SMOOTH",
"1568 600 LINE SMOOTH",
"1556 600 OFFCURVE",
"1547 589 OFFCURVE",
"1546 577 CURVE SMOOTH",
"1542 488 LINE SMOOTH",
"1537 374 OFFCURVE",
"1489 343 OFFCURVE",
"1364 343 CURVE SMOOTH",
"1284 343 LINE",
"1284 258 LINE",
"1428 258 LINE SMOOTH",
"1543 258 OFFCURVE",
"1561 221 OFFCURVE",
"1574 166 CURVE SMOOTH",
"1584 123 LINE SMOOTH",
"1604 37 OFFCURVE",
"1645 -4 OFFCURVE",
"1732 -4 CURVE SMOOTH",
"1746 -4 OFFCURVE",
"1763 -2 OFFCURVE",
"1777 1 CURVE SMOOTH",
"1791 4 OFFCURVE",
"1797 15 OFFCURVE",
"1797 29 CURVE SMOOTH",
"1797 55 LINE SMOOTH",
"1797 72 OFFCURVE",
"1787 79 OFFCURVE",
"1769 77 CURVE SMOOTH",
"1760 76 OFFCURVE",
"1752 75 OFFCURVE",
"1743 75 CURVE SMOOTH",
"1700 75 OFFCURVE",
"1691 90 OFFCURVE",
"1677 141 CURVE SMOOTH",
"1660 201 LINE SMOOTH"
);
},
{
closed = 1;
nodes = (
"237 770 LINE SMOOTH",
"237 790 OFFCURVE",
"225 810 OFFCURVE",
"195 810 CURVE SMOOTH",
"115 810 LINE SMOOTH",
"85 810 OFFCURVE",
"75 790 OFFCURVE",
"75 770 CURVE SMOOTH",
"75 40 LINE SMOOTH",
"75 20 OFFCURVE",
"85 0 OFFCURVE",
"115 0 CURVE SMOOTH",
"197 0 LINE SMOOTH",
"227 0 OFFCURVE",
"237 20 OFFCURVE",
"237 40 CURVE SMOOTH"
);
},
{
closed = 1;
nodes = (
"500 283 OFFCURVE",
"444 317 OFFCURVE",
"349 317 CURVE",
"349 290 LINE",
"481 290 OFFCURVE",
"549 365 OFFCURVE",
"555 502 CURVE SMOOTH",
"558 570 LINE SMOOTH",
"559 590 OFFCURVE",
"546 600 OFFCURVE",
"516 600 CURVE SMOOTH",
"436 600 LINE SMOOTH",
"406 600 OFFCURVE",
"397 580 OFFCURVE",
"396 560 CURVE SMOOTH",
"393 502 LINE SMOOTH",
"388 401 OFFCURVE",
"361 375 OFFCURVE",
"260 375 CURVE SMOOTH",
"221 375 LINE",
"221 227 LINE",
"266 227 LINE SMOOTH",
"338 227 OFFCURVE",
"354 212 OFFCURVE",
"368 156 CURVE SMOOTH",
"377 121 LINE SMOOTH",
"396 47 OFFCURVE",
"440 -4 OFFCURVE",
"563 -4 CURVE SMOOTH",
"587 -4 OFFCURVE",
"607 -1 OFFCURVE",
"625 4 CURVE SMOOTH",
"645 10 OFFCURVE",
"654 25 OFFCURVE",
"654 48 CURVE SMOOTH",
"654 98 LINE SMOOTH",
"654 126 OFFCURVE",
"644 138 OFFCURVE",
"619 132 CURVE SMOOTH",
"610 130 OFFCURVE",
"600 128 OFFCURVE",
"588 128 CURVE SMOOTH",
"550 128 OFFCURVE",
"535 144 OFFCURVE",
"524 189 CURVE SMOOTH",
"515 224 LINE SMOOTH"
);
}
);
};
hints = (
{
horizontal = 1;
place = "{0, 21}";
target = up;
type = BottomGhost;
},
{
horizontal = 1;
place = "{258, 85}";
type = Stem;
},
{
horizontal = 1;
place = "{600, -20}";
target = down;
type = TopGhost;
},
{
horizontal = 1;
place = "{801, -20}";
target = down;
type = TopGhost;
},
{
place = "{87, 93}";
type = Stem;
},
{
place = "{425, 93}";
type = Stem;
}
);
layerId = "A3B50665-EA37-4AC6-885C-1233CA61B6BD";
paths = (
{
closed = 1;
nodes = (
"190 788 LINE SMOOTH",
"190 799 OFFCURVE",
"179 810 OFFCURVE",
"167 810 CURVE SMOOTH",
"119 810 LINE SMOOTH",
"107 810 OFFCURVE",
"97 799 OFFCURVE",
"97 788 CURVE SMOOTH",
"97 22 LINE SMOOTH",
"97 11 OFFCURVE",
"107 0 OFFCURVE",
"119 0 CURVE SMOOTH",
"167 0 LINE SMOOTH",
"180 0 OFFCURVE",
"190 11 OFFCURVE",
"190 22 CURVE SMOOTH"
);
}
);
width = 287;
},
{
background = {
paths = (
{
closed = 1;
nodes = (
"237 770 LINE SMOOTH",
"237 790 OFFCURVE",
"225 810 OFFCURVE",
"195 810 CURVE SMOOTH",
"115 810 LINE SMOOTH",
"85 810 OFFCURVE",
"75 790 OFFCURVE",
"75 770 CURVE SMOOTH",
"75 40 LINE SMOOTH",
"75 20 OFFCURVE",
"85 0 OFFCURVE",
"115 0 CURVE SMOOTH",
"197 0 LINE SMOOTH",
"227 0 OFFCURVE",
"237 20 OFFCURVE",
"237 40 CURVE SMOOTH"
);
},
{
closed = 1;
nodes = (
"503 283 OFFCURVE",
"447 317 OFFCURVE",
"349 317 CURVE",
"349 290 LINE",
"491 290 OFFCURVE",
"555 365 OFFCURVE",
"555 502 CURVE SMOOTH",
"555 570 LINE SMOOTH",
"555 590 OFFCURVE",
"543 600 OFFCURVE",
"513 600 CURVE SMOOTH",
"433 600 LINE SMOOTH",
"403 600 OFFCURVE",
"393 580 OFFCURVE",
"393 560 CURVE SMOOTH",
"393 532 LINE SMOOTH",
"393 401 OFFCURVE",
"371 375 OFFCURVE",
"260 375 CURVE SMOOTH",
"221 375 LINE",
"221 227 LINE",
"266 227 LINE SMOOTH",
"338 227 OFFCURVE",
"354 212 OFFCURVE",
"368 156 CURVE SMOOTH",
"377 121 LINE SMOOTH",
"396 47 OFFCURVE",
"439 -4 OFFCURVE",
"560 -4 CURVE SMOOTH",
"580 -4 OFFCURVE",
"600 -1 OFFCURVE",
"618 4 CURVE SMOOTH",
"638 10 OFFCURVE",
"647 25 OFFCURVE",
"647 48 CURVE SMOOTH",
"647 98 LINE SMOOTH",
"647 126 OFFCURVE",
"637 138 OFFCURVE",
"612 132 CURVE SMOOTH",
"603 130 OFFCURVE",
"593 128 OFFCURVE",
"585 128 CURVE SMOOTH",
"552 128 OFFCURVE",
"538 144 OFFCURVE",
"527 189 CURVE SMOOTH",
"518 224 LINE SMOOTH"
);
}
);
};
hints = (
{
horizontal = 1;
place = "{0, 21}";
target = up;
type = BottomGhost;
},
{
horizontal = 1;
place = "{227, 148}";
type = Stem;
},
{
horizontal = 1;
place = "{600, -20}";
target = down;
type = TopGhost;
},
{
horizontal = 1;
place = "{810, -20}";
target = down;
type = TopGhost;
},
{
place = "{65, 162}";
type = Stem;
},
{
place = "{383, 162}";
type = Stem;
}
);
layerId = "014D4A40-7C7F-4023-B30E-1F55CE5EA091";
paths = (
{
closed = 1;
nodes = (
"237 770 LINE SMOOTH",
"237 790 OFFCURVE",
"225 810 OFFCURVE",
"195 810 CURVE SMOOTH",
"115 810 LINE SMOOTH",
"85 810 OFFCURVE",
"75 790 OFFCURVE",
"75 770 CURVE SMOOTH",
"75 40 LINE SMOOTH",
"75 20 OFFCURVE",
"85 0 OFFCURVE",
"115 0 CURVE SMOOTH",
"197 0 LINE SMOOTH",
"227 0 OFFCURVE",
"237 20 OFFCURVE",
"237 40 CURVE SMOOTH"
);
}
);
width = 312;
}
);
leftMetricsKey = h;
note = k;
rightMetricsKey = "=|";
},
{
glyphname = period;
lastChange = "2019-02-05 11:08:29 +0000";
layers = (
{
hints = (
{
horizontal = 1;
place = "{0, 119}";
type = Stem;
},
{
place = "{73, 120}";
type = Stem;
}
);
layerId = "A3B50665-EA37-4AC6-885C-1233CA61B6BD";
paths = (
{
closed = 1;
nodes = (
"96 119 LINE SMOOTH",
"83 119 OFFCURVE",
"73 108 OFFCURVE",
"73 97 CURVE SMOOTH",
"73 22 LINE SMOOTH",
"73 11 OFFCURVE",
"83 0 OFFCURVE",
"96 0 CURVE SMOOTH",
"171 0 LINE SMOOTH",
"183 0 OFFCURVE",
"193 11 OFFCURVE",
"193 22 CURVE SMOOTH",
"193 98 LINE SMOOTH",
"193 109 OFFCURVE",
"183 119 OFFCURVE",
"171 119 CURVE SMOOTH"
);
}
);
width = 267;
},
{
hints = (
{
horizontal = 1;
place = "{0, 186}";
type = Stem;
},
{
place = "{53, 186}";
type = Stem;
}
);
layerId = "014D4A40-7C7F-4023-B30E-1F55CE5EA091";
paths = (
{
closed = 1;
nodes = (
"93 186 LINE SMOOTH",
"63 186 OFFCURVE",
"53 166 OFFCURVE",
"53 146 CURVE SMOOTH",
"53 40 LINE SMOOTH",
"53 20 OFFCURVE",
"63 0 OFFCURVE",
"93 0 CURVE SMOOTH",
"199 0 LINE SMOOTH",
"229 0 OFFCURVE",
"239 20 OFFCURVE",
"239 40 CURVE SMOOTH",
"239 156 LINE SMOOTH",
"239 176 OFFCURVE",
"227 186 OFFCURVE",
"197 186 CURVE SMOOTH"
);
}
);
width = 292;
}
);
note = period;
unicode = 002E;
},
